<svg width="368" height="85" viewBox="0 0 368 85" fill="none" xmlns="http://www.w3.org/2000/svg">
<path d="M0 0H72.4184V74.5412H0V0Z" fill="#1A202C"/>
<path d="M20.4545 32.2909V34.7455C21.3636 33.9091 22.4909 33.1636 23.8364 32.5091C25.1818 31.8545 26.6364 31.5273 28.2 31.5273C30.3455 31.5273 32.1091 31.8182 33.4909 32.4C34.9091 32.9818 36.1091 33.9273 37.0909 35.2364C38.1091 36.5091 39.0364 38.2727 39.8727 40.5273L33.9818 43.2C33.4364 41.5636 32.9455 40.3636 32.5091 39.6C32.1091 38.8364 31.5818 38.3091 30.9273 38.0182C30.3091 37.6909 29.4 37.5273 28.2 37.5273C25.3636 37.5273 23.3636 38.4727 22.2 40.3636C21.0364 42.2545 20.4545 45.0909 20.4545 48.8727V66H13.9091V32.2909H20.4545ZM69.0812 59.0727C67.1903 61.9455 65.2266 63.9455 63.1903 65.0727C61.1903 66.2 58.5539 66.7636 55.2812 66.7636C51.6812 66.7636 48.8266 66.1636 46.7175 64.9636C44.6085 63.7636 43.0812 61.8909 42.1357 59.3455C41.1903 56.7636 40.7175 53.3636 40.7175 49.1455C40.7175 44.9273 41.1903 41.5455 42.1357 39C43.0812 36.4182 44.6085 34.5273 46.7175 33.3273C48.8266 32.1273 51.6812 31.5273 55.2812 31.5273C58.8448 31.5273 61.6266 32.1818 63.6266 33.4909C65.6266 34.8 67.0266 36.8545 67.8266 39.6545C68.663 42.4545 69.0448 46.2182 68.9721 50.9455H47.3175C47.4266 53.4545 47.7539 55.4182 48.2994 56.8364C48.8448 58.2182 49.663 59.2182 50.7539 59.8364C51.8812 60.4545 53.3903 60.7636 55.2812 60.7636C56.6994 60.7636 57.8448 60.6364 58.7175 60.3818C59.5903 60.0909 60.3903 59.6 61.1175 58.9091C61.8812 58.1818 62.7903 57.0909 63.8448 55.6364L69.0812 59.0727ZM55.2812 37.5273C52.663 37.5273 50.7539 38.0727 49.5539 39.1636C48.3903 40.2545 47.6812 42.1818 47.4266 44.9455H62.3175C62.0994 43.0545 61.7357 41.5818 61.2266 40.5273C60.7539 39.4727 60.0448 38.7091 59.0994 38.2364C58.1539 37.7636 56.8812 37.5273 55.2812 37.5273Z" fill="white"/>
<path d="M83.4533 66.7636C80.2169 66.7636 77.6351 66.4 75.7078 65.6727C73.7805 64.9455 72.3805 63.8 71.5078 62.2364C70.6351 60.6727 70.1987 58.6 70.1987 56.0182C70.1987 53.0727 70.6169 50.8182 71.4533 49.2545C72.326 47.6545 73.7078 46.5455 75.5987 45.9273C77.4896 45.2727 80.1078 44.9455 83.4533 44.9455H90.1624V43.9091C90.1624 42.4545 89.9624 41.3273 89.5624 40.5273C89.1987 39.7273 88.5442 39.1636 87.5987 38.8364C86.6533 38.4727 85.2714 38.2909 83.4533 38.2909C81.926 38.2909 80.7624 38.4545 79.9624 38.7818C79.1987 39.0727 78.5987 39.6182 78.1624 40.4182C77.7624 41.2182 77.3624 42.4545 76.9624 44.1273L70.6896 42.6C71.3442 39.9818 72.1624 37.8727 73.1442 36.2727C74.1624 34.6727 75.4896 33.4909 77.126 32.7273C78.7987 31.9273 80.9078 31.5273 83.4533 31.5273C88.1805 31.5273 91.5624 32.5455 93.5987 34.5818C95.6714 36.6182 96.7078 39.7273 96.7078 43.9091V56.5636C96.7078 57.9818 96.8351 58.9273 97.0896 59.4C97.3805 59.8364 97.9442 60.0545 98.7805 60.0545C99.326 60.0545 100.053 60 100.962 59.8909V65.9455C100.526 65.9818 99.8896 66 99.0533 66C95.8896 66 93.7078 65.3455 92.5078 64.0364C91.4896 65.0182 90.2533 65.7091 88.7987 66.1091C87.3442 66.5455 85.5624 66.7636 83.4533 66.7636ZM83.4533 60.7636C85.2714 60.7636 86.6533 60.5636 87.5987 60.1636C88.5442 59.7273 89.1987 59 89.5624 57.9818C89.9624 56.9273 90.1624 55.4182 90.1624 53.4545V50.9455H83.4533C81.3805 50.9455 79.926 51.0364 79.0896 51.2182C78.2533 51.4 77.6533 51.8364 77.2896 52.5273C76.926 53.2182 76.7442 54.3818 76.7442 56.0182C76.7442 57.2909 76.9078 58.2545 77.2351 58.9091C77.5987 59.5636 78.2533 60.0364 79.1987 60.3273C80.1442 60.6182 81.5624 60.7636 83.4533 60.7636ZM113.262 66.7636C110.171 66.7636 107.734 66.2 105.953 65.0727C104.171 63.9455 102.571 61.9818 101.153 59.1818L106.334 54.9273C107.062 56.6364 107.68 57.8909 108.189 58.6909C108.734 59.4545 109.371 60 110.098 60.3273C110.862 60.6182 111.916 60.7636 113.262 60.7636C115.734 60.7636 117.589 60.6182 118.825 60.3273C120.098 60.0364 120.971 59.5818 121.444 58.9636C121.916 58.3091 122.153 57.3636 122.153 56.1273C122.153 54.8909 121.953 54 121.553 53.4545C121.189 52.8727 120.534 52.4545 119.589 52.2C118.644 51.9091 117.007 51.6182 114.68 51.3273C110.244 50.7818 107.025 49.8182 105.025 48.4364C103.025 47.0182 102.025 44.7818 102.025 41.7273C102.025 39.2909 102.48 37.3273 103.389 35.8364C104.334 34.3455 105.807 33.2545 107.807 32.5636C109.844 31.8727 112.571 31.5273 115.989 31.5273C119.225 31.5273 121.753 32.0182 123.571 33C125.389 33.9455 127.025 35.6364 128.48 38.0727L123.734 42.7636C122.934 41.2364 122.244 40.1273 121.662 39.4364C121.08 38.7091 120.371 38.2182 119.534 37.9636C118.698 37.6727 117.516 37.5273 115.989 37.5273C113.916 37.5273 112.353 37.6545 111.298 37.9091C110.28 38.1636 109.571 38.5818 109.171 39.1636C108.771 39.7455 108.571 40.6 108.571 41.7273C108.571 42.5636 108.789 43.2 109.225 43.6364C109.662 44.0364 110.28 44.3455 111.08 44.5636C111.916 44.7455 113.262 44.9636 115.116 45.2182C118.607 45.7273 121.298 46.3636 123.189 47.1273C125.116 47.8545 126.516 48.9273 127.389 50.3455C128.262 51.7636 128.698 53.6909 128.698 56.1273C128.698 58.6727 128.189 60.7273 127.171 62.2909C126.153 63.8182 124.516 64.9455 122.262 65.6727C120.044 66.4 117.044 66.7636 113.262 66.7636ZM144.379 66.7636C140.961 66.7636 138.27 66.1636 136.307 64.9636C134.343 63.7636 132.925 61.8909 132.052 59.3455C131.179 56.8 130.743 53.4 130.743 49.1455C130.743 44.8909 131.179 41.4909 132.052 38.9455C132.925 36.4 134.343 34.5273 136.307 33.3273C138.27 32.1273 140.961 31.5273 144.379 31.5273C147.797 31.5273 150.488 32.1273 152.452 33.3273C154.416 34.5273 155.834 36.4 156.707 38.9455C157.579 41.4909 158.016 44.8909 158.016 49.1455C158.016 53.4 157.579 56.8 156.707 59.3455C155.834 61.8909 154.416 63.7636 152.452 64.9636C150.488 66.1636 147.797 66.7636 144.379 66.7636ZM144.379 60.7636C146.234 60.7636 147.67 60.4182 148.688 59.7273C149.707 59 150.416 57.8182 150.816 56.1818C151.252 54.5091 151.47 52.1636 151.47 49.1455C151.47 46.1273 151.252 43.8 150.816 42.1636C150.416 40.4909 149.707 39.3091 148.688 38.6182C147.67 37.8909 146.234 37.5273 144.379 37.5273C142.525 37.5273 141.088 37.8909 140.07 38.6182C139.052 39.3091 138.325 40.4909 137.888 42.1636C137.488 43.8 137.288 46.1273 137.288 49.1455C137.288 52.1636 137.488 54.5091 137.888 56.1818C138.325 57.8182 139.052 59 140.07 59.7273C141.088 60.4182 142.525 60.7636 144.379 60.7636ZM167.751 32.2909V32.8909C170.26 31.9818 172.897 31.5273 175.66 31.5273C178.788 31.5273 181.206 31.9636 182.915 32.8364C184.624 33.7091 185.842 35.1636 186.57 37.2C187.297 39.2364 187.66 42.0909 187.66 45.7636V66H181.115V45.7636C181.115 43.6182 180.951 41.9636 180.624 40.8C180.297 39.6364 179.733 38.8 178.933 38.2909C178.17 37.7818 177.079 37.5273 175.66 37.5273C173.333 37.5273 171.624 37.7455 170.533 38.1818C169.442 38.5818 168.697 39.3091 168.297 40.3636C167.933 41.3818 167.751 42.9818 167.751 45.1636V66H161.206V32.2909H167.751ZM203.887 66.7636C201.96 66.7636 200.542 66.3636 199.633 65.5636C198.76 64.7273 198.323 63.4 198.323 61.5818C198.323 59.7636 198.76 58.4545 199.633 57.6545C200.542 56.8182 201.96 56.4 203.887 56.4C205.814 56.4 207.214 56.8182 208.087 57.6545C208.996 58.4545 209.451 59.7636 209.451 61.5818C209.451 63.4 208.996 64.7273 208.087 65.5636C207.214 66.3636 205.814 66.7636 203.887 66.7636ZM234.296 66.7636C231.059 66.7636 228.459 66.3273 226.496 65.4545C224.532 64.5818 222.696 63.0727 220.986 60.9273V22.3636H227.532V32.4545C229.932 31.8364 232.186 31.5273 234.296 31.5273C237.605 31.5273 240.223 32.1273 242.15 33.3273C244.077 34.5273 245.459 36.4182 246.296 39C247.132 41.5455 247.55 44.9455 247.55 49.2C247.55 53.4545 247.132 56.8545 246.296 59.4C245.459 61.9091 244.077 63.7636 242.15 64.9636C240.223 66.1636 237.605 66.7636 234.296 66.7636ZM234.296 60.7636C236.041 60.7636 237.386 60.4182 238.332 59.7273C239.314 59 240.005 57.8182 240.405 56.1818C240.805 54.5455 241.005 52.2182 241.005 49.2C241.005 46.1818 240.805 43.8364 240.405 42.1636C240.005 40.4909 239.314 39.3091 238.332 38.6182C237.386 37.8909 236.041 37.5273 234.296 37.5273C232.405 37.5273 230.986 37.7455 230.041 38.1818C229.132 38.5818 228.477 39.3091 228.077 40.3636C227.714 41.4182 227.532 43.0182 227.532 45.1636V58.8C228.405 59.5636 229.296 60.0909 230.205 60.3818C231.15 60.6364 232.514 60.7636 234.296 60.7636ZM269.013 66.7636C266.431 66.7636 264.431 66.3818 263.013 65.6182C261.595 64.8545 260.577 63.5818 259.959 61.8C259.34 60.0182 259.031 57.5091 259.031 54.2727V28.3636H252.159V22.3636H265.577V54.2727C265.577 56.7091 265.831 58.4 266.34 59.3455C266.849 60.2909 267.74 60.7636 269.013 60.7636C269.631 60.7636 270.304 60.5455 271.031 60.1091C271.795 59.6364 272.868 58.8182 274.249 57.6545L277.904 63.2182C276.268 64.5636 274.813 65.4909 273.54 66C272.268 66.5091 270.759 66.7636 269.013 66.7636ZM293.149 66.7636C289.731 66.7636 287.04 66.1636 285.076 64.9636C283.112 63.7636 281.694 61.8909 280.822 59.3455C279.949 56.8 279.512 53.4 279.512 49.1455C279.512 44.8909 279.949 41.4909 280.822 38.9455C281.694 36.4 283.112 34.5273 285.076 33.3273C287.04 32.1273 289.731 31.5273 293.149 31.5273C296.567 31.5273 299.258 32.1273 301.222 33.3273C303.185 34.5273 304.603 36.4 305.476 38.9455C306.349 41.4909 306.785 44.8909 306.785 49.1455C306.785 53.4 306.349 56.8 305.476 59.3455C304.603 61.8909 303.185 63.7636 301.222 64.9636C299.258 66.1636 296.567 66.7636 293.149 66.7636ZM293.149 60.7636C295.003 60.7636 296.44 60.4182 297.458 59.7273C298.476 59 299.185 57.8182 299.585 56.1818C300.022 54.5091 300.24 52.1636 300.24 49.1455C300.24 46.1273 300.022 43.8 299.585 42.1636C299.185 40.4909 298.476 39.3091 297.458 38.6182C296.44 37.8909 295.003 37.5273 293.149 37.5273C291.294 37.5273 289.858 37.8909 288.84 38.6182C287.822 39.3091 287.094 40.4909 286.658 42.1636C286.258 43.8 286.058 46.1273 286.058 49.1455C286.058 52.1636 286.258 54.5091 286.658 56.1818C287.094 57.8182 287.822 59 288.84 59.7273C289.858 60.4182 291.294 60.7636 293.149 60.7636ZM336.103 32.2909V62.4545C336.103 65.9455 335.666 68.7091 334.794 70.7455C333.957 72.8182 332.575 74.3273 330.648 75.2727C328.721 76.2182 326.103 76.6909 322.794 76.6909C320.212 76.6909 318.139 76.3273 316.575 75.6C315.048 74.9091 313.521 73.6364 311.994 71.7818L316.794 67.7455C317.521 68.6182 318.121 69.2364 318.594 69.6C319.066 70 319.612 70.2727 320.23 70.4182C320.848 70.6 321.703 70.6909 322.794 70.6909C324.612 70.6909 325.994 70.4727 326.939 70.0364C327.885 69.6 328.539 68.8545 328.903 67.8C329.303 66.7818 329.521 65.2545 329.557 63.2182C327.012 63.9091 324.63 64.2545 322.412 64.2545C318.994 64.2545 316.303 63.6364 314.339 62.4C312.375 61.1636 310.957 59.2182 310.085 56.5636C309.212 53.9091 308.775 50.3273 308.775 45.8182C308.775 42.4 309.212 39.6545 310.085 37.5818C310.994 35.5091 312.43 33.9818 314.394 33C316.394 32.0182 319.066 31.5273 322.412 31.5273C324.703 31.5273 327.085 31.8364 329.557 32.4545V32.2909H336.103ZM329.557 40.5818C329.557 39.6727 328.994 38.9455 327.866 38.4C326.739 37.8182 324.921 37.5273 322.412 37.5273C320.521 37.5273 319.066 37.7818 318.048 38.2909C317.03 38.8 316.321 39.6545 315.921 40.8545C315.521 42.0182 315.321 43.6727 315.321 45.8182C315.321 49.0909 315.521 51.6182 315.921 53.4C316.357 55.1455 317.085 56.4 318.103 57.1636C319.121 57.8909 320.557 58.2545 322.412 58.2545C324.994 58.2545 326.83 57.6364 327.921 56.4C329.012 55.1636 329.557 53.2727 329.557 50.7273V40.5818Z" fill="#1A202C"/>
</svg>
