<svg width="59" height="81" viewBox="0 0 59 81" fill="none" xmlns="http://www.w3.org/2000/svg">
<path d="M48.7 0.600003C48.4333 0.76667 48 1 47.4 1.3L47.35 1.35C47.2833 1.45 47.15 1.58333 46.95 1.75C46.75 1.88333 46.55 2.06667 46.35 2.3C46.0167 2.7 45.7667 3.01666 45.6 3.25C45.4667 3.48333 45.25 3.83333 44.95 4.3C44.6833 4.76667 44.55 5.11667 44.55 5.35L44.2 6.25C43.8 7.18333 43.5667 8.08333 43.5 8.94999C43.4333 9.78333 43.4167 10.25 43.45 10.35C43.45 10.55 43.5167 10.9 43.65 11.4C43.8167 11.8667 43.9333 12.25 44 12.55C44.1 12.7167 44.25 13.0667 44.45 13.6C44.65 14.0667 44.8667 14.6 45.1 15.2C45.3333 15.8 45.55 16.2833 45.75 16.65C46.0167 17.45 46.2 18.25 46.3 19.05C46.4333 19.85 46.5 20.6833 46.5 21.55C46.4667 22.75 46.2 24.0167 45.7 25.35C45.2333 26.6833 44.7333 28.0833 44.2 29.55C43.9 29.75 43.6 30.0167 43.3 30.35C42.9667 30.65 42.65 31.0167 42.35 31.45C41.9833 31.9167 41.7 32.3333 41.5 32.7C41.2667 33.0333 41.1167 33.3333 41.05 33.6C40.35 34.2 39.5333 34.8 38.6 35.4C37.6667 35.9667 36.6167 36.5167 35.45 37.05L35.7 39.1L34.25 37C34.05 37.1667 33.85 37.3167 33.65 37.45C33.45 37.6167 33.25 37.7333 33.05 37.8V36.9L33.3 34.3L33.6 10.15L29.55 9.44999L26.7 10.05L27.1 36.75C27.0667 36.7167 27.0333 36.6667 27 36.6C26.9333 36.5 26.8667 36.4167 26.8 36.35C26.6333 36.4167 26.3 36.45 25.8 36.45C25.2667 36.45 24.55 36.45 23.65 36.45L22.05 37.5L22.3 35.95C22.0667 36.1833 21.8333 36.2333 21.6 36.1C21.3333 36.0333 21.0667 35.9833 20.8 35.95C19.0333 35.95 17.2667 34.0333 15.5 30.2C14.7667 28.6333 14.1667 27.2167 13.7 25.95C13.2667 24.65 13 23.5167 12.9 22.55C13.2333 22.45 13.5 22.2667 13.7 22C13.9 21.7333 14 21.3833 14 20.95C13.8333 20.7833 13.7167 20.5333 13.65 20.2C13.6167 19.9333 13.6 19.6 13.6 19.2C13.6 18.7 13.6667 18.1833 13.8 17.65C13.9 17.0833 14.0667 16.5167 14.3 15.95C14.4667 15.6167 14.6333 15.2833 14.8 14.95H14.5C14.6667 14.45 14.7667 13.9833 14.8 13.55C14.8667 13.1167 14.95 12.7833 15.05 12.55C15.0833 12.25 15.15 11.8667 15.25 11.4C15.3833 10.9 15.5 10.55 15.6 10.35C15.6 10.3167 15.5667 10.25 15.5 10.15C15.4667 10.0833 15.3833 10.1 15.25 10.2C15.25 10.2333 15.2167 10.3 15.15 10.4C15.0833 10.4667 15.0167 10.55 14.95 10.65C15.05 10.45 15.1333 10.2833 15.2 10.15C15.2333 10.0167 15.2833 9.91667 15.35 9.85L14.9 6.25L14.5 5.35C14.5 5.11667 14.3333 4.76667 14 4.3C13.7333 3.83333 13.5167 3.48333 13.35 3.25C13.2833 3.01666 13.0333 2.7 12.6 2.3C12.4667 2.06667 12.2833 1.88333 12.05 1.75C11.8167 1.58333 11.6667 1.45 11.6 1.35V1.3C11.0333 1 10.6 0.76667 10.3 0.600003C10.0333 0.46667 9.86665 0.400006 9.79999 0.400006C9.39999 0.200006 9.03333 0.0833333 8.7 0.05C8.43333 -0.0166667 8.18333 -0.0166667 7.95 0.05C7.88333 0.116667 7.83332 0.2 7.79999 0.3C7.76665 0.4 7.75 0.500003 7.75 0.600003C7.71667 0.76667 7.66666 0.899997 7.59999 0.999997C7.56666 1.06666 7.49999 1.13333 7.39999 1.19999L7.2 0.900006C7.13333 0.800006 7.08332 0.683333 7.04999 0.55C7.01665 0.45 6.98333 0.366667 6.95 0.3C6.65 0.233333 6.25 0.250003 5.75 0.350003C5.28333 0.41667 4.71665 0.616661 4.04999 0.949994L4.2 1.6L4 1.75L3.04999 1.5C2.31665 1.96666 1.68333 2.55 1.14999 3.25C0.683327 3.95 0.3 4.73334 0 5.6V5.69999C0.0333333 5.73333 0.0666575 5.75 0.0999908 5.75C0.199991 5.81666 0.299994 5.85 0.399994 5.85C0.466661 5.85 0.533324 5.86667 0.599991 5.90001C0.633324 5.93334 0.699988 5.96666 0.799988 6C0.699988 6.06666 0.616654 6.15 0.549988 6.25C0.483321 6.28333 0.383333 6.33334 0.25 6.40001C0.183333 6.53334 0.149994 6.66667 0.149994 6.8C0.149994 6.93333 0.183333 7.1 0.25 7.3C0.183333 7.53333 0.183333 7.74999 0.25 7.94999C0.283333 8.14999 0.349997 8.36667 0.449997 8.6C0.549997 8.76667 0.749988 9.01667 1.04999 9.35C1.38332 9.68334 1.83333 10.15 2.39999 10.75C2.73333 10.8167 3.04999 10.8167 3.34999 10.75C3.38332 10.65 3.5 10.5 3.7 10.3C3.9 10.1333 4.18332 9.9 4.54999 9.6C4.78332 9.4 4.93333 9.18333 5 8.94999C5.06667 8.74999 5.08332 8.51666 5.04999 8.25C5.04999 8.21666 5.03333 8.16667 5 8.1C4.93333 8.06667 4.89999 8.03333 4.89999 8C4.73333 7.96666 4.6 7.9 4.5 7.8C4.4 7.73333 4.3 7.65 4.2 7.55V7.15001C4.13333 6.91667 4.03333 6.53333 3.89999 6C3.96666 5.63333 4.11666 5.31667 4.34999 5.05C4.51666 4.81667 4.74999 4.63333 5.04999 4.5C5.28332 4.33333 5.54999 4.2 5.84999 4.1C6.14999 4 6.43333 3.93334 6.7 3.90001C7.06666 3.86667 7.4 3.88333 7.7 3.94999C8 4.04999 8.26667 4.16667 8.5 4.3H8.59999C8.63332 4.26667 8.66666 4.25 8.7 4.25C8.73333 4.25 8.78332 4.21667 8.84999 4.15001L8.95 4.1V4H9C8.96667 4.13333 9.03333 4.26667 9.2 4.40001C9.36666 4.53334 9.55 4.68334 9.75 4.85L10.25 5.1C10.35 5.16667 10.3833 5.26667 10.35 5.40001C10.35 5.50001 10.3833 5.59999 10.45 5.69999C10.5167 5.79999 10.5833 5.93334 10.65 6.1C10.75 6.3 10.8 6.53333 10.8 6.8C10.7667 7.1 10.8 7.35 10.9 7.55C11 7.75 11.0833 7.9 11.15 8C11.25 8.06666 11.3333 8.15 11.4 8.25L11 8.40001C10.9667 8.60001 10.9833 8.83334 11.05 9.1C11.1167 9.36667 11.15 9.56666 11.15 9.69999C11.05 9.79999 10.9333 10.0833 10.8 10.55C10.6333 10.9833 10.45 11.4833 10.25 12.05C10.0167 12.6167 9.73333 13.1333 9.39999 13.6C9.36666 13.7 9.28333 13.8833 9.14999 14.15C9.04999 14.45 8.93332 14.7167 8.79999 14.95H8.7V15.15L8.64999 15.2C8.61718 15.2656 8.58384 15.299 8.54999 15.3H8.64999C8.41666 16.1667 8.26666 17.0833 8.2 18.05C8.1 19.0167 8.04999 20.0333 8.04999 21.1C8.04999 23.2667 8.26666 25.4833 8.7 27.75C9.16666 29.9833 9.83333 32.3 10.7 34.7L11.9 34.35L12 35.7L14.05 37.3C14.6833 38.2 15.4833 38.9333 16.45 39.5C17.3833 40.0667 18.4 40.6 19.5 41.1C20.6 41.5667 21.7 41.9167 22.8 42.15C23.9667 42.3833 25.15 42.4833 26.35 42.45C26.4167 42.6167 26.5167 42.7333 26.65 42.8C26.75 42.9 26.8833 42.9833 27.05 43.05L26.9 50.2L27.55 51.4C27.35 51.3667 27.1333 51.3333 26.9 51.3C26.6667 51.2667 26.4167 51.2167 26.15 51.15C25.45 51.05 24.8167 50.9833 24.25 50.95C23.7167 50.8833 23.2667 50.85 22.9 50.85C22.6 50.85 22.3167 50.85 22.05 50.85C21.7833 50.8833 21.5333 50.9333 21.3 51C21.2333 51.1667 21.1833 51.3333 21.15 51.5C21.15 51.6667 21.1333 51.85 21.1 52.05L19.4 51.4L18.8 50.85C18.4667 50.85 18.1333 50.8667 17.8 50.9C17.5 50.9333 17.2 50.9667 16.9 51C16.6667 51.0333 16.4 51.0333 16.1 51C15.8 50.9667 15.4167 50.9167 14.95 50.85L14.05 51.45C13.9167 51.6167 13.6833 51.55 13.35 51.25C13.2833 51.15 13.2167 51.0667 13.15 51C13.1167 50.9333 13.0833 50.8833 13.05 50.85C13.0833 51.0833 13.0667 51.25 13 51.35C12.9667 51.45 12.9333 51.6 12.9 51.8C13.1333 52 13.2833 52.2 13.35 52.4C13.45 52.6 13.5 52.7667 13.5 52.9C13.5 53 13.4167 53.1167 13.25 53.25C13.0833 53.3833 12.9833 53.4833 12.95 53.55L13.05 53.9L12.95 54.35L13.2 54.3L13.15 54.6C13.05 54.7667 12.9833 54.9167 12.95 55.05V57.5L13.75 57.4C14.1167 57.1333 14.5 56.9167 14.9 56.75C15.2667 56.5833 15.6333 56.5 16 56.5C16.6 56.5 17.0833 56.5333 17.45 56.6C17.8167 56.6333 18.05 56.6833 18.15 56.75L19.7 57.1C19.7333 56.9667 19.8333 56.8833 20 56.85C20.1667 56.8167 20.4 56.7833 20.7 56.75C21.1333 56.7833 21.5333 56.7833 21.9 56.75C22.2667 56.75 22.45 56.6 22.45 56.3C22.5167 56.1333 22.5833 56.0167 22.65 55.95C22.7167 55.9167 22.8167 55.9 22.95 55.9C23.0833 55.9 23.2667 55.9167 23.5 55.95C23.7333 55.9833 23.9833 56.0333 24.25 56.1L23.45 56.8L25.25 56.5C25.4833 56.5667 25.75 56.6167 26.05 56.65C26.35 56.7167 26.6833 56.75 27.05 56.75V60.3L28.15 61.1L27.05 62.45V64.85C26.5167 64.75 26.05 64.6667 25.65 64.6C25.2833 64.5333 24.95 64.5 24.65 64.5C24.45 64.5 24.25 64.5 24.05 64.5C23.85 64.5333 23.6667 64.6 23.5 64.7C23.5 64.8333 23.4833 64.9833 23.45 65.15C23.45 65.3167 23.45 65.4833 23.45 65.65L22.25 65.05L21.75 64.5C21.55 64.5 21.3333 64.5167 21.1 64.55C20.8667 64.5833 20.6333 64.6333 20.4 64.7C20.2333 64.7 20.0333 64.7 19.8 64.7C19.5667 64.6667 19.3 64.6 19 64.5L18.3 65.15C18.2333 65.2167 18.0667 65.1333 17.8 64.9C17.7667 64.8333 17.75 64.7667 17.75 64.7C17.6854 64.6354 17.6521 64.5688 17.65 64.5C17.6496 64.701 17.6329 64.851 17.6 64.95C17.5667 65.0833 17.5333 65.25 17.5 65.45C17.6667 65.65 17.8 65.8333 17.9 66C17.9667 66.2 18 66.3667 18 66.5C17.9667 66.5667 17.8833 66.65 17.75 66.75C17.65 66.8833 17.6 66.9833 17.6 67.05V67.9L17.75 67.8L17.7 68.05C17.6667 68.2167 17.6333 68.3667 17.6 68.5V70.85L18.15 70.75C18.3833 70.4833 18.6333 70.2833 18.9 70.15C19.2 70.0167 19.4833 69.95 19.75 69.95C20.2167 69.95 20.5667 69.9833 20.8 70.05C21.0667 70.05 21.25 70.0667 21.35 70.1L22.4 70.45C22.4667 70.2833 22.7167 70.2 23.15 70.2C23.4833 70.2 23.7667 70.2 24 70.2C24.2667 70.1333 24.4 69.9667 24.4 69.7C24.4333 69.5667 24.4833 69.4667 24.55 69.4C24.5833 69.3333 24.65 69.3 24.75 69.3C24.85 69.3 24.9667 69.3167 25.1 69.35C25.2667 69.4167 25.4333 69.4833 25.6 69.55L25.1 70.2L26.4 69.95C26.4667 69.95 26.5667 69.9833 26.7 70.05C26.8333 70.05 26.95 70.0667 27.05 70.1V73.9L25.5 79.5L28.1 80L30.8 80.05L34.65 79.35L33.65 76.65L33.35 74.85L32.65 74.05L33.3 72.75V70.1C33.4333 70.1 33.5833 70.1333 33.75 70.2C33.8833 70.2 33.9833 70.2167 34.05 70.25L35.1 69.4C35.2 69.4333 35.25 69.5167 35.25 69.65C35.25 69.7833 35.2333 69.9667 35.2 70.2C35.6 70.2 35.8333 70.0333 35.9 69.7L36.2 70.05L36.35 69.8L37.1 69.85C37.3333 69.9167 37.5167 69.9833 37.65 70.05C37.7833 70.0833 37.8667 70.1 37.9 70.1C37.9333 70.1 38.0167 70.0667 38.15 70C38.2833 69.9 38.4667 69.7833 38.7 69.65C38.9333 69.7167 39.1333 69.8 39.3 69.9C39.4333 70 39.5667 70.1 39.7 70.2C40.3667 70.2333 40.9667 70.2667 41.5 70.3C42.0667 70.3333 42.5333 70.3167 42.9 70.25L42.8 64.6L42.4 63.95C42.4 64.05 42.3333 64.1167 42.2 64.15C42.0667 64.1833 41.8667 64.2333 41.6 64.3C41.4333 64.3 41.2833 64.35 41.15 64.45C41.0167 64.4833 40.9333 64.5333 40.9 64.6C40.8333 64.5667 40.8 64.5333 40.8 64.5C40.7333 64.5 40.6833 64.5 40.65 64.5C40.5167 64.5 40.3333 64.55 40.1 64.65C39.8667 64.75 39.5833 64.8833 39.25 65.05C39.0833 65.0167 38.9333 64.9167 38.8 64.75C38.6667 64.5833 38.5833 64.5333 38.55 64.6L34.65 64.85C34.4833 65.05 34.3167 65.2 34.15 65.3C33.95 65.4 33.7333 65.45 33.5 65.45C33.4333 65.45 33.3667 65.45 33.3 65.45V56.75C33.4333 56.7167 33.5667 56.7 33.7 56.7C33.8 56.6667 33.9 56.65 34 56.65C34.5 56.65 34.9 56.6833 35.2 56.75C35.5333 56.7833 35.8 56.8 36 56.8L37.4 55.95C37.5 55.9833 37.55 56.0833 37.55 56.25C37.5833 56.3833 37.5667 56.5667 37.5 56.8C38.0667 56.8 38.4 56.65 38.5 56.35L39 56.65L39.2 56.35L40.25 56.5C40.5833 56.5667 40.8333 56.6167 41 56.65C41.2 56.6833 41.3 56.7167 41.3 56.75C41.3333 56.7167 41.45 56.6667 41.65 56.6C41.85 56.5 42.1333 56.3667 42.5 56.2C42.8 56.3333 43.0333 56.4333 43.2 56.5C43.4 56.6 43.55 56.6833 43.65 56.75C44.6833 56.85 45.5833 56.9167 46.35 56.95C47.0833 56.9833 47.7167 56.9833 48.25 56.95L48.1 50.95L47.5 50.3C47.4333 50.3667 47.3167 50.4167 47.15 50.45C46.9833 50.5167 46.7667 50.5667 46.5 50.6C46.2 50.6333 45.9667 50.6833 45.8 50.75C45.6333 50.8167 45.5167 50.8833 45.45 50.95C45.4167 50.8833 45.35 50.85 45.25 50.85C45.2167 50.85 45.1667 50.85 45.1 50.85C44.9 50.85 44.65 50.8833 44.35 50.95C44.0167 51.05 43.6333 51.2167 43.2 51.45C42.9 51.35 42.6667 51.2333 42.5 51.1C42.3333 50.9333 42.2333 50.8833 42.2 50.95L36.8 51.15C36.5667 51.3833 36.3167 51.5667 36.05 51.7C35.7833 51.8 35.5 51.85 35.2 51.85C34.7667 51.85 34.4333 51.8 34.2 51.7C33.9333 51.5667 33.75 51.3833 33.65 51.15C33.55 51.15 33.4333 51.15 33.3 51.15C33.2 51.15 33.0667 51.15 32.9 51.15L32.8 50.75L33.05 48.8V43.3C33.0833 43.3 33.1167 43.3 33.15 43.3H33.2C34.2 43.3 35.1833 43.15 36.15 42.85C37.0833 42.5167 37.9833 42 38.85 41.3C38.9833 41.4 39.1 41.4167 39.2 41.35C39.2667 41.3167 39.3167 41.2 39.35 41C39.3833 40.8667 39.4 40.7667 39.4 40.7C39.4 40.6 39.4167 40.5 39.45 40.4L39.5 40.45C39.5333 40.4833 39.5667 40.5333 39.6 40.6C40.5333 40.3333 41.35 40.1 42.05 39.9C42.75 39.6667 43.3167 39.4667 43.75 39.3C44.0833 38.9667 44.4167 38.55 44.75 38.05C45.05 37.6167 45.35 37.1 45.65 36.5C46.25 36.2333 46.8333 35.8 47.4 35.2C48 34.6 48.6 33.8667 49.2 33C49.8333 32.0667 50.3 31.2 50.6 30.4C50.8667 29.5667 51 28.8 51 28.1C51 27.5333 50.9333 27.05 50.8 26.65C50.3333 26.45 49.9833 26.25 49.75 26.05C49.45 25.85 49.2667 25.6 49.2 25.3L49.75 25.25C50.15 25.2167 50.8 25.1833 51.7 25.15C51.8333 23.8167 51.7833 22.3333 51.55 20.7C51.35 19.0333 50.9167 17.2667 50.25 15.4L50.45 15.3C50.35 15.1667 50.2 14.8833 50 14.45C49.8 14.0167 49.6667 13.7333 49.6 13.6C49.2667 13.1333 49 12.6167 48.8 12.05C48.5667 11.4833 48.3667 10.9833 48.2 10.55C48.0667 10.0833 47.95 9.79999 47.85 9.69999C47.85 9.56666 47.8833 9.36667 47.95 9.1C48.05 8.83334 48.0667 8.60001 48 8.40001L47.6 8.25C47.7 8.15 47.7833 8.06666 47.85 8C47.9167 7.9 48.0167 7.75 48.15 7.55C48.25 7.35 48.2833 7.1 48.25 6.8C48.1833 6.53333 48.2 6.3 48.3 6.1C48.4333 5.93334 48.5167 5.79999 48.55 5.69999C48.6167 5.59999 48.65 5.50001 48.65 5.40001C48.65 5.26667 48.6667 5.16667 48.7 5.1L49.25 4.85C49.45 4.68334 49.6333 4.53334 49.8 4.40001C50 4.26667 50.0667 4.13333 50 4L50.1 4.1C50.1 4.13334 50.1333 4.15001 50.2 4.15001C50.2333 4.21667 50.2667 4.25 50.3 4.25C50.3333 4.25 50.3833 4.26667 50.45 4.3C50.4833 4.3 50.5167 4.3 50.55 4.3C50.75 4.16667 51 4.04999 51.3 3.94999C51.5667 3.88333 51.8833 3.86667 52.25 3.90001C52.55 3.93334 52.85 4 53.15 4.1C53.4167 4.2 53.7 4.33333 54 4.5C54.2667 4.63333 54.5 4.81667 54.7 5.05C54.9 5.31667 55.0333 5.63333 55.1 6C54.9667 6.53333 54.8833 6.91667 54.85 7.15001L54.8 7.55C54.7333 7.65 54.65 7.73333 54.55 7.8C54.45 7.9 54.3167 7.96666 54.15 8C54.1167 8.03333 54.0667 8.06667 54 8.1C54 8.16667 54 8.21666 54 8.25C53.9 8.51666 53.9 8.74999 54 8.94999C54.0667 9.18333 54.2167 9.4 54.45 9.6C54.8167 9.9 55.1 10.1333 55.3 10.3C55.5333 10.5 55.65 10.65 55.65 10.75C55.9833 10.8167 56.3167 10.8167 56.65 10.75C57.1833 10.15 57.6167 9.68334 57.95 9.35C58.2833 9.01667 58.4833 8.76667 58.55 8.6C58.65 8.36667 58.7333 8.14999 58.8 7.94999C58.8333 7.74999 58.8333 7.53333 58.8 7.3C58.8333 7.1 58.85 6.93333 58.85 6.8C58.85 6.66667 58.8333 6.53334 58.8 6.40001C58.6667 6.33334 58.5667 6.28333 58.5 6.25C58.4 6.15 58.3167 6.06666 58.25 6C58.3167 5.96666 58.3833 5.93334 58.45 5.90001C58.4833 5.86667 58.55 5.85 58.65 5.85C58.7167 5.85 58.7833 5.81666 58.85 5.75C58.9167 5.75 58.95 5.73333 58.95 5.69999L59 5.6C58.7333 4.73334 58.35 3.95 57.85 3.25C57.3167 2.55 56.7 1.96666 56 1.5L55.05 1.75L54.8 1.6L54.95 0.949994C54.3167 0.616661 53.7667 0.41667 53.3 0.350003C52.8 0.250003 52.3833 0.233333 52.05 0.3C52.0167 0.366667 51.9833 0.45 51.95 0.55C51.9167 0.683333 51.8833 0.800006 51.85 0.900006L51.6 1.19999H51.5C51.4667 1.13333 51.4333 1.06666 51.4 0.999997C51.3667 0.899997 51.3333 0.76667 51.3 0.600003C51.2667 0.500003 51.2167 0.4 51.15 0.3C51.1167 0.2 51.0667 0.116667 51 0.05C50.8333 -0.0166667 50.5833 -0.0166667 50.25 0.05C49.9833 0.0833333 49.6333 0.200006 49.2 0.400006C49.1667 0.400006 49 0.46667 48.7 0.600003Z" fill="#1A202C"/>
</svg>
