<svg width="74" height="80" viewBox="0 0 74 80" fill="none" xmlns="http://www.w3.org/2000/svg">
<path d="M57.02 1.2389L56.42 1.43889C55.92 1.63889 55.5033 1.85555 55.17 2.08889C54.87 2.28889 54.7033 2.50556 54.67 2.7389C54.67 2.80556 54.7033 2.8889 54.77 2.9889C54.8033 3.12223 54.9033 3.25556 55.07 3.38889C55.2033 3.48889 55.27 3.60556 55.27 3.7389C55.3367 3.8389 55.37 3.92223 55.37 3.9889V4.08889L54.82 3.88889C54.6867 3.88889 54.57 3.88889 54.47 3.88889C54.3367 3.85556 54.2033 3.80556 54.07 3.7389C53.77 3.90556 53.4867 4.2389 53.22 4.7389C52.92 5.20556 52.67 5.82222 52.47 6.58889L53.22 6.93889V7.18889C52.92 7.38889 52.67 7.53889 52.47 7.63889L52.27 7.83889C52.17 8.83889 52.27 9.80556 52.57 10.7389C52.8367 11.6722 53.32 12.5722 54.02 13.4389H54.07C54.17 13.4722 54.2533 13.4889 54.32 13.4889C54.3867 13.4556 54.4533 13.4222 54.52 13.3889C54.6867 13.2222 54.8367 13.1389 54.97 13.1389C55.07 13.3722 55.07 13.6056 54.97 13.8389C55.07 13.9722 55.2033 14.0889 55.37 14.1889C55.5033 14.3222 55.6533 14.4556 55.82 14.5889C56.0533 14.7556 56.2867 14.9056 56.52 15.0389C56.7867 15.1722 57.07 15.2722 57.37 15.3389C57.6367 15.4056 58.07 15.4389 58.67 15.4389C59.27 15.4389 60.07 15.4056 61.07 15.3389C61.2367 15.2722 61.3867 15.1722 61.52 15.0389C61.6533 14.9056 61.77 14.7556 61.87 14.5889C61.77 14.4889 61.7033 14.2889 61.67 13.9889C61.6367 13.6889 61.62 13.3056 61.62 12.8389C61.5533 12.4722 61.4533 12.1722 61.32 11.9389C61.1533 11.6722 60.9033 11.4889 60.57 11.3889C60.5367 11.3222 60.5033 11.2889 60.47 11.2889C60.4033 11.2889 60.3033 11.2889 60.17 11.2889C60.0367 11.3556 59.9033 11.4056 59.77 11.4389C59.6367 11.4722 59.4867 11.4722 59.32 11.4389C59.2867 11.4389 59.1367 11.3722 58.87 11.2389C58.5367 11.0722 58.0533 10.8389 57.42 10.5389C57.1867 10.2056 57.0033 9.87222 56.87 9.53888C56.7367 9.20555 56.6867 8.85556 56.72 8.4889C56.82 8.15556 56.9367 7.83888 57.07 7.53888C57.2033 7.23888 57.3867 6.93889 57.62 6.63889C57.8533 6.33889 58.12 6.08889 58.42 5.88889C58.6867 5.68889 58.9867 5.55556 59.32 5.4889C59.3533 5.4889 59.3867 5.45556 59.42 5.38889C59.42 5.35556 59.4367 5.32222 59.47 5.28888C59.47 5.25555 59.47 5.20556 59.47 5.13889C59.47 5.10556 59.47 5.05556 59.47 4.9889C59.4367 4.95556 59.42 4.92222 59.42 4.88889C59.52 5.02222 59.7033 5.05556 59.97 4.9889C60.27 4.92223 60.5867 4.92223 60.92 4.9889L61.52 4.7389C61.6867 4.67223 61.82 4.68888 61.92 4.78888C62.02 4.85555 62.1367 4.92223 62.27 4.9889C62.37 4.9889 62.3367 5.00555 62.17 5.03888C62.0367 5.07222 61.9033 5.12223 61.77 5.18889C61.67 5.25556 61.7033 5.35556 61.87 5.4889C62.1367 5.75556 62.3867 5.92223 62.62 5.9889C62.92 6.02223 63.17 6.05555 63.37 6.08889C63.4367 6.08889 63.4867 5.95556 63.52 5.68889C63.72 5.88889 63.97 6.05556 64.27 6.18889C64.6033 6.32223 64.8367 6.42223 64.97 6.4889C65.07 6.72223 65.3867 7.17222 65.92 7.83889C66.4533 8.43889 66.8533 9.18889 67.12 10.0889C67.32 10.3556 67.47 10.7889 67.57 11.3889C67.67 11.9222 67.7367 12.4556 67.77 12.9889C67.77 13.4889 67.7533 13.7889 67.72 13.8889C67.6533 14.4889 67.3033 15.1556 66.67 15.8889C66.07 16.6222 65.3533 17.4222 64.52 18.2889C63.6867 19.1556 62.87 20.0722 62.07 21.0389H61.32C60.9867 21.6722 60.5867 22.3222 60.12 22.9889C59.6867 23.5889 59.2533 24.2222 58.82 24.8889C58.3867 25.0556 57.92 25.2556 57.42 25.4889C56.9533 25.7889 56.4867 26.1222 56.02 26.4889C55.52 26.8889 55.1033 27.2222 54.77 27.4889C54.47 27.8222 54.27 28.1056 54.17 28.3389C53.07 28.8056 51.8033 29.2889 50.37 29.7889C48.97 30.2556 47.3867 30.7389 45.62 31.2389L46.12 32.8889L43.87 31.1389C43.1367 31.4722 42.3367 31.7389 41.47 31.9389C40.57 32.0722 39.6033 32.1389 38.57 32.1389C37.27 32.1389 36.12 32.0056 35.12 31.7389C34.1533 31.5056 33.3367 31.1056 32.67 30.5389C32.4033 30.6056 31.8867 30.6389 31.12 30.6389C30.32 30.6389 29.2367 30.6389 27.87 30.6389L25.52 31.5389L25.87 30.2389C25.5033 30.4056 25.1367 30.4556 24.77 30.3889C24.4367 30.3222 24.0533 30.2722 23.62 30.2389C22.32 30.2389 20.9867 29.8389 19.62 29.0389C18.2867 28.2389 16.9533 27.0389 15.62 25.4389C14.8867 24.6056 14.2533 23.8222 13.72 23.0889C13.22 22.3556 12.7867 21.6722 12.42 21.0389H11.02C10.82 20.5389 10.62 20.0722 10.42 19.6389C10.22 19.2722 9.90333 18.7222 9.47 17.9889C9.37 17.8889 9.03666 17.5556 8.47 16.9889C7.87 16.4556 7.30333 15.7222 6.77 14.7889C6.23667 13.8222 5.98667 12.6889 6.02 11.3889C6.22 10.7556 6.51999 10.0556 6.91999 9.28888C7.28666 8.55555 7.63666 7.88888 7.97 7.28888C8.33666 6.68888 8.53667 6.28889 8.57 6.08889C8.73667 6.02222 8.98667 5.90556 9.32 5.7389C9.62 5.57223 9.85333 5.38889 10.02 5.18889L9.77 4.78888C9.93667 4.78888 10.1033 4.78888 10.27 4.78888C10.47 4.78888 10.6867 4.90556 10.92 5.13889C11.1867 5.30556 11.4367 5.30556 11.67 5.13889C11.8367 4.93889 11.8533 4.72223 11.72 4.4889C11.62 4.2889 11.5033 4.10556 11.37 3.93889C11.2367 3.80556 11.2033 3.72223 11.27 3.68889C11.4367 3.68889 11.57 3.75556 11.67 3.88889C11.77 4.05556 11.8867 4.17223 12.02 4.2389L12.72 4.4889C13.0533 4.45556 13.3367 4.48889 13.57 4.58889C13.8367 4.62222 14.0367 4.57223 14.17 4.43889V4.4889C14.17 4.5889 14.17 4.65556 14.17 4.68889V4.78888C14.17 4.82222 14.17 4.87223 14.17 4.93889C14.2033 4.97223 14.22 5.00555 14.22 5.03888C14.5867 5.10555 14.9033 5.25556 15.17 5.4889C15.5033 5.65556 15.7867 5.90556 16.02 6.2389C16.22 6.50556 16.3867 6.80556 16.52 7.13889C16.6533 7.40556 16.7533 7.6889 16.82 7.9889C16.8533 8.35556 16.82 8.72222 16.72 9.08889C16.62 9.45555 16.4367 9.78889 16.17 10.0889C14.97 10.7222 14.32 11.0389 14.22 11.0389C14.0867 11.0722 13.97 11.0722 13.87 11.0389C13.7033 11.0056 13.5367 10.9222 13.37 10.7889C13.27 10.8222 13.2033 10.8389 13.17 10.8389L13.02 10.8889C12.6867 11.0556 12.4367 11.2556 12.27 11.4889C12.1033 11.7222 12.02 11.9889 12.02 12.2889C11.9533 12.8222 11.92 13.2389 11.92 13.5389C11.8533 13.8389 11.8033 14.0389 11.77 14.1389C11.87 14.3389 11.97 14.5056 12.07 14.6389C12.2033 14.7389 12.3367 14.8222 12.47 14.8889C13.47 14.9556 14.2867 14.9889 14.92 14.9889C15.52 14.9889 15.9367 14.9556 16.17 14.8889C16.5033 14.8222 16.7867 14.7389 17.02 14.6389C17.2867 14.4722 17.5033 14.2889 17.67 14.0889C17.87 13.9889 18.0533 13.8889 18.22 13.7889C18.3867 13.6889 18.5033 13.5722 18.57 13.4389C18.57 13.2056 18.57 12.9722 18.57 12.7389C18.6367 12.7389 18.72 12.7556 18.82 12.7889C18.8867 12.8222 18.9533 12.8556 19.02 12.8889C19.12 12.9556 19.2033 12.9889 19.27 12.9889C19.37 13.0222 19.4367 13.0389 19.47 13.0389H19.62C20.2533 12.1389 20.72 11.2222 21.02 10.2889C21.2867 9.35555 21.4033 8.40556 21.37 7.43889L21.12 7.28888C20.92 7.18888 20.6533 7.02222 20.32 6.78888V6.58889L21.17 6.08889C20.9367 5.35555 20.6867 4.75555 20.42 4.28888C20.12 3.82222 19.8033 3.48888 19.47 3.28888C19.3367 3.35555 19.2033 3.40556 19.07 3.43889C18.97 3.47223 18.8533 3.50555 18.72 3.53888L18.27 3.58889V3.53888C18.2033 3.43888 18.22 3.3389 18.32 3.2389C18.3533 3.17223 18.4367 3.05556 18.57 2.88889C18.7033 2.75556 18.7867 2.65555 18.82 2.58889C18.8533 2.48889 18.87 2.37223 18.87 2.2389C18.87 2.0389 18.72 1.82222 18.42 1.58889C18.12 1.35555 17.72 1.15556 17.22 0.988897C17.1533 0.988897 16.92 0.922218 16.52 0.788885C16.1533 0.655551 15.62 0.47223 14.92 0.238897H14.82C14.5867 0.27223 14.32 0.25556 14.02 0.188894C13.6867 0.15556 13.3533 0.138891 13.02 0.138891C12.6533 0.138891 12.3367 0.15556 12.07 0.188894C11.8367 0.222227 11.62 0.238897 11.42 0.238897C11.1533 0.305563 10.9533 0.272224 10.82 0.138891C10.6867 -0.027776 10.52 -0.0444457 10.32 0.0888876L9.11999 0.488897L5.11999 2.83889C5.05332 3.07222 4.90333 3.37223 4.66999 3.7389C4.70333 3.60556 4.73667 3.48889 4.77 3.38889L4.82 3.18889C4.88667 2.98889 4.85333 2.88889 4.72 2.88889C4.58666 2.92222 4.48666 2.95556 4.41999 2.9889C4.28666 3.22223 4.01999 3.57222 3.61999 4.03888C3.25332 4.50555 2.93666 4.87222 2.66999 5.13889C2.50333 5.47222 2.20333 6.03889 1.77 6.83889C1.37 7.63889 1.00333 8.48889 0.669994 9.38889C0.303327 10.2889 0.13666 11.0556 0.169994 11.6889C0.23666 12.0556 0.353333 12.2556 0.52 12.2889C0.686666 12.2889 0.803324 12.2889 0.869991 12.2889C0.836657 12.3556 0.70333 12.4722 0.469997 12.6389C0.20333 12.7722 0.053333 12.8556 0.0199997 12.8889C-0.046667 13.8556 0.0533361 15.0222 0.320003 16.3889C0.620003 17.7556 1.40333 19.2722 2.66999 20.9389C2.73666 21.1389 2.85333 21.4056 3.02 21.7389C3.18667 22.0056 3.38666 22.3889 3.61999 22.8889C4.35332 23.4556 5.17 24.4056 6.07 25.7389C7.00334 27.0722 7.92 28.5389 8.82 30.1389C9.68667 31.7722 10.42 33.3056 11.02 34.7389C11.6533 36.1722 12.0033 37.2889 12.07 38.0889C12.3033 38.4222 12.52 38.7556 12.72 39.0889C12.8867 39.4222 13.0367 39.7222 13.17 39.9889C13.4367 40.2556 13.72 40.6556 14.02 41.1889C14.3867 41.6889 14.7867 42.3556 15.22 43.1889C15.6533 44.0889 16.02 44.7389 16.32 45.1389C16.62 45.5056 16.8367 45.7389 16.97 45.8389L17.27 46.0389L17.67 48.7389C17.9367 48.9722 18.1867 49.2556 18.42 49.5889C18.6867 49.8889 18.9533 50.2556 19.22 50.6889C20.62 52.9889 21.77 54.8722 22.67 56.3389C23.57 57.8056 24.1867 58.8556 24.52 59.4889L24.57 59.6889V59.8389L24.72 60.0889C24.82 60.2556 25.0367 60.5722 25.37 61.0389C25.67 61.4389 25.8867 61.7889 26.02 62.0889C26.22 62.3556 26.3533 62.6056 26.42 62.8389C26.5867 63.0056 26.8033 63.2722 27.07 63.6389C27.3033 64.0056 27.6533 64.5722 28.12 65.3389C28.2533 65.7056 28.4533 66.0222 28.72 66.2889C28.9867 66.5889 29.2867 66.7556 29.62 66.7889L30.47 66.8889V67.7389C30.47 67.9056 30.47 68.0722 30.47 68.2389C30.47 68.3722 30.47 68.5056 30.47 68.6389C28.5367 68.8056 26.7533 68.8056 25.12 68.6389C23.4533 68.4389 22.1033 68.1889 21.07 67.8889C20.0033 67.6222 19.3867 67.4389 19.22 67.3389C18.9867 67.2722 18.6533 67.1389 18.22 66.9389C17.82 66.7056 17.4867 66.4056 17.22 66.0389C16.4867 65.3389 15.9033 64.5889 15.47 63.7889C15.0033 62.9555 14.67 62.4389 14.47 62.2389L14.27 62.1889C14.1033 62.1556 13.6533 62.1389 12.92 62.1389C12.1867 62.1389 10.9533 62.1722 9.22 62.2389C9.35333 62.3056 9.47 62.4055 9.57 62.5389C9.63667 62.6389 9.72 62.7722 9.82 62.9389C9.75334 62.8722 9.67 62.8056 9.57 62.7389L9.47 62.6389C9.27 62.5056 9.13667 62.4722 9.07 62.5389C9.03667 62.6055 9.00333 62.6556 8.97 62.6889C9.13666 62.8889 9.32 63.2389 9.52 63.7389C9.75333 64.1722 9.92 64.5556 10.02 64.8889C10.22 65.1556 10.52 65.5889 10.92 66.1889C11.32 66.7556 11.7867 67.3556 12.32 67.9889C12.8533 68.5889 13.4367 69.0556 14.07 69.3889C14.4033 69.5556 14.6367 69.5722 14.77 69.4389C14.9033 69.3722 15.02 69.3056 15.12 69.2389C15.12 69.3389 15.12 69.5056 15.12 69.7389C15.0867 69.9389 15.0867 70.0556 15.12 70.0889C16.0867 70.7222 17.4533 71.3889 19.22 72.0889C20.9533 72.7556 23.3033 73.1556 26.27 73.2889C27.4033 73.3222 28.4533 73.3056 29.42 73.2389C30.3533 73.2056 31.2367 73.1389 32.07 73.0389C32.7367 74.2389 33.1533 75.2056 33.32 75.9389C33.5533 76.1389 33.82 76.4222 34.12 76.7889C34.42 77.1556 34.7533 77.6222 35.12 78.1889C35.4867 78.6889 35.82 79.0889 36.12 79.3889C36.3867 79.6889 36.62 79.8889 36.82 79.9889C37.3533 79.7556 37.7533 79.4556 38.02 79.0889C38.2867 78.7222 38.42 78.2889 38.42 77.7889C38.3867 77.1222 38.5367 76.3889 38.87 75.5889C39.2033 74.7889 39.7367 73.8889 40.47 72.8889C40.7033 72.4889 40.92 72.2889 41.12 72.2889C41.2867 72.2556 41.42 72.2556 41.52 72.2889C41.6533 72.3889 41.77 72.3722 41.87 72.2389C44.1033 71.8056 46.2533 71.6389 48.32 71.7389C50.3533 71.9056 52.0867 72.1556 53.52 72.4889C54.92 72.8222 55.7367 73.0389 55.97 73.1389C56.2367 73.2722 56.67 73.6222 57.27 74.1889C57.87 74.7889 58.3033 75.2889 58.57 75.6889C60.7367 75.8222 62.2867 75.8889 63.22 75.8889C64.1533 75.8889 64.72 75.8389 64.92 75.7389C65.12 75.6722 65.1867 75.6389 65.12 75.6389C64.92 75.3389 64.62 74.9056 64.22 74.3389C63.82 73.7389 63.3533 73.1222 62.82 72.4889C62.2867 71.8889 61.7033 71.4389 61.07 71.1389C60.7033 70.9722 60.47 70.9389 60.37 71.0389C60.2367 71.1389 60.12 71.2056 60.02 71.2389C60.02 71.1389 60.0367 70.9889 60.07 70.7889C60.07 70.5556 60.0533 70.4222 60.02 70.3889C59.02 69.7556 57.5033 69.0889 55.47 68.3889C53.47 67.7222 50.9867 67.3222 48.02 67.1889C47.42 67.1889 46.82 67.1889 46.22 67.1889C45.6533 67.2222 45.1033 67.2556 44.57 67.2889C45.0367 66.3556 45.4033 65.4389 45.67 64.5389C45.97 63.6056 46.2033 63.0222 46.37 62.7889C46.4367 62.5889 46.5367 62.3722 46.67 62.1389C46.8033 61.8722 46.9867 61.6222 47.22 61.3889C47.3533 61.2222 47.4533 61.0889 47.52 60.9889C47.5867 60.8889 47.6533 60.7889 47.72 60.6889V60.4889L48.02 60.1389C48.0533 60.1389 48.17 59.9722 48.37 59.6389C48.57 59.3389 48.8867 58.7889 49.32 57.9889C49.6533 57.3222 49.97 56.7722 50.27 56.3389C50.6033 55.8722 50.92 55.5222 51.22 55.2889C51.22 55.2555 51.2367 55.1889 51.27 55.0889C51.3367 55.0222 51.4033 54.9056 51.47 54.7389C51.5367 54.4056 51.6533 54.1222 51.82 53.8889C51.9867 53.6556 52.1533 53.4555 52.32 53.2889C52.52 52.7555 52.9033 52.0556 53.47 51.1889C53.97 50.2556 54.6867 49.1389 55.62 47.8389C56.3533 46.7722 56.9033 45.7722 57.27 44.8389C57.6033 43.9056 57.77 43.0389 57.77 42.2389C57.7367 41.8722 57.7033 41.5389 57.67 41.2389C57.6367 40.9056 57.5867 40.6222 57.52 40.3889L57.42 40.0889L57.52 39.8389C57.6533 39.5722 57.8367 39.3556 58.07 39.1889C58.3033 39.0222 58.57 38.9389 58.87 38.9389H59.22L59.47 39.0889C59.5033 39.0889 59.5367 39.1222 59.57 39.1889C59.6367 39.2222 59.7367 39.2389 59.87 39.2389C60.07 39.0722 60.27 38.8389 60.47 38.5389C60.67 38.3055 60.87 38.0389 61.07 37.7389C61.77 36.4056 62.7033 34.7389 63.87 32.7389C65.07 30.7722 66.2367 28.8389 67.37 26.9389C67.9033 26.4056 68.32 25.8889 68.62 25.3889C68.92 24.8889 69.12 24.4222 69.22 23.9889C69.4533 23.5889 69.67 23.2389 69.87 22.9389C70.07 22.6389 70.22 22.4056 70.32 22.2389L70.47 21.8389C71.5033 20.6722 72.2367 19.5722 72.67 18.5389C73.1033 17.4722 73.37 16.5056 73.47 15.6389C73.5367 14.7722 73.5533 14.0222 73.52 13.3889C73.52 13.3222 73.4033 13.2056 73.17 13.0389C72.9033 12.9056 72.7367 12.8056 72.67 12.7389C72.7367 12.7056 72.8867 12.6889 73.12 12.6889C73.2867 12.6556 73.4033 12.4722 73.47 12.1389C73.5033 11.5389 73.3367 10.8556 72.97 10.0889C72.6033 9.28889 72.22 8.57223 71.82 7.93889C71.3867 7.27223 71.0867 6.7889 70.92 6.4889C70.7533 6.32223 70.5367 6.00555 70.27 5.53888C70.0367 5.10555 69.8033 4.67223 69.57 4.2389C69.37 3.80556 69.22 3.52222 69.12 3.38889C69.0533 3.38889 68.97 3.38889 68.87 3.38889C68.7367 3.35556 68.6867 3.42222 68.72 3.58889C68.72 3.62222 68.7367 3.68888 68.77 3.78888C68.8367 3.92222 68.87 4.05556 68.87 4.18889C68.6367 3.75556 68.4867 3.42223 68.42 3.18889L64.42 0.888891L63.22 1.43889C63.0533 1.23889 62.9033 1.0889 62.77 0.988897C62.6367 0.888897 62.4033 0.788894 62.07 0.688894C61.9367 0.688894 61.7533 0.672224 61.52 0.638891C61.2533 0.638891 60.9367 0.605551 60.57 0.538885C60.2033 0.572218 59.87 0.622227 59.57 0.688894C59.2367 0.75556 58.9867 0.75556 58.82 0.688894L58.67 0.638891C57.9367 0.905557 57.3867 1.10556 57.02 1.2389ZM55.47 34.5889L55.27 34.9889C55.0367 35.3556 54.87 35.6556 54.77 35.8889C54.6367 36.1222 54.5533 36.3222 54.52 36.4889C54.4533 36.6222 54.2867 36.8889 54.02 37.2889C53.7533 37.7555 53.2867 38.3889 52.62 39.1889C52.0867 39.8222 51.77 40.2722 51.67 40.5389L51.52 40.9389C51.52 41.1056 51.52 41.2556 51.52 41.3889C51.5533 41.5222 51.62 41.6389 51.72 41.7389L51.87 42.1389L51.72 42.4889C51.6533 42.7222 51.4367 42.9722 51.07 43.2389C50.7367 43.5389 50.12 43.9389 49.22 44.4389C48.52 44.8722 48.07 45.2056 47.87 45.4389C47.7033 45.6389 47.6533 45.7389 47.72 45.7389L47.62 45.8889V45.9889C46.62 48.3556 45.5367 50.5889 44.37 52.6889C43.17 54.8222 41.92 56.8056 40.62 58.6389C39.32 60.4056 38.1033 62.2389 36.97 64.1389L36.57 64.8889L35.87 64.6389C35.6367 64.5722 35.3867 64.3889 35.12 64.0889C34.82 63.7889 34.42 63.2556 33.92 62.4889C33.52 61.8556 33.2533 61.4389 33.12 61.2389C32.9867 61.0389 32.92 60.9556 32.92 60.9889L32.77 60.7889L32.62 60.6389C32.1867 59.8389 31.82 59.1389 31.52 58.5389C31.1867 57.9722 30.9033 57.5389 30.67 57.2389L30.57 57.1389L30.47 56.9389C29.97 55.7389 29.6033 54.9722 29.37 54.6389C29.1033 54.2722 28.9367 54.1222 28.87 54.1889L28.57 54.0389L28.42 53.6889C27.82 52.3556 27.2533 51.1889 26.72 50.1889C26.1533 49.2222 25.6533 48.4222 25.22 47.7889C24.5867 47.6555 24.02 47.4556 23.52 47.1889C22.9867 46.9556 22.7033 46.5556 22.67 45.9889V45.7389L22.82 45.5889C22.92 45.4222 22.9867 45.2389 23.02 45.0389C23.0533 44.8389 23.1033 44.6222 23.17 44.3889C23.17 44.1889 23.1367 43.9722 23.07 43.7389C23.0033 43.5056 22.9033 43.2722 22.77 43.0389C22.3367 42.6389 21.8867 42.0722 21.42 41.3389C20.92 40.6056 20.4033 39.7056 19.87 38.6389C19.57 38.0056 19.17 37.2056 18.67 36.2389C18.17 35.2722 17.6367 34.2556 17.07 33.1889C17.7367 33.4222 18.4533 33.6556 19.22 33.8889C20.02 34.0889 20.82 34.2889 21.62 34.4889C23.2533 34.8889 24.92 35.1889 26.62 35.3889C28.32 35.5889 30.07 35.6889 31.87 35.6889C32.2367 35.9222 32.6867 36.1056 33.22 36.2389C33.7533 36.3389 34.37 36.3889 35.07 36.3889C35.57 36.3889 36.1367 36.3555 36.77 36.2889C37.4033 36.2555 38.1533 36.1722 39.02 36.0389C39.52 36.1722 40.0367 36.2555 40.57 36.2889C41.1033 36.3555 41.67 36.3889 42.27 36.3889C43.77 36.3889 45.2367 36.2556 46.67 35.9889C48.1033 35.6889 49.4867 35.2722 50.82 34.7389C51.02 34.7722 51.17 34.7556 51.27 34.6889C51.4033 34.6556 51.4867 34.5556 51.52 34.3889C51.5533 34.2889 51.57 34.2056 51.57 34.1389C51.6033 34.0722 51.62 33.9889 51.62 33.8889C51.6533 33.8889 51.6867 33.9056 51.72 33.9389C51.7867 34.0056 51.8533 34.0556 51.92 34.0889C52.5533 33.9889 53.1533 33.9056 53.72 33.8389C54.2867 33.7389 54.8033 33.6389 55.27 33.5389C55.27 33.6722 55.27 33.7889 55.27 33.8889C55.27 34.0222 55.3033 34.1389 55.37 34.2389L55.47 34.5889Z" fill="#1A202C"/>
</svg>
