<svg width="61" height="81" viewBox="0 0 61 81" fill="none" xmlns="http://www.w3.org/2000/svg">
<path d="M49.4 0.91666C49.2667 0.883326 49.1667 0.850002 49.1 0.816669C48.9333 0.850002 48.7833 0.899996 48.65 0.966663C48.45 0.999996 48.2667 1.08333 48.1 1.21666C47.8333 1.28333 47.5667 1.38333 47.3 1.51667C47.0667 1.65 46.85 1.81667 46.65 2.01667C46.45 2.15 46.1667 2.38333 45.8 2.71666C45.4333 3.11666 44.9667 3.63333 44.4 4.26667C44.4 4.4 44.4 4.51667 44.4 4.61667C44.4 4.75001 44.45 4.84999 44.55 4.91666C44.6833 4.91666 44.8667 4.93333 45.1 4.96666C45.3333 5.03333 45.6333 5.11666 46 5.21666C46.2333 5.31666 46.4833 5.31666 46.75 5.21666C47.05 5.18333 47.35 5.08333 47.65 4.91666C47.65 4.88333 47.6833 4.85 47.75 4.81667C47.8167 4.78334 47.8667 4.75 47.9 4.71666C47.9 4.58333 47.9333 4.46667 48 4.36667C48.1 4.26667 48.2 4.18334 48.3 4.11667C48.2333 4.08334 48.1333 3.98334 48 3.81667C47.8667 3.65 48.05 3.41667 48.55 3.11667C48.95 3.01667 49.1833 2.96666 49.25 2.96666C49.3167 2.96666 49.4167 3.01667 49.55 3.11667C49.7833 3.25001 49.9667 3.4 50.1 3.56667C50.2667 3.73334 50.3833 3.91667 50.45 4.11667C50.55 4.35001 50.5667 4.58334 50.5 4.81667C50.4667 5.01667 50.3833 5.23333 50.25 5.46666V5.51667L50.3 5.56667C50.3333 5.6 50.3833 5.61667 50.45 5.61667C50.4833 5.61667 50.55 5.61667 50.65 5.61667C50.4833 5.68334 50.35 5.81667 50.25 6.01667C50.1167 6.21667 49.95 6.41667 49.75 6.61667L49.5 7.06667C49.4667 7.16667 49.3833 7.21666 49.25 7.21666C49.1167 7.28333 48.9833 7.34999 48.85 7.41666C48.75 7.51666 48.6 7.65 48.4 7.81667C48.2333 7.95 47.9833 8.08333 47.65 8.21666C47.3167 8.35 47.05 8.48334 46.85 8.61667C46.6167 8.75 46.4333 8.88333 46.3 9.01667C46.2 9.11667 46.1167 9.2 46.05 9.26667L45.9 9.11667C45.6333 9.15 45.3667 9.23334 45.1 9.36667C44.8333 9.56667 44.6167 9.68333 44.45 9.71666C44.2167 9.71666 43.65 9.78333 42.75 9.91666C41.8833 10.0833 41.0167 10.1667 40.15 10.1667C39.1833 10.2 38.5667 10.2167 38.3 10.2167L33.3 10.0667C30.5667 10.6667 28.3833 11.2 26.75 11.6667C25.15 12.1333 24.1833 12.4333 23.85 12.5667C22.9833 12.8333 21.8833 13.1667 20.55 13.5667C19.2167 13.9333 18.05 14.5333 17.05 15.3667C16.05 16.2 15.25 16.9333 14.65 17.5667C14.0167 18.1667 13.5167 18.7 13.15 19.1667C12.7833 19.6 12.4833 20.2167 12.25 21.0167C12.0167 21.8167 11.8333 22.5833 11.7 23.3167C11.5667 24.0833 11.5 24.6167 11.5 24.9167C11.5 25.25 11.6833 25.8333 12.05 26.6667C12.4167 27.5 12.9 28.2833 13.5 29.0167C14.1 29.7833 14.8167 30.2 15.65 30.2667C15.4833 30.5333 15.7833 30.7167 16.55 30.8167C17.3167 30.9167 18.2333 31.0667 19.3 31.2667C18.6333 31.7333 18.0333 32.2167 17.5 32.7167C17 33.25 16.5833 33.65 16.25 33.9167C15.8833 34.35 15.4167 34.9 14.85 35.5667C14.25 36.2 13.75 36.9 13.35 37.6667C12.9167 38.0333 12.5333 38.5667 12.2 39.2667C11.8667 39.9667 11.4 40.9 10.8 42.0667C10.1667 43.2333 9.76666 44.3 9.59999 45.2667C9.46666 46.2333 9.33333 47.1333 9.2 47.9667C9.16666 48.1667 9.06666 48.5 8.89999 48.9667C8.73333 49.4333 8.58333 49.8833 8.45 50.3167C8.28333 50.75 8.21667 51.0333 8.25 51.1667C8.35 51.1 8.48333 50.85 8.64999 50.4167C8.84999 50.0167 9.09999 49.7833 9.39999 49.7167C9.09999 49.95 8.84999 50.2667 8.64999 50.6667C8.48333 51.1 8.31666 51.35 8.14999 51.4167C7.61666 53.35 7.41667 55.2833 7.55 57.2167C7.68334 59.15 7.91667 60.7833 8.25 62.1167C8.58333 63.45 8.76667 64.1667 8.8 64.2667C8.93334 64.7333 8.96666 65.2833 8.89999 65.9167C8.83333 66.5167 8.73332 67.0667 8.59999 67.5667C8.49999 68.0667 8.46667 68.3667 8.5 68.4667C8.43333 68.6667 8.35 68.9167 8.25 69.2167C8.15 69.5167 8.09999 69.7833 8.09999 70.0167L8.39999 70.0667C8.33333 70.1 8.3 70.15 8.3 70.2167C8.23334 70.25 8.18333 70.3167 8.14999 70.4167C8.04999 70.55 7.94999 70.7333 7.84999 70.9667C7.71666 71.1667 7.63332 71.4167 7.59999 71.7167C7.56666 72.0833 7.48332 72.3667 7.34999 72.5667C7.24999 72.8 7.16666 73 7.09999 73.1667C7.06666 73.3 7.03333 73.4167 7 73.5167C6.96667 73.6167 6.9 73.7167 6.8 73.8167L6.39999 74.1667V75.2167C6.36666 75.1833 6.34999 75.15 6.34999 75.1167C6.31666 75.0833 6.28333 75.0667 6.25 75.0667C6.21667 75.0333 6.13333 74.8833 6 74.6167C5.86667 74.3167 5.74999 74.15 5.64999 74.1167C5.51666 74.3167 5.45 74.5167 5.45 74.7167C5.45 74.9167 5.33332 75.0333 5.09999 75.0667C4.86666 75.1 4.68334 75.15 4.55 75.2167C4.45 75.2833 4.31666 75.2667 4.14999 75.1667C3.94999 75.0667 3.71666 74.9167 3.45 74.7167C3.21666 74.55 3.08334 74.2667 3.05 73.8667C3.21667 73.3333 3.36667 73.1333 3.5 73.2667L3.59999 73.4667C3.66666 73.3667 3.74999 73.2667 3.84999 73.1667C3.94999 73.1 4.04999 73.0167 4.14999 72.9167C4.18333 72.85 4.21667 72.7833 4.25 72.7167C4.31667 72.6833 4.34999 72.65 4.34999 72.6167C4.44999 72.3167 4.5 72.0333 4.5 71.7667C4.5 71.5333 4.41667 71.3167 4.25 71.1167C4.05 70.8833 3.9 70.6667 3.8 70.4667C3.7 70.3 3.63332 70.1667 3.59999 70.0667C3.46666 70.0333 3.35 70.0333 3.25 70.0667C3.15 70.1 3.05 70.15 2.95 70.2167C2.38333 70.95 1.94999 71.5333 1.64999 71.9667C1.31666 72.4 1.1 72.7167 1 72.9167C0.866667 73.15 0.749994 73.1833 0.649994 73.0167C0.583327 72.8167 0.550003 72.8167 0.550003 73.0167C0.383336 73.4167 0.300003 73.7333 0.300003 73.9667C0.400003 74.0333 0.466667 74.1 0.5 74.1667C0.566667 74.2333 0.616661 74.3 0.649994 74.3667C0.616661 74.4 0.566667 74.45 0.5 74.5167C0.466667 74.5167 0.400003 74.55 0.300003 74.6167C0.233336 74.65 0.166658 74.6833 0.0999908 74.7167C0.0666575 74.75 0.0333333 74.8 0 74.8667V74.9167C0.0333333 75.85 0.166661 76.6667 0.399994 77.3667C0.599994 78.0667 0.916658 78.6667 1.34999 79.1667C1.38332 79.1667 1.46666 79.1167 1.59999 79.0167C1.73332 78.9167 1.91666 78.7833 2.14999 78.6167L2.3 78.8167L2.05 79.6167C2.48334 79.85 2.86666 79.9833 3.2 80.0167C3.53333 80.05 3.81667 79.9667 4.05 79.7667C4.11667 79.7 4.18333 79.6 4.25 79.4667C4.31667 79.3667 4.36666 79.2667 4.39999 79.1667L4.64999 78.7167C4.68333 78.7833 4.71667 78.85 4.75 78.9167C4.75 79.0167 4.75 79.15 4.75 79.3167C4.75 79.45 4.75 79.5833 4.75 79.7167C4.75 79.8167 4.76667 79.8833 4.8 79.9167C4.9 80.0167 5.08332 80 5.34999 79.8667C5.58332 79.7667 5.88333 79.5833 6.25 79.3167C6.28333 79.3167 6.45 79.2667 6.75 79.1667C7.08333 79.0667 7.5 78.8167 8 78.4167V78.3167C8.1 78.15 8.31666 77.9 8.64999 77.5667C9.01666 77.2 9.31667 76.8667 9.55 76.5667C9.71667 76.3333 9.98332 76.1333 10.35 75.9667C10.6833 75.7333 10.9167 75.55 11.05 75.4167C11.25 75.0833 11.4833 74.65 11.75 74.1167C12.0833 73.55 12.2667 73.1333 12.3 72.8667L12.8 71.7167C12.9 70.6167 13.0333 69.5667 13.2 68.5667C13.4 67.5667 13.5 67.0333 13.5 66.9667C13.5333 66.7333 13.55 66.35 13.55 65.8167C13.55 65.3167 13.5667 64.9 13.6 64.5667C13.5667 64.4 13.5333 64.0333 13.5 63.4667C13.4667 62.9 13.4167 62.3 13.35 61.6667C13.3167 61.0333 13.2667 60.5 13.2 60.0667L13.15 60.1667C13.15 59.2667 13.1833 58.3833 13.25 57.5167C13.35 56.5833 13.4833 55.6167 13.65 54.6167C13.9167 53.25 14.3833 51.7667 15.05 50.1667C15.6833 48.5667 16.3667 46.9167 17.1 45.2167C17.3667 44.9167 17.65 44.55 17.95 44.1167C18.25 43.6833 18.5833 43.1833 18.95 42.6167C19.2833 42.0833 19.5667 41.5833 19.8 41.1167C20 40.65 20.1667 40.2333 20.3 39.8667C21.3667 38.8667 22.2333 37.9833 22.9 37.2167C23.6 36.3833 24.45 35.55 25.45 34.7167L25.65 33.4667L26.15 34.3167C26.45 33.9833 26.7833 33.75 27.15 33.6167C27.5167 33.4833 27.85 33.3333 28.15 33.1667C28.2833 33.1 28.3333 32.9833 28.3 32.8167C28.2333 32.65 28.2167 32.5667 28.25 32.5667C28.2833 32.5667 28.3833 32.6167 28.55 32.7167C28.75 32.85 28.9 32.9167 29 32.9167C29.1333 32.8833 29.3167 32.8167 29.55 32.7167C29.7833 32.5833 30.0667 32.4667 30.4 32.3667C30.6 32.3 30.75 32.25 30.85 32.2167C30.95 32.1167 31.0167 32.0333 31.05 31.9667C31.95 31.7667 32.65 31.5667 33.15 31.3667C33.65 31.2 34.3333 31 35.2 30.7667C35.4667 30.5333 35.7833 30.4 36.15 30.3667C36.5167 30.3333 36.8333 30.2833 37.1 30.2167C37.4333 30.1167 37.7833 29.95 38.15 29.7167C38.4833 29.4833 38.6667 29.3833 38.7 29.4167C38.8 29.4833 39.1333 29.45 39.7 29.3167C40.2 29.1833 40.75 29.0167 41.35 28.8167C41.95 28.6833 42.4 28.5667 42.7 28.4667C42.9333 28.3333 42.9667 28.2 42.8 28.0667C42.6333 27.9 42.45 27.7667 42.25 27.6667C42.0167 27.5333 41.95 27.45 42.05 27.4167L42.1 27.5167C42.2 27.6167 42.6667 27.8 43.5 28.0667C43.9333 27.9333 44.4667 27.7 45.1 27.3667C45.7 27.0667 46.3 26.7667 46.9 26.4667C47.4333 26.1333 47.8333 25.95 48.1 25.9167C48.3667 25.85 48.7333 25.8 49.2 25.7667C49.7 25.6667 50.05 25.55 50.25 25.4167C50.25 25.3833 50.15 25.3 49.95 25.1667C49.75 25.0333 49.65 24.9333 49.65 24.8667C49.95 24.8667 50.1833 24.8667 50.35 24.8667C50.55 24.8667 50.8 24.8667 51.1 24.8667C51.1667 24.9 51.25 24.9333 51.35 24.9667C51.3833 25.0333 51.4667 25.0667 51.6 25.0667C51.8 25 52.4667 24.7333 53.6 24.2667C54.7333 23.8333 55.9333 23.3167 57.2 22.7167C58.4667 22.1833 59.4333 21.75 60.1 21.4167C60.1 21.3833 59.9 21.4 59.5 21.4667C59.0667 21.5 58.6333 21.5667 58.2 21.6667C57.7667 21.7 57.5333 21.7167 57.5 21.7167C57.5 21.6833 57.4833 21.6667 57.45 21.6667C57.4167 21.6667 57.3833 21.6667 57.35 21.6667C57.35 21.6333 56.9167 21.6833 56.05 21.8167C55.2167 21.95 54.2333 22.1167 53.1 22.3167C51.9333 22.5167 50.9167 22.7167 50.05 22.9167C49.15 23.1167 48.6833 23.25 48.65 23.3167C48.65 23.4167 48.5833 23.4333 48.45 23.3667C48.3167 23.3 48.2 23.2833 48.1 23.3167C47.9667 23.3833 47.8 23.55 47.6 23.8167C47.4 24.0833 47.1833 24.2167 46.95 24.2167C47.1167 24.1167 47.2667 23.9167 47.4 23.6167C47.5667 23.3833 47.7333 23.2 47.9 23.0667C47.5667 23.1333 47.2667 23.2833 47 23.5167C46.6667 23.7833 46.35 23.9667 46.05 24.0667C45.85 24 45.6 23.9 45.3 23.7667C45.0333 23.5667 44.6667 23.4667 44.2 23.4667C43.9667 23.5333 43.3667 23.65 42.4 23.8167C41.5 23.95 40.6167 24.0833 39.75 24.2167C38.85 24.3833 38.3167 24.4833 38.15 24.5167C37.6833 24.6167 37.2 24.8333 36.7 25.1667C36.1667 25.4667 35.8667 25.6333 35.8 25.6667C35.7333 25.6 35.55 25.45 35.25 25.2167C34.9833 25.05 34.7833 25 34.65 25.0667C34.55 25.0667 34.3333 25.1 34 25.1667C33.7 25.2 33.5167 25.25 33.45 25.3167C33.2833 25.3833 33.1 25.5333 32.9 25.7667C32.7 26 32.5667 26.1167 32.5 26.1167C32.4667 26.1167 32.3167 26 32.05 25.7667C31.75 25.4667 31.4667 25.3167 31.2 25.3167C31.0333 25.3833 30.6667 25.4667 30.1 25.5667C29.5 25.7 28.9167 25.85 28.35 26.0167C27.7833 26.1833 27.4167 26.3 27.25 26.3667C24.6167 26.8333 22.6 26.9 21.2 26.5667C19.8333 26.2 19.0833 25.5 18.95 24.4667C18.7833 23.2333 18.8833 22.1833 19.25 21.3167C19.5833 20.45 19.9833 19.7833 20.45 19.3167C20.8167 19.0167 21.35 18.6667 22.05 18.2667C22.75 17.9 23.4167 17.5667 24.05 17.2667C24.75 16.9667 25.2167 16.7667 25.45 16.6667C26.65 16.3 27.55 16.05 28.15 15.9167C28.7167 15.7167 29.2167 15.5833 29.65 15.5167C30.0833 15.4167 30.7333 15.3 31.6 15.1667C32.5 15.0667 33.2167 14.9667 33.75 14.8667C34.2833 14.8 34.75 14.75 35.15 14.7167C35.5833 14.6167 36.0833 14.5 36.65 14.3667C37.15 14.3333 37.75 14.2667 38.45 14.1667C39.15 14.0667 39.8 13.9667 40.4 13.8667C41 13.8 41.4 13.7667 41.6 13.7667C41.9667 13.6333 42.4333 13.5 43 13.3667C43.5667 13.2333 43.9667 13.1333 44.2 13.0667C44.2667 13.0667 44.6333 12.9833 45.3 12.8167C46 12.65 46.7667 12.4 47.6 12.0667C48.4333 11.7667 49.0667 11.4167 49.5 11.0167L50.7 10.1667C50.9667 10.0333 51.3 9.78333 51.7 9.41666C52.0667 9.04999 52.3667 8.75 52.6 8.51667C52.7 8.45 52.8667 8.3 53.1 8.06667C53.3333 7.86667 53.55 7.64999 53.75 7.41666C53.95 7.18333 54.0333 6.96667 54 6.76667C53.9 6.53333 53.9167 6.35 54.05 6.21666H54.15C54.3833 5.68333 54.5833 5.28333 54.75 5.01667C54.8833 4.75 54.95 4.6 54.95 4.56667C55.1167 4.16667 55.2 3.85001 55.2 3.61667C55.2 3.38334 55.15 3.25 55.05 3.21666C54.95 3.18333 54.85 3.16666 54.75 3.16666C54.65 3.16666 54.5 3.18333 54.3 3.21666C54.1333 3.28333 54 3.33334 53.9 3.36667C53.7667 3.36667 53.6833 3.33333 53.65 3.26667L54.05 2.96666C54.15 2.9 54.25 2.83333 54.35 2.76667C54.4167 2.73333 54.5 2.66667 54.6 2.56667C54.6667 2.33334 54.6 2.08334 54.4 1.81667C54.2667 1.51667 53.9667 1.21666 53.5 0.91666L52.75 1.31667L52.55 1.21666C52.6167 0.98333 52.6667 0.799993 52.7 0.66666V0.466663C52.2667 0.299996 52 0.166669 51.9 0.0666689C51.7333 2.25753e-06 51.55 -0.0166675 51.35 0.0166659C51.1167 0.0499992 50.6667 0.116663 50 0.216663L49.9 0.316669C49.8667 0.383336 49.8333 0.433329 49.8 0.466663C49.7667 0.499996 49.75 0.550005 49.75 0.616672C49.75 0.683339 49.7333 0.750002 49.7 0.816669C49.7 0.883336 49.6833 0.933329 49.65 0.966663C49.55 0.966663 49.4667 0.949993 49.4 0.91666Z" fill="#1A202C"/>
</svg>
