<svg width="72" height="80" viewBox="0 0 72 80" fill="none" xmlns="http://www.w3.org/2000/svg">
<path d="M37.95 64.05V64.25H38C38 64.1833 38 64.1 38 64C38 63.9677 38 63.9344 38 63.9C37.999 63.9353 37.9823 63.9853 37.95 64.05ZM47 17.5C46.8 17.5 46.5833 17.5333 46.35 17.6C46.1167 17.6333 45.9 17.7167 45.7 17.85C45.4 17.7167 45.1167 17.65 44.85 17.65C44.6167 17.5833 44.4167 17.55 44.25 17.55C43.95 17.5167 43.6 17.5 43.2 17.5C42.8 17.4333 42.5167 17.55 42.35 17.85C41.9167 17.85 41.6 17.8667 41.4 17.9C41.2 17.9667 41 18.0333 40.8 18.1C40.5667 18.2 40.1667 18.2833 39.6 18.35C38.7667 18.45 37.9333 18.75 37.1 19.25C36.2333 19.75 35.6333 20.5167 35.3 21.55L34.55 24.2L34.65 24.9L33.8 25.3C33.6667 26.0333 33.5333 26.6833 33.4 27.25C33.3 27.7833 33.1833 28.4 33.05 29.1C32.6833 27.1333 32.3833 25.6667 32.15 24.7C31.95 23.7 31.6333 22.85 31.2 22.15C31.1333 22.0167 31 22.0167 30.8 22.15C30.6 22.3167 30.4167 22.5167 30.25 22.75L29.85 22.6L29.45 20.65C28.75 20.3167 28.2833 20.1167 28.05 20.05C27.8167 19.9833 27.6667 19.95 27.6 19.95C27.3667 19.0167 27.05 18.3667 26.65 18C26.2167 17.6667 25.7167 17.5 25.15 17.5C24.5833 17.5 23.9833 17.5 23.35 17.5C23.0167 17.5 22.6833 17.6 22.35 17.8C22.05 17.9333 21.75 18.1833 21.45 18.55L20.75 19.45L20.5 18C19.5 18.5667 18.5833 19.1333 17.75 19.7C16.8833 20.2667 16.1333 20.8833 15.5 21.55L14.75 23.55L14.55 23.8C14.55 23.1667 14.5 22.6667 14.4 22.3C14.3333 21.9333 14.2167 21.6833 14.05 21.55L14.4 20.4L14.15 19.95L14.2 17.75C14.2667 17.0167 14.3333 16.45 14.4 16.05C14.4333 15.6167 14.45 15.3667 14.45 15.3C14.4167 15.2667 14.3833 15.1 14.35 14.8C14.2833 14.5667 14.2167 14.2 14.15 13.7C14.45 13.7 14.6833 13.7 14.85 13.7C15.1833 13.7 15.4667 13.7167 15.7 13.75C15.9333 13.75 16.1333 13.7833 16.3 13.85L17.35 12.95C17.3833 12.9833 17.4 13.0667 17.4 13.2C17.4 13.3333 17.3833 13.5167 17.35 13.75C17.75 13.75 17.9833 13.6 18.05 13.3L18.4 13.6L18.55 13.4L19.3 13.45C19.7333 13.55 19.9833 13.6333 20.05 13.7L20.2 13.55C20.3667 13.4833 20.6 13.3667 20.9 13.2C21.1 13.3 21.2833 13.4 21.45 13.5C21.5833 13.6 21.7 13.6833 21.8 13.75C22.4333 13.8167 23.0167 13.8667 23.55 13.9C24.0833 13.9 24.5333 13.8833 24.9 13.85V8.25L24.4 7.65C24.3667 7.75 24.3 7.81667 24.2 7.85C24.0667 7.91667 23.8833 7.96667 23.65 8C23.4833 8.03333 23.3333 8.08333 23.2 8.15C23.0667 8.18333 22.9833 8.25 22.95 8.35C22.9167 8.28333 22.8833 8.23333 22.85 8.2C22.8167 8.2 22.7833 8.2 22.75 8.2C22.6167 8.2 22.45 8.25 22.25 8.35C22.0167 8.45 21.7167 8.6 21.35 8.8C21.1833 8.7 21.0333 8.58333 20.9 8.45C20.7667 8.28333 20.6833 8.21667 20.65 8.25L16.9 8.5C16.6667 8.73333 16.4667 8.91667 16.3 9.05C16.1 9.15 15.9167 9.2 15.75 9.2C15.45 9.2 15.2167 9.15 15.05 9.05C14.85 8.91667 14.7 8.73333 14.6 8.5H14.55C14.5833 6.63333 14.6 5 14.6 3.6C14.6 2.2 14.6 1 14.6 0L9.2 0.150002L8.65 1.5C8.68333 1.63333 8.71667 1.9 8.75 2.3C8.81667 2.66667 8.85 3.18333 8.85 3.85C8.91667 4.45 8.96667 4.95 9 5.35C9.1 5.71667 9.16666 5.95 9.2 6.05C9.16666 6.18334 9.13333 6.31666 9.1 6.45C9.1 6.58333 9.1 6.73333 9.1 6.9C9.1 7.1 9.1 7.33333 9.1 7.6C9.13333 7.86667 9.16666 8.16667 9.2 8.5C8.73333 8.43333 8.31666 8.35 7.95 8.25C7.58333 8.21667 7.28334 8.2 7.05 8.2C6.81667 8.2 6.61666 8.2 6.45 8.2C6.25 8.23333 6.06667 8.28333 5.9 8.35C5.86667 8.48333 5.83334 8.63334 5.8 8.8C5.8 8.96667 5.78333 9.11667 5.75 9.25L4.55 8.75L4.15 8.25C3.95 8.25 3.73333 8.25 3.5 8.25C3.26667 8.25 3.03334 8.28333 2.8 8.35C2.66667 8.38333 2.48333 8.38333 2.25 8.35C2.01667 8.31667 1.75 8.28333 1.45 8.25L0.800003 8.8C0.700003 8.96667 0.533336 8.88334 0.300003 8.55C0.26667 8.51667 0.23333 8.46667 0.199997 8.4C0.166664 8.33333 0.133332 8.26666 0.0999985 8.2C0.0999985 8.4 0.0999985 8.56666 0.0999985 8.7C0.0333318 8.8 0 8.93333 0 9.1C0.166667 9.33333 0.283332 9.51667 0.349998 9.65C0.416665 9.85 0.449997 10.0167 0.449997 10.15C0.449997 10.2167 0.383333 10.3 0.25 10.4C0.15 10.5333 0.0999985 10.6333 0.0999985 10.7V11.55L0.25 11.45L0.150002 11.75C0.116668 11.8833 0.0999985 12.0167 0.0999985 12.15V14.4L0.650002 14.3C0.883335 14.0333 1.13333 13.85 1.4 13.75C1.66667 13.6167 1.91667 13.55 2.15 13.55C2.58333 13.55 2.95 13.55 3.25 13.55C3.51667 13.5833 3.68333 13.6333 3.75 13.7L4.8 14C4.86667 13.8333 5.1 13.75 5.5 13.75C5.8 13.7833 6.08333 13.7833 6.35 13.75C6.58333 13.7167 6.73334 13.5667 6.8 13.3C6.8 13.1333 6.83333 13.0333 6.9 13C6.96667 12.9 7.03333 12.85 7.1 12.85C7.2 12.85 7.31666 12.8833 7.45 12.95C7.61666 12.9833 7.8 13.05 8 13.15L7.4 13.75L8.7 13.55C8.8 13.55 8.88333 13.55 8.95 13.55C9.01666 13.5833 9.1 13.6 9.2 13.6L9.35 25.35C9.61667 25.85 9.8 26.3833 9.9 26.95C10.0333 27.55 10.1 28.1833 10.1 28.85C10.1 29.7167 10.0333 30.45 9.9 31.05C9.8 31.65 9.61667 32.0667 9.35 32.3C9.38333 32.8 9.4 33.45 9.4 34.25C9.43333 34.9833 9.48334 35.8833 9.55 36.95C9.68334 38.95 9.75 40.4667 9.75 41.5C9.75 42.2667 9.71667 43.25 9.65 44.45C9.58333 45.6833 9.48333 47.15 9.35 48.85C9.25 50.4833 9.2 51.9333 9.2 53.2C9.13333 54.4333 9.1 55.45 9.1 56.25C9.1 56.85 9.11667 57.45 9.15 58.05C9.15 58.6167 9.16666 59.1667 9.2 59.7C9.36666 59.8333 9.53333 59.9333 9.7 60C9.83333 60.0333 9.98333 60.0667 10.15 60.1L9.6 63.9L9.2 65.15C9.2 65.05 9.18333 65 9.15 65C9.11667 65 9.1 65.1 9.1 65.3C9.1 65.9333 9.11667 66.5667 9.15 67.2C9.18333 67.8667 9.2 68.5667 9.2 69.3C9.2 69.3333 9.18333 69.3833 9.15 69.45C9.11667 69.45 9.1 69.4833 9.1 69.55H9.2V69.6C9.23333 69.6 9.25 69.5833 9.25 69.55C9.38333 69.55 9.5 69.5833 9.6 69.65C9.7 69.75 9.83333 69.8167 10 69.85C10.1667 69.4167 10.3333 69.0833 10.5 68.85C10.7 68.6167 10.8667 68.5 11 68.5C11.0667 68.5333 11.1667 68.7333 11.3 69.1C11.4 69.4667 11.4667 69.6667 11.5 69.7L11.85 69.65L12.3 69.7L12.25 69.15L12.5 69.35C12.6667 69.4833 12.8167 69.6 12.95 69.7H15.1V67.95C14.9667 67.5833 14.8667 67.2167 14.8 66.85C14.7 66.5167 14.6167 66.1667 14.55 65.8L14.7 63.3C14.6333 63.1667 14.5833 62.9 14.55 62.5C14.55 62.1 14.5167 61.6 14.45 61C14.4833 60.0333 14.5 59.15 14.5 58.35C14.4667 57.55 14.3167 57.1 14.05 57C13.9167 56.9667 13.8167 56.85 13.75 56.65C13.6833 56.4833 13.65 56.25 13.65 55.95C13.65 55.65 13.6667 55.2833 13.7 54.85C13.7667 54.4167 13.8333 53.8667 13.9 53.2L14.55 54.9L14.3 50.9C14.3667 50.2333 14.4167 49.4333 14.45 48.5C14.5167 47.5667 14.55 46.45 14.55 45.15C14.55 44.3167 14.55 43.3167 14.55 42.15C14.55 40.9833 14.5167 39.65 14.45 38.15C14.45 36.45 14.45 35.0833 14.45 34.05C14.5167 33.65 14.6 33.2833 14.7 32.95C14.7333 32.65 14.8167 32.35 14.95 32.05C15.3167 31.65 15.6167 31.3167 15.85 31.05C16.1167 30.75 16.35 30.5 16.55 30.3L17.1 30.6C17.1 30.5333 17.1167 30.45 17.15 30.35C17.1833 30.2167 17.2 30.0667 17.2 29.9C17.2333 29.8333 17.25 29.7667 17.25 29.7C17.1833 29.6 17.1167 29.5167 17.05 29.45C17.4167 28.3167 17.8333 27.5 18.3 27C18.7667 26.5 19.2833 26.3 19.85 26.4C20.1167 26.1 20.3833 25.8667 20.65 25.7C20.8833 25.5667 21.0667 25.5 21.2 25.5C21.3333 25.5 21.4333 25.5167 21.5 25.55C21.6333 25.6167 21.7667 25.7167 21.9 25.85C22 25.6167 22.2333 25.3167 22.6 24.95C22.9667 24.55 23.4 24.2667 23.9 24.1C24.4 23.9333 24.9833 24.05 25.65 24.45C26.25 24.8167 26.9 25.65 27.6 26.95L28.5 27.65L28.15 30.15L29.75 30.85C30.5833 33.1833 31.05 35.3667 31.15 37.4C31.2833 39.4 31.3333 41.5167 31.3 43.75C31.3 44.1167 31.3 44.5167 31.3 44.95C31.2667 45.35 31.2167 45.7667 31.15 46.2H31.6C31.6 46.3 31.6 46.3667 31.6 46.4C31.6 46.5 31.6 46.5667 31.6 46.6C31.6333 47.6667 31.6333 48.5833 31.6 49.35C31.5667 50.1167 31.5167 50.6833 31.45 51.05L32.1 54.25C32.1 54.4167 32.05 54.5167 31.95 54.55C31.8833 54.5833 31.7333 54.5167 31.5 54.35C31.5 55.0167 31.5333 55.5333 31.6 55.9C31.6667 56.2333 31.7667 56.4833 31.9 56.65L31.6 57.8L31.9 58.25L31.75 60.45C31.7167 61.2167 31.7 61.7833 31.7 62.15C31.6333 62.5833 31.6 62.8333 31.6 62.9C31.6333 62.9667 31.6667 63.2 31.7 63.6C31.7667 64.0333 31.85 64.6333 31.95 65.4C31.8833 66.0333 31.8 66.5833 31.7 67.05C31.6667 67.5167 31.6 67.9 31.5 68.2C31.5 68.5667 31.5 68.8833 31.5 69.15C31.5 69.3833 31.5 69.5667 31.5 69.7L37.85 69.55L38.25 68.2C38.2167 68.0667 38.1833 67.8 38.15 67.4C38.1167 67 38.0667 66.5 38 65.9C38 65.3667 37.9833 64.9333 37.95 64.6C37.95 64.2667 37.9167 64 37.85 63.8L37.7 52.75C37.5333 52.2833 37.4167 51.75 37.35 51.15C37.2833 50.5833 37.25 49.9667 37.25 49.3C37.25 48.4333 37.2833 47.7 37.35 47.1C37.4167 46.5 37.5333 46.1 37.7 45.9C37.7 45.3667 37.6833 44.7167 37.65 43.95C37.6167 43.1833 37.5833 42.2833 37.55 41.25C37.4833 40.25 37.4333 39.35 37.4 38.55C37.4 37.7833 37.4 37.1333 37.4 36.6C37.4 36.5333 37.4 36.45 37.4 36.35C37.4 36.2833 37.4 36.1833 37.4 36.05C37.4333 35.4833 37.3167 34.9 37.05 34.3C36.75 33.7 36.6333 33.0833 36.7 32.45C37.2333 30.25 37.7667 28.6 38.3 27.5C38.8 26.4 39.2833 25.85 39.75 25.85C39.9833 25.7833 40.15 25.7167 40.25 25.65C40.3833 25.55 40.5167 25.6167 40.65 25.85L40.6 24.15L41.45 25.35C41.9833 25.3167 42.4 25.3167 42.7 25.35C43 25.35 43.2 25.3667 43.3 25.4C43.5333 24.7 43.8333 24.15 44.2 23.75C44.6 23.3833 45.05 23.2 45.55 23.2C45.95 23.2 46.3333 23.3167 46.7 23.55C47.0333 23.7833 47.3333 24.15 47.6 24.65L48.4 22.3L48.25 24.6C48.8833 25.2667 49.2667 25.9333 49.4 26.6C49.5 27.2333 49.7333 27.8833 50.1 28.55C50.1333 28.8833 50.2 29.25 50.3 29.65C50.4 30.05 50.55 30.5167 50.75 31.05C50.95 31.5167 51.15 31.9333 51.35 32.3C51.5167 32.6667 51.7 32.9667 51.9 33.2L52.05 35.3C52.1833 36.6667 52.25 38.6833 52.25 41.35C52.25 42.5833 52.25 43.4833 52.25 44.05C52.25 44.5833 52.2667 44.9333 52.3 45.1L52.35 45.25C52.2833 45.3167 52.25 45.4 52.25 45.5C52.25 45.6 52.25 45.7167 52.25 45.85C52.25 46.05 52.25 46.4833 52.25 47.15C52.25 47.8167 52.25 48.4667 52.25 49.1C52.25 49.7 52.25 50.05 52.25 50.15L52.4 58.15C52.5333 58.3833 52.6 58.85 52.6 59.55C52.6667 60.2167 52.6667 60.8833 52.6 61.55C52.6 62.1833 52.5333 62.55 52.4 62.65C52.4 62.8833 52.4333 63.3667 52.5 64.1C52.5667 64.8667 52.6167 65.7167 52.65 66.65C52.7167 67.55 52.7833 68.35 52.85 69.05C52.9167 69.75 52.95 70.1167 52.95 70.15C53.2833 71.6833 53.8333 72.9333 54.6 73.9C55.4 74.8667 56.2 75.65 57 76.25C57.8 76.85 58.4167 77.3333 58.85 77.7C58.8833 77.7333 58.9833 77.7 59.15 77.6C59.3167 77.5333 59.4167 77.5 59.45 77.5C59.4167 77.5333 59.3833 77.6333 59.35 77.8C59.2833 77.9333 59.35 78.1167 59.55 78.35C60.05 78.8833 60.7167 79.25 61.55 79.45C62.3833 79.65 62.9833 79.7833 63.35 79.85C63.5833 79.8167 63.9 79.8 64.3 79.8C64.6667 79.8333 64.95 79.8833 65.15 79.95C65.15 79.8833 65.1833 79.8333 65.25 79.8C65.2833 79.7 65.25 79.6167 65.15 79.55C65.1167 79.55 65.0667 79.5167 65 79.45C64.9333 79.45 64.85 79.4333 64.75 79.4C64.8833 79.4333 65.0167 79.45 65.15 79.45C65.2833 79.5167 65.3833 79.55 65.45 79.55L68 78.25L68.6 77.7C68.7667 77.6333 68.9833 77.4 69.25 77C69.55 76.6333 69.7667 76.3333 69.9 76.1C69.9667 76.0333 70.05 75.9167 70.15 75.75C70.25 75.5833 70.3667 75.4 70.5 75.2C70.6 74.9667 70.7 74.7333 70.8 74.5C70.8333 74.2667 70.9 74.1167 71 74.05L71.05 73.95C71.1833 73.3167 71.2833 72.8333 71.35 72.5C71.3833 72.1667 71.4167 72 71.45 72C71.4833 71.5333 71.5 71.1667 71.5 70.9C71.5 70.5667 71.4333 70.3167 71.3 70.15C71.2667 70.15 71.2167 70.1333 71.15 70.1C71.05 70.0333 70.9333 70 70.8 70C70.7333 70 70.6667 70 70.6 70C70.5 70 70.45 69.9833 70.45 69.95L70.35 69.85L70.6 69.65C70.6667 69.55 70.7333 69.4667 70.8 69.4C70.8 69.3 70.8333 69.25 70.9 69.25C70.9333 68.9167 70.8833 68.5333 70.75 68.1C70.5833 67.6667 70.3333 67.1667 70 66.6L69.55 66.85L69.4 66.65V65.7C68.8667 65.1 68.3167 64.6333 67.75 64.3C67.15 64 66.5 63.8167 65.8 63.75V63.8C65.7333 63.8333 65.7 63.8667 65.7 63.9C65.7 63.9667 65.7 64.0333 65.7 64.1C65.7 64.2 65.7 64.2833 65.7 64.35C65.7 64.4167 65.7 64.4667 65.7 64.5C65.6333 64.4667 65.55 64.4167 65.45 64.35C65.3833 64.2833 65.3333 64.2 65.3 64.1C65.1667 64.1 65.05 64.1167 64.95 64.15C64.8833 64.2167 64.7833 64.2833 64.65 64.35C64.25 64.35 63.9333 64.5 63.7 64.8C63.4333 65.0667 63.0333 65.8833 62.5 67.25C62.5 67.4167 62.5 67.5667 62.5 67.7C62.5333 67.8667 62.5833 68.0333 62.65 68.2C62.7167 68.2 62.8333 68.2667 63 68.4C63.2 68.5667 63.4333 68.8 63.7 69.1C63.8667 69.2333 64.0333 69.3167 64.2 69.35C64.4333 69.3833 64.6333 69.3167 64.8 69.15L64.85 69.1C64.8833 69.0667 64.9 69.0333 64.9 69C64.9 68.6667 64.9833 68.4167 65.15 68.25L65.45 68.1C65.6167 68 65.8833 67.85 66.25 67.65C66.55 67.65 66.8 67.7167 67 67.85C67.2 67.95 67.3833 68.1167 67.55 68.35C67.6833 68.55 67.8167 68.7833 67.95 69.05C68.0833 69.3167 68.1833 69.5833 68.25 69.85C68.3167 70.1833 68.35 70.5 68.35 70.8C68.35 71.1 68.3167 71.3667 68.25 71.6C68.2833 71.6667 68.3 71.7167 68.3 71.75C68.3 71.7833 68.3 71.8167 68.3 71.85C68.3667 71.85 68.4167 71.8833 68.45 71.95C68.4833 71.95 68.5333 71.9667 68.6 72C68.4667 72 68.3667 72.1 68.3 72.3C68.3 72.5333 68.2333 72.7667 68.1 73L68 73.55C67.9667 73.65 67.9 73.7167 67.8 73.75C67.7333 73.75 67.6667 73.7833 67.6 73.85C67.5333 73.95 67.45 74.0667 67.35 74.2C67.2167 74.3667 67.05 74.4667 66.85 74.5C66.6167 74.5 66.45 74.5833 66.35 74.75C66.2167 74.8833 66.1 75.0167 66 75.15C66 75.1833 65.9833 75.2167 65.95 75.25C65.9167 75.3167 65.8833 75.35 65.85 75.35L65.7 75.05C65.5667 75.0167 65.4167 75.0667 65.25 75.2C65.05 75.3 64.9 75.3833 64.8 75.45C64.6333 75.3833 64.2167 75.3333 63.55 75.3C62.8833 75.2 62.2333 74.9833 61.6 74.65C61.3333 74.5833 61.1167 74.4 60.95 74.1C60.75 73.8667 60.5833 73.6833 60.45 73.55C60.3833 73.55 60.1167 73.3333 59.65 72.9C59.1833 72.4667 58.6833 71.7333 58.15 70.7C57.65 69.6333 57.3 68.2 57.1 66.4C56.9333 64.6 57.1 62.35 57.6 59.65C57.6333 59.55 57.6667 59.4833 57.7 59.45C57.7 59.35 57.7 59.2833 57.7 59.25L57.15 57.1C57.15 57 57.1833 56.95 57.25 56.95C57.35 56.9167 57.5 56.9333 57.7 57C57.7 56.6 57.6667 56.2833 57.6 56.05C57.5 55.8167 57.4 55.65 57.3 55.55L57.55 54.8L57.4 54.45L57.45 53C57.4833 52.5 57.5333 52.1167 57.6 51.85C57.6 51.5833 57.6 51.4333 57.6 51.4C57.6 51.3333 57.5667 51.1667 57.5 50.9C57.4333 50.6 57.35 50.2167 57.25 49.75C57.3167 49.3167 57.3833 48.9333 57.45 48.6C57.5167 48.2667 57.5667 48.0167 57.6 47.85C57.6667 46.3833 57.7167 45.1 57.75 44C57.75 42.8667 57.7333 41.9333 57.7 41.2C57.7333 40.6667 57.75 40.15 57.75 39.65C57.7167 39.15 57.7 38.65 57.7 38.15C57.1667 38.1167 56.8 38.0667 56.6 38H56.25C56.3167 37.7 56.4167 37.4167 56.55 37.15C56.7167 36.8833 56.95 36.65 57.25 36.45C57.25 36.2167 57.2833 35.9667 57.35 35.7C57.3833 35.4333 57.4 35.15 57.4 34.85C57.4 34.0833 57.2833 33.2167 57.05 32.25C56.8833 31.3167 56.6167 30.3167 56.25 29.25C55.95 28.2167 55.6167 27.3833 55.25 26.75C54.9167 26.05 54.5833 25.5667 54.25 25.3C54.05 24.6 53.8667 24 53.7 23.5C53.5333 22.9667 53.35 22.5 53.15 22.1C52.8833 21.9 52.5333 21.6667 52.1 21.4C51.7 21.1667 51.25 20.8833 50.75 20.55C50.6833 20.65 50.65 20.7167 50.65 20.75L50.6 20.85C50.6 20.75 50.6 20.6333 50.6 20.5C50.6 20.4 50.6 20.2833 50.6 20.15C50.5333 19.95 50.4833 19.8333 50.45 19.8C50.4167 19.7 50.35 19.7 50.25 19.8C49.7833 19.0333 49.2667 18.45 48.7 18.05C48.1667 17.6833 47.6 17.5 47 17.5ZM37.65 67.1C37.6167 67.5667 37.55 67.5667 37.45 67.1C37.5167 66.6667 37.5667 66.3 37.6 66C37.6667 65.6667 37.7167 65.3833 37.75 65.15C37.75 65.9833 37.7167 66.6333 37.65 67.1ZM9.25 67.5C9.25 66.7667 9.23333 66.15 9.2 65.65L9.7 67.4C9.76666 67.5333 9.78333 67.7333 9.75 68C9.71667 68.2667 9.61666 68.5667 9.45 68.9C9.41666 69 9.4 69.0667 9.4 69.1C9.36667 69.1667 9.31667 69.2333 9.25 69.3C9.25 68.8667 9.25 68.2667 9.25 67.5Z" fill="#1A202C"/>
</svg>
