<svg width="86" height="80" viewBox="0 0 86 80" fill="none" xmlns="http://www.w3.org/2000/svg">
<path d="M63.7 6.5H63.65C63.6833 6.46667 63.7167 6.43333 63.75 6.39999H63.6L63.5 6.5C63.4667 6.56667 63.4167 6.60001 63.35 6.60001C63.3167 6.60001 63.3 6.53333 63.3 6.39999C63.2667 6.29999 63.2333 6.23333 63.2 6.2L63.15 6.14999C63.0833 6.14999 62.9333 6.13334 62.7 6.10001C62.7333 6.13334 62.75 6.18333 62.75 6.25C62.7833 6.25 62.8333 6.28334 62.9 6.35001C62.9333 6.41667 62.95 6.48334 62.95 6.55C62.95 6.58334 62.9333 6.61666 62.9 6.64999C62.7 6.71666 62.5333 6.79999 62.4 6.89999C62.3667 7.06666 62.3167 7.21667 62.25 7.35001C62.1833 7.48334 62.1167 7.58333 62.05 7.64999C61.9167 7.94999 61.7667 8.18334 61.6 8.35001C61.6333 8.41667 61.6667 8.48334 61.7 8.55C61.7333 8.58334 61.75 8.65 61.75 8.75C61.75 8.85 61.75 8.96667 61.75 9.10001C61.7167 9.20001 61.7 9.31666 61.7 9.45C61.6 9.41666 61.5 9.39999 61.4 9.39999C61.3 9.39999 61.2333 9.39999 61.2 9.39999C61.0667 9.39999 60.9833 9.46667 60.95 9.60001C60.85 9.70001 60.7667 9.81666 60.7 9.95C60.6667 10.0833 60.6 10.2667 60.5 10.5C60.4 10.7 60.3167 10.9667 60.25 11.3C60.1167 11.6 60 11.85 59.9 12.05C59.8333 12.2833 59.7667 12.4667 59.7 12.6C59.6333 12.6667 59.5667 12.7667 59.5 12.9C59.4 13.0667 59.2667 13.2333 59.1 13.4C58.9667 13.5333 58.8333 13.6667 58.7 13.8C58.5667 13.9 58.5167 14 58.55 14.1C58.6167 14.1333 58.6667 14.2333 58.7 14.4C58.8 14.5667 58.8 14.7 58.7 14.8C58.6333 14.9333 58.5333 15.05 58.4 15.15C58.2667 15.2167 58.1167 15.2667 57.95 15.3C57.7167 15.6667 57.5 15.9667 57.3 16.2C57.1333 16.4667 56.9667 16.7167 56.8 16.95L55.25 16.65C54.35 15.9833 53.5167 15.4667 52.75 15.1C51.95 14.7667 51.05 14.4833 50.05 14.25C49.0167 14.0833 47.7167 13.9 46.15 13.7C46.0833 13.6667 46.0333 13.6333 46 13.6C45.9333 13.6 45.8667 13.6 45.8 13.6L45.95 0.899994L42.65 0L40.4 0.699997L40.65 14.8L38.55 15.3L33.95 15.2C32.6167 15.5 31.55 15.75 30.75 15.95C29.95 16.15 29.25 16.3667 28.65 16.6C28.4167 16.2333 28.25 15.9167 28.15 15.65C27.9833 15.3833 27.8 15.0833 27.6 14.75C27.3667 14.6833 27.1833 14.6333 27.05 14.6C26.9167 14.5 26.8333 14.4167 26.8 14.35C26.7333 14.1833 26.7333 14.0167 26.8 13.85C26.8667 13.6833 26.9167 13.5833 26.95 13.55C26.9833 13.45 26.95 13.3333 26.85 13.2C26.7167 13.0667 26.5667 12.9167 26.4 12.75C26.2667 12.5833 26.1667 12.4333 26.1 12.3C26.0333 12.2 25.9667 12.0833 25.9 11.95C25.8333 11.8167 25.75 11.6333 25.65 11.4C25.5833 11.1667 25.5167 10.8833 25.45 10.55C25.35 10.25 25.2667 10 25.2 9.8C25.1333 9.56667 25.0833 9.38333 25.05 9.25C24.95 9.11667 24.9 8.98334 24.9 8.85001C24.8333 8.75001 24.75 8.68333 24.65 8.64999C24.5833 8.64999 24.5 8.66666 24.4 8.7C24.2667 8.73333 24.15 8.75 24.05 8.75C24.05 8.61667 24.0333 8.49999 24 8.39999C24 8.29999 24 8.16667 24 8C24.0333 7.93333 24.0833 7.88334 24.15 7.85001C24.1833 7.78334 24.2167 7.71666 24.25 7.64999C24.0833 7.38333 23.9167 7.13333 23.75 6.89999C23.7167 6.79999 23.6833 6.70001 23.65 6.60001C23.6167 6.46667 23.5667 6.30001 23.5 6.10001C23.3667 6.03334 23.2167 5.96666 23.05 5.89999C22.9833 5.86666 22.95 5.81667 22.95 5.75C22.95 5.71667 22.9833 5.63333 23.05 5.5C23.1167 5.5 23.1667 5.46666 23.2 5.39999L23.3 5.3C23.0667 5.36667 22.9 5.41666 22.8 5.45H22.75C22.6833 5.48333 22.6333 5.54999 22.6 5.64999C22.5667 5.74999 22.5333 5.83333 22.5 5.89999C22.4667 5.86666 22.4333 5.83334 22.4 5.8L22.35 5.7H22.15C22.15 5.73333 22.1667 5.76667 22.2 5.8L22.25 5.89999C22.2167 5.86666 22.1833 5.85001 22.15 5.85001C22.0833 5.81667 22.0333 5.8 22 5.8C21.9333 5.86667 21.8833 6.06666 21.85 6.39999C21.8167 6.76666 21.8333 7.03333 21.9 7.2C21.9667 7.5 22.0167 7.71667 22.05 7.85001C22.05 8.01667 22.05 8.13333 22.05 8.2C22.0833 8.33333 22.0833 8.45 22.05 8.55C22.05 8.65 22.0333 8.76666 22 8.89999C22.0667 8.89999 22.1333 8.93333 22.2 9C22.2333 9.06667 22.2833 9.16667 22.35 9.3C22.3833 9.46667 22.4167 9.63334 22.45 9.8C22.55 9.93334 22.6667 9.98333 22.8 9.95C22.8333 9.91666 22.8833 9.89999 22.95 9.89999C22.95 9.93333 22.9833 9.96667 23.05 10C23.05 10.1 23.05 10.1833 23.05 10.25C23.05 10.35 23.05 10.45 23.05 10.55C22.9833 10.5167 22.9167 10.5 22.85 10.5C22.7833 10.5 22.7 10.4667 22.6 10.4C22.6667 10.5667 22.7167 10.7 22.75 10.8C22.8167 10.9 22.8833 11.0167 22.95 11.15C22.8833 11.45 22.8833 11.8333 22.95 12.3C22.9833 12.4667 23.0333 12.6667 23.1 12.9C23.1333 13.1 23.2 13.3667 23.3 13.7C23.4333 14.0333 23.5 14.2833 23.5 14.45C23.5667 14.6833 23.6 14.8333 23.6 14.9C23.6667 15.1 23.7167 15.2833 23.75 15.45C23.75 15.6167 23.7167 15.7667 23.65 15.9C23.8167 15.9 23.95 15.9333 24.05 16C24.1833 16.0333 24.3333 16.1 24.5 16.2C24.4667 16.2333 24.3667 16.2833 24.2 16.35C24.0333 16.3833 23.9333 16.4 23.9 16.4C23.8667 16.4667 23.9 16.5333 24 16.6C24.1 16.7 24.2333 16.75 24.4 16.75C24.3667 16.7833 24.3333 16.8167 24.3 16.85C24.2333 16.9167 24.2 16.9833 24.2 17.05C24.2667 17.05 24.3333 17.05 24.4 17.05C24.4 17.1167 24.4 17.1833 24.4 17.25C24.4 17.3167 24.4 17.3833 24.4 17.45C24.4 17.7167 24.4 17.8833 24.4 17.95V18L24.55 18.05C24.6833 18.1167 24.8 18.1833 24.9 18.25L23.3 20L20.25 21L19.85 22.65L16.9 23.6L16.1 24.8C16.1 24.7 16.1 24.6167 16.1 24.55V24.5C15.8 24.3 15.5167 24.15 15.25 24.05C15.0167 23.9167 14.7333 23.7667 14.4 23.6C14.2667 23.7 14.1333 23.75 14 23.75C13.9 23.75 13.8167 23.7333 13.75 23.7C13.65 23.6 13.5833 23.5 13.55 23.4C13.5167 23.2667 13.5 23.15 13.5 23.05C13.5 23.0167 13.4333 22.9833 13.3 22.95C13.2 22.8833 13.0667 22.85 12.9 22.85C12.7333 22.7833 12.5833 22.7167 12.45 22.65C12.3167 22.5833 12.2167 22.5333 12.15 22.5C12.0833 22.4667 11.9833 22.3833 11.85 22.25C11.75 22.15 11.5833 21.9833 11.35 21.75C11.2167 21.6167 11.0667 21.4833 10.9 21.35C10.7333 21.25 10.5833 21.15 10.45 21.05C10.3833 21.0167 10.3167 20.9667 10.25 20.9C10.15 20.8333 10.0667 20.8333 10 20.9C9.93333 20.9 9.88332 20.9333 9.84999 21C9.78332 21.0333 9.73333 21.0833 9.7 21.15C9.6 21.0833 9.55 21 9.55 20.9C9.48334 20.8667 9.43333 20.7833 9.39999 20.65C9.39999 20.6167 9.39999 20.5667 9.39999 20.5C9.39999 20.4667 9.39999 20.4167 9.39999 20.35C9.26666 20.3167 9.15 20.2667 9.05 20.2C8.95 20.1667 8.86667 20.1 8.8 20C8.7 20 8.61667 19.9667 8.55 19.9C8.45 19.8333 8.35 19.75 8.25 19.65C8.18333 19.65 8.11667 19.6667 8.05 19.7C7.98334 19.7 7.9 19.7 7.8 19.7C7.76667 19.7 7.75 19.6833 7.75 19.65C7.75 19.6167 7.75 19.55 7.75 19.45C7.75 19.4167 7.75 19.3667 7.75 19.3V19.25C7.65 19.3833 7.56667 19.4667 7.5 19.5L7.39999 19.55C7.39999 19.6167 7.41666 19.6833 7.45 19.75C7.48333 19.8167 7.46666 19.85 7.39999 19.85C7.39999 19.8833 7.38332 19.9 7.34999 19.9L7.25 19.85V19.95H7.2V20H7.25C7.21667 20.0333 7.16666 20.0667 7.09999 20.1C7.06666 20.1667 7.11667 20.3167 7.25 20.55C7.38333 20.7833 7.49999 20.95 7.59999 21.05C7.73332 21.2167 7.85 21.3333 7.95 21.4L8.09999 21.6C8.16666 21.7 8.21667 21.8 8.25 21.9C8.28333 21.9333 8.33333 22 8.39999 22.1C8.43333 22.1 8.46667 22.1167 8.5 22.15C8.56667 22.15 8.63333 22.1833 8.7 22.25C8.8 22.35 8.9 22.4333 9 22.5C9.1 22.5667 9.2 22.5667 9.3 22.5C9.36667 22.4 9.45 22.4 9.55 22.5L9.64999 22.6C9.68333 22.6333 9.71667 22.7167 9.75 22.85C9.68333 22.85 9.61667 22.85 9.55 22.85C9.51667 22.8833 9.46666 22.9 9.39999 22.9C9.49999 22.9667 9.58333 23.0333 9.64999 23.1C9.71666 23.1333 9.78332 23.1667 9.84999 23.2C9.91666 23.3333 9.99999 23.45 10.1 23.55C10.2 23.6833 10.3 23.8333 10.4 24C10.5667 24.1667 10.8167 24.4167 11.15 24.75C11.3167 24.9167 11.4667 25.05 11.6 25.15C11.7333 25.2833 11.8167 25.3833 11.85 25.45C11.9833 25.5833 12.0833 25.6833 12.15 25.75C12.2167 25.85 12.2667 25.95 12.3 26.05C12.4333 25.9833 12.55 25.95 12.65 25.95C12.7167 25.9167 12.8167 25.9167 12.95 25.95L12.8 26.1C12.7 26.2 12.65 26.2833 12.65 26.35L12.8 26.4C12.9333 26.4 13.05 26.3833 13.15 26.35C13.15 26.3833 13.15 26.4167 13.15 26.45C13.1167 26.4833 13.0833 26.5333 13.05 26.6C13.0833 26.6 13.1167 26.6 13.15 26.6C13.2167 26.5667 13.2667 26.5333 13.3 26.5C13.3 26.5667 13.3 26.6167 13.3 26.65C13.3667 26.6833 13.4167 26.7333 13.45 26.8C13.5167 26.9667 13.5667 27.0833 13.6 27.15V27.2C13.6333 27.2 13.7 27.1833 13.8 27.15C13.9 27.1167 14 27.1167 14.1 27.15C14.1333 27.1833 14.15 27.2333 14.15 27.3C14.1833 27.3667 14.2 27.4167 14.2 27.45L12.25 30.25C11.65 31.3833 11.1667 32.65 10.8 34.05C10.4333 35.4167 10.2 36.9167 10.1 38.55C9.93332 38.55 9.76666 38.55 9.59999 38.55C9.09999 38.5833 8.44999 38.6 7.64999 38.6C6.88333 38.5667 6.01667 38.5333 5.05 38.5L2.8 39.05C2.63334 39.0833 2.39999 39.0833 2.09999 39.05C1.83332 39.0167 1.51666 38.9333 1.14999 38.8C0.983327 38.7667 0.85 38.7167 0.75 38.65C0.65 38.5833 0.533327 38.5 0.399994 38.4C0.433327 38.6 0.383333 38.75 0.25 38.85C0.15 38.95 0.0666667 39.1 0 39.3C0.533333 39.5 0.916661 39.6833 1.14999 39.85C1.38333 40.0167 1.5 40.1833 1.5 40.35C1.46667 40.3833 1.26666 40.45 0.899994 40.55C0.499994 40.65 0.283333 40.7333 0.25 40.8L0.300003 41.15L0.25 41.55L0.800003 41.45L0.599991 41.75C0.466658 41.8833 0.35 42.0167 0.25 42.15V44.25H2.14999C3.04999 43.9833 3.93334 43.7833 4.8 43.65C5.7 43.5167 6.56666 43.45 7.39999 43.45C7.99999 43.45 8.51666 43.45 8.95 43.45C9.41666 43.45 9.85 43.45 10.25 43.45C10.3833 44.7167 10.6167 46.0167 10.95 47.35C11.2167 48.65 11.5833 49.9833 12.05 51.35C11.95 51.4167 11.8667 51.5167 11.8 51.65C11.7333 51.7833 11.7 51.95 11.7 52.15C11.6667 52.2167 11.65 52.3167 11.65 52.45C11.65 52.5833 11.6333 52.6667 11.6 52.7C11.5333 52.8 11.45 52.8333 11.35 52.8C11.2508 52.7669 11.2008 52.7336 11.2 52.7V52.8C11.1667 52.8333 11.15 52.9333 11.15 53.1C11.0833 53.1667 11.05 53.2167 11.05 53.25C11.0167 53.3167 11 53.3833 11 53.45L10.9 53.4C10.8667 53.3667 10.8333 53.3333 10.8 53.3C10.8 53.3667 10.8 53.4167 10.8 53.45C10.8 53.5167 10.8 53.5667 10.8 53.6C10.7667 53.5333 10.7167 53.5167 10.65 53.55C10.55 53.55 10.4833 53.5667 10.45 53.6C10.5167 53.6667 10.5833 53.75 10.65 53.85C10.6831 53.9492 10.7164 53.9992 10.75 54C10.6497 54 10.5497 54 10.45 54C10.3833 53.9667 10.3167 53.9333 10.25 53.9C10.2167 54 10.1667 54.1 10.1 54.2C10.0667 54.3333 9.99999 54.45 9.89999 54.55C9.89999 54.6167 9.85 54.7 9.75 54.8C9.65 54.9333 9.53333 55.1 9.39999 55.3C9.26666 55.4333 9.15 55.5667 9.05 55.7C8.95 55.8333 8.86667 55.9333 8.8 56C8.7 56.1667 8.63332 56.3 8.59999 56.4C8.53332 56.5333 8.5 56.6667 8.5 56.8C8.4 56.8667 8.33334 56.9167 8.3 56.95C8.23334 56.9833 8.16666 57.05 8.09999 57.15C8.13332 57.15 8.16666 57.1667 8.2 57.2C8.23333 57.2 8.26667 57.2 8.3 57.2C8.3 57.3 8.3 57.3833 8.3 57.45C8.23334 57.5167 8.18333 57.5667 8.14999 57.6C8.14999 57.6333 8.13332 57.65 8.09999 57.65C8.06666 57.65 8.03333 57.6333 8 57.6C7.93333 57.5 7.85 57.4667 7.75 57.5C7.71667 57.6 7.66666 57.6833 7.59999 57.75C7.49999 57.8167 7.43333 57.8667 7.39999 57.9C7.36666 57.9667 7.31667 57.9667 7.25 57.9C7.25 58.0333 7.25 58.1333 7.25 58.2C7.21667 58.2667 7.16666 58.3333 7.09999 58.4C7.09999 58.4333 7.06667 58.5 7 58.6C6.93333 58.7333 6.83333 58.8833 6.7 59.05C6.66666 59.15 6.6 59.3167 6.5 59.55C6.4 59.7833 6.36666 59.95 6.39999 60.05H6.5V60.25H6.64999C6.68333 60.2833 6.68333 60.3333 6.64999 60.4C6.64999 60.4667 6.64999 60.5167 6.64999 60.55L6.7 60.65C6.73333 60.6833 6.79999 60.7667 6.89999 60.9V60.8C6.89999 60.7333 6.89999 60.6833 6.89999 60.65V60.5H6.95C7.01666 60.5 7.06666 60.5 7.09999 60.5C7.13332 60.5 7.18333 60.5 7.25 60.5C7.35 60.3667 7.43333 60.2667 7.5 60.2C7.56667 60.1667 7.61666 60.1167 7.64999 60.05C7.74999 60.0167 7.83333 59.9667 7.89999 59.9C7.96666 59.8333 8.03332 59.7833 8.09999 59.75C8.09999 59.6833 8.09999 59.6167 8.09999 59.55C8.09999 59.5167 8.09999 59.4833 8.09999 59.45C8.13332 59.3167 8.16666 59.2167 8.2 59.15C8.23333 59.1167 8.26667 59.05 8.3 58.95C8.36667 59.0167 8.43333 59.0667 8.5 59.1L8.55 59.2C8.61667 59.2667 8.7 59.2667 8.8 59.2C8.86667 59.1333 8.91666 59.0833 8.95 59.05C9.01666 58.95 9.11667 58.85 9.25 58.75C9.35 58.6167 9.46666 58.4333 9.59999 58.2C9.76666 58.0667 9.9 57.95 10 57.85C10.0667 57.7167 10.15 57.6 10.25 57.5C10.2833 57.4667 10.35 57.4333 10.45 57.4C10.55 57.3333 10.65 57.3 10.75 57.3C10.85 57.2 10.9667 57.15 11.1 57.15C11.2333 57.0833 11.3 57.0167 11.3 56.95C11.3 56.9167 11.2833 56.8167 11.25 56.65C11.25 56.5167 11.2833 56.4 11.35 56.3C11.45 56.2667 11.5333 56.25 11.6 56.25C11.7 56.25 11.8 56.3 11.9 56.4C12.1333 56.2667 12.35 56.1333 12.55 56C12.7167 55.8667 12.9333 55.7 13.2 55.5L13.15 55.35C13.15 55.2167 13.1667 55.1167 13.2 55.05C13.2333 55.0167 13.2667 55 13.3 55C13.3667 55 13.4333 55.0167 13.5 55.05C13.5667 55.15 13.6167 55.25 13.65 55.35C13.6833 55.45 13.7167 55.5667 13.75 55.7L16 55.15L16.25 57.5L20 60.15L21.45 60.9C21.95 61.5 22.4333 61.9167 22.9 62.15C23.3333 62.3833 23.8833 62.6 24.55 62.8V62.85C24.6167 62.9167 24.6833 63.0333 24.75 63.2C24.85 63.3333 24.9 63.4667 24.9 63.6C24.8333 63.7 24.7167 63.7833 24.55 63.85L24.4 63.9V63.95C24.4 64.05 24.4 64.2 24.4 64.4C24.4 64.5 24.4 64.5833 24.4 64.65C24.4 64.7167 24.4 64.7833 24.4 64.85C24.3333 64.85 24.2667 64.85 24.2 64.85C24.2 64.95 24.2333 65 24.3 65C24.3333 65.0667 24.3667 65.1333 24.4 65.2C24.2333 65.2 24.1 65.25 24 65.35C23.9 65.4167 23.8667 65.4667 23.9 65.5C23.9333 65.5 24.0333 65.5333 24.2 65.6C24.3667 65.6667 24.4667 65.7167 24.5 65.75C24.3333 65.85 24.1833 65.9167 24.05 65.95C23.95 66.0167 23.8167 66.05 23.65 66.05C23.7167 66.1833 23.75 66.3333 23.75 66.5C23.7167 66.6667 23.6667 66.85 23.6 67.05C23.6 67.1167 23.5667 67.25 23.5 67.45C23.5 67.65 23.4333 67.9 23.3 68.2C23.2 68.5 23.1333 68.7667 23.1 69C23.0333 69.2333 22.9833 69.4333 22.95 69.6C22.8833 70.1 22.8833 70.5 22.95 70.8C22.8833 70.9333 22.8167 71.05 22.75 71.15C22.7167 71.25 22.6667 71.3833 22.6 71.55C22.7 71.4833 22.7833 71.4333 22.85 71.4C22.9167 71.4 22.9833 71.4 23.05 71.4C23.05 71.5 23.05 71.6 23.05 71.7C23.05 71.7667 23.05 71.85 23.05 71.95C22.9833 71.9833 22.95 72.0167 22.95 72.05C22.8833 72.05 22.8333 72.0333 22.8 72C22.6667 71.9667 22.55 72.0167 22.45 72.15C22.4167 72.3167 22.3833 72.4833 22.35 72.65C22.2833 72.7833 22.2333 72.8833 22.2 72.95C22.1333 73.0167 22.0667 73.05 22 73.05C22.0333 73.15 22.05 73.2667 22.05 73.4C22.0833 73.5 22.0833 73.6167 22.05 73.75C22.05 73.8167 22.05 73.9333 22.05 74.1C22.0167 74.2333 21.9667 74.45 21.9 74.75C21.8333 74.9167 21.8167 75.1667 21.85 75.5C21.8833 75.8667 21.9333 76.1 22 76.2C22.0333 76.2 22.0833 76.1833 22.15 76.15L22.25 76.1C22.2167 76.1333 22.2 76.1667 22.2 76.2L22.25 76.25H22.35L22.4 76.2C22.4333 76.1333 22.4667 76.1 22.5 76.1C22.5333 76.1667 22.5667 76.2333 22.6 76.3C22.6333 76.3667 22.6833 76.4333 22.75 76.5H22.8C22.9 76.5333 23.0667 76.5667 23.3 76.6L23.2 76.55C23.1667 76.5167 23.1167 76.4667 23.05 76.4C22.9833 76.3333 22.95 76.2667 22.95 76.2C22.95 76.1333 22.9833 76.1 23.05 76.1C23.2167 76.0333 23.3667 75.9667 23.5 75.9C23.5667 75.6667 23.6167 75.4833 23.65 75.35C23.6833 75.2167 23.7167 75.1167 23.75 75.05C23.9167 74.8167 24.0833 74.5833 24.25 74.35C24.2167 74.2833 24.1833 74.2 24.15 74.1C24.0833 74.0667 24.0333 74 24 73.9C24 73.7667 24 73.65 24 73.55C24.0333 73.45 24.05 73.3333 24.05 73.2C24.15 73.2 24.2667 73.2167 24.4 73.25C24.5 73.2833 24.5833 73.3 24.65 73.3C24.75 73.3 24.8333 73.2333 24.9 73.1C24.9 72.9667 24.95 72.85 25.05 72.75C25.0833 72.5833 25.1333 72.3833 25.2 72.15C25.2667 71.8833 25.35 71.6333 25.45 71.4C25.5833 70.7333 25.7333 70.25 25.9 69.95C26 69.75 26.1667 69.5 26.4 69.2C26.5667 69.0333 26.7167 68.8833 26.85 68.75C26.95 68.6167 26.9833 68.5 26.95 68.4C26.9167 68.3667 26.8667 68.2667 26.8 68.1C26.7333 67.9333 26.7333 67.7667 26.8 67.6C26.8333 67.5333 26.9167 67.45 27.05 67.35C27.1833 67.2833 27.3667 67.2333 27.6 67.2C27.8333 66.8 28.0333 66.4667 28.2 66.2C28.3667 65.9 28.5667 65.5667 28.8 65.2C28.8333 65.1667 28.7833 65.0667 28.65 64.9C28.55 64.7667 28.5167 64.65 28.55 64.55C28.5833 64.4833 28.65 64.4167 28.75 64.35C28.85 64.2833 28.9667 64.25 29.1 64.25C30.4333 64.6167 31.8 64.9167 33.2 65.15C34.5667 65.35 35.9833 65.45 37.45 65.45L38.25 65.35L38.55 65.7C38.7833 65.9 39.0667 66.05 39.4 66.15C39.7333 66.2833 40.1167 66.3667 40.55 66.4C40.55 66.8 40.5667 67.1167 40.6 67.35L40.65 67.75V72.4L39.45 79.4L41.5 79.95L43.65 80L46.8 79.15L46 75.8L45.8 73.6L45.2 72.55L45.7 71.1V66.05C46.1667 66.1833 46.6667 66.2833 47.2 66.35C47.7 66.4167 48.2333 66.45 48.8 66.45C50.7333 66.45 52.5667 66.1333 54.3 65.5L54.2 65.45C54.2333 65.45 54.25 65.4333 54.25 65.4C54.2833 65.4 54.3 65.3833 54.3 65.35L54.4 65.5C54.7333 65.3667 55.1 65.2 55.5 65C55.9 64.8667 56.2833 64.6833 56.65 64.45C56.5833 64.5167 56.55 64.5667 56.55 64.6C56.55 64.6333 56.5833 64.65 56.65 64.65C56.8833 65.0167 57.0833 65.35 57.25 65.65C57.4167 65.9167 57.65 66.2333 57.95 66.6C58.1167 66.6667 58.2667 66.7333 58.4 66.8C58.5333 66.9 58.6333 66.9833 58.7 67.05C58.8 67.2167 58.8 67.3667 58.7 67.5C58.6667 67.6667 58.6167 67.7833 58.55 67.85C58.5167 67.8833 58.5667 67.9667 58.7 68.1C58.8333 68.2333 58.9667 68.3833 59.1 68.55C59.2667 68.7167 59.4 68.8667 59.5 69C59.5667 69.1333 59.6333 69.25 59.7 69.35C59.7667 69.4833 59.8333 69.6667 59.9 69.9C60 70.1 60.1167 70.35 60.25 70.65C60.3167 70.95 60.4 71.2167 60.5 71.45C60.6 71.6833 60.6667 71.8667 60.7 72C60.7667 72.1333 60.85 72.2667 60.95 72.4C60.9833 72.5 61.0667 72.55 61.2 72.55C61.2333 72.55 61.3 72.55 61.4 72.55C61.5 72.55 61.6 72.5333 61.7 72.5C61.7 72.6333 61.7167 72.75 61.75 72.85C61.75 72.95 61.75 73.0667 61.75 73.2C61.75 73.3 61.7333 73.3667 61.7 73.4C61.6667 73.4667 61.6333 73.5167 61.6 73.55C61.7667 73.7833 61.9167 74.0167 62.05 74.25C62.1167 74.35 62.1833 74.4667 62.25 74.6C62.3167 74.7333 62.3667 74.8833 62.4 75.05C62.5333 75.1167 62.7 75.2 62.9 75.3C62.9333 75.3333 62.95 75.3833 62.95 75.45C62.95 75.4833 62.9333 75.5333 62.9 75.6C62.8333 75.6667 62.7833 75.7 62.75 75.7C62.75 75.7578 62.7333 75.7911 62.7 75.8C62.9345 75.7667 63.0845 75.75 63.15 75.75L63.2 75.7C63.2333 75.7 63.2667 75.6333 63.3 75.5C63.3 75.4333 63.3167 75.3833 63.35 75.35C63.4167 75.3833 63.4667 75.4167 63.5 75.45L63.6 75.5H63.65V75.45H63.7C63.7667 75.45 63.8167 75.45 63.85 75.45C63.9167 75.4167 63.95 75.2333 63.95 74.9C63.95 74.5667 63.9167 74.3 63.85 74.1C63.75 73.8667 63.6833 73.6667 63.65 73.5C63.65 73.3333 63.65 73.2333 63.65 73.2C63.65 73.0667 63.6333 72.95 63.6 72.85C63.6 72.75 63.6 72.6333 63.6 72.5C63.5333 72.5 63.4833 72.4667 63.45 72.4C63.35 72.3333 63.3 72.25 63.3 72.15C63.2333 72.0167 63.1833 71.8667 63.15 71.7C63.05 71.5667 62.9333 71.5167 62.8 71.55C62.7667 71.55 62.7167 71.5167 62.65 71.45C62.6167 71.4167 62.5833 71.4 62.55 71.4C62.55 71.3333 62.5333 71.25 62.5 71.15C62.4667 71.05 62.45 70.9333 62.45 70.8C62.5833 70.8667 62.6833 70.9 62.75 70.9C62.8167 70.9667 62.8833 71.0167 62.95 71.05C62.8833 70.9167 62.8167 70.8 62.75 70.7C62.6833 70.6 62.6167 70.4833 62.55 70.35C62.55 70.2167 62.55 70.05 62.55 69.85C62.55 69.65 62.5167 69.4333 62.45 69.2C62.4167 69.0333 62.3667 68.85 62.3 68.65C62.2333 68.45 62.1333 68.2 62 67.9C61.9333 67.6 61.85 67.35 61.75 67.15C61.6833 66.95 61.6333 66.8 61.6 66.7C61.5333 66.5 61.5 66.3333 61.5 66.2C61.4667 66.0333 61.4667 65.9167 61.5 65.85C61.3667 65.75 61.25 65.6833 61.15 65.65C61.0167 65.5833 60.8667 65.5167 60.7 65.45C60.7333 65.3833 60.8333 65.35 61 65.35C61.1 65.3167 61.2 65.3 61.3 65.3C61.2667 65.2333 61.2167 65.1667 61.15 65.1C61.05 65.0333 60.9333 64.9833 60.8 64.95C60.8333 64.8833 60.85 64.8333 60.85 64.8C60.8833 64.7667 60.9167 64.7167 60.95 64.65C60.85 64.65 60.7667 64.65 60.7 64.65V63.7C60.699 63.7328 60.6323 63.7161 60.5 63.65C60.3667 63.5833 60.25 63.4833 60.15 63.35C60.1167 63.25 60.1333 63.1333 60.2 63C60.2667 62.9 60.3333 62.8333 60.4 62.8C61.4 62.5667 62.2833 62.35 63.05 62.15C63.8167 61.95 64.4833 61.7667 65.05 61.6C65.5167 61.2333 65.9667 60.8 66.4 60.3C66.8667 59.7667 67.3167 59.1833 67.75 58.55L67.95 58.2L68.25 58.15C68.5167 58.0167 68.8667 57.65 69.3 57.05C69.7 56.45 70.15 55.7167 70.65 54.85C70.7167 54.85 70.7833 54.85 70.85 54.85C70.95 54.95 70.9833 55.05 70.95 55.15C70.9167 55.2833 70.9167 55.35 70.95 55.35C71.2167 55.45 71.4667 55.5667 71.7 55.7C71.9 55.8 72.1333 55.9 72.4 56C72.5333 55.9333 72.6667 55.9 72.8 55.9C72.9333 55.8667 73.05 55.8667 73.15 55.9C73.2167 55.9667 73.25 56.0667 73.25 56.2C73.2833 56.3333 73.3 56.4167 73.3 56.45C73.2667 56.5167 73.3167 56.5667 73.45 56.6C73.5833 56.6333 73.7167 56.6833 73.85 56.75C73.9833 56.75 74.1 56.7667 74.2 56.8C74.3333 56.8 74.4333 56.8333 74.5 56.9C74.5667 56.9333 74.65 57 74.75 57.1C74.8833 57.2333 75.0333 57.3667 75.2 57.5C75.3667 57.6667 75.5167 57.8 75.65 57.9C75.75 58.0333 75.8667 58.1167 76 58.15C76.0333 58.1833 76.0833 58.2333 76.15 58.3C76.25 58.3667 76.3333 58.3667 76.4 58.3C76.4333 58.3 76.4833 58.2667 76.55 58.2C76.6167 58.1 76.6667 58.0333 76.7 58C76.8 58.0667 76.8667 58.1333 76.9 58.2C76.9 58.2667 76.95 58.3667 77.05 58.5C77.05 58.5667 77.05 58.65 77.05 58.75C77.1833 58.8167 77.3333 58.8833 77.5 58.95C77.5667 58.9833 77.65 59.0333 77.75 59.1C77.85 59.1667 77.9333 59.25 78 59.35C78.1 59.3167 78.1667 59.2833 78.2 59.25C78.2667 59.25 78.3333 59.25 78.4 59.25C78.4333 59.25 78.4667 59.2667 78.5 59.3C78.5 59.3333 78.5 59.3833 78.5 59.45C78.5 59.4833 78.4833 59.5333 78.45 59.6C78.45 59.6333 78.4667 59.65 78.5 59.65C78.6 59.55 78.65 59.4833 78.65 59.45L78.7 59.35C78.7333 59.2833 78.75 59.2333 78.75 59.2C78.7167 59.1333 78.7 59.0833 78.7 59.05C78.7667 59.05 78.8167 59.0667 78.85 59.1C78.9167 59.1 78.95 59.0833 78.95 59.05V59L79 58.95H78.95L79 58.9C79.0333 58.9 79.0667 58.9 79.1 58.9C79.1333 58.8 79.0833 58.65 78.95 58.45C78.85 58.2167 78.75 58.0667 78.65 58C78.5167 57.9 78.4167 57.8 78.35 57.7C78.2833 57.6333 78.25 57.5667 78.25 57.5C78.1833 57.4333 78.15 57.3667 78.15 57.3C78.0833 57.2333 78.0333 57.15 78 57.05C77.9667 57.0833 77.9167 57.0833 77.85 57.05C77.7833 57.0167 77.7167 56.9833 77.65 56.95C77.5833 56.85 77.5 56.7833 77.4 56.75C77.3333 56.7167 77.2667 56.7333 77.2 56.8C77.1 56.9 77.0167 56.9 76.95 56.8C76.9167 56.7667 76.8833 56.7333 76.85 56.7C76.8167 56.6333 76.8 56.55 76.8 56.45C76.8333 56.45 76.8667 56.45 76.9 56.45C76.9667 56.45 77.0333 56.4333 77.1 56.4C77.0333 56.3667 76.9667 56.3167 76.9 56.25C76.8333 56.25 76.75 56.2167 76.65 56.15C76.5833 56.0833 76.5167 56 76.45 55.9C76.3833 55.7667 76.3167 55.6167 76.25 55.45C76.1833 55.3833 76.0833 55.2833 75.95 55.15C75.8167 55.05 75.6667 54.9333 75.5 54.8C75.3333 54.6333 75.2 54.5167 75.1 54.45C74.9667 54.35 74.9 54.2833 74.9 54.25C74.8 54.15 74.7167 54.0333 74.65 53.9C74.5833 53.8333 74.55 53.7833 74.55 53.75C74.4167 53.75 74.3 53.75 74.2 53.75C74.1 53.75 74 53.7833 73.9 53.85C73.8667 53.7833 73.9 53.7167 74 53.65C74.1 53.55 74.15 53.4833 74.15 53.45C74.1833 53.4167 74.15 53.4 74.05 53.4C73.95 53.4 73.85 53.4167 73.75 53.45C73.75 53.4167 73.7667 53.3833 73.8 53.35C73.8333 53.2833 73.85 53.2333 73.85 53.2C73.8167 53.2333 73.7667 53.25 73.7 53.25L73.65 53.3C73.6167 53.2333 73.5833 53.1833 73.55 53.15C73.5167 53.1167 73.5 53.0667 73.5 53C73.4333 52.9 73.3833 52.8167 73.35 52.75V52.7C73.3167 52.7333 73.25 52.7667 73.15 52.8C73.05 52.8333 72.9667 52.8 72.9 52.7C72.8333 52.6667 72.8167 52.6 72.85 52.5C72.85 52.3667 72.8333 52.2833 72.8 52.25C72.7667 52.0833 72.7167 51.9333 72.65 51.8C72.5833 51.7 72.5 51.6333 72.4 51.6C73 50.3333 73.4833 49.25 73.85 48.35C74.25 47.45 74.4667 46.9667 74.5 46.9C74.4333 46.8333 74.3833 46.8 74.35 46.8C74.3167 46.7667 74.2667 46.75 74.2 46.75C74.3667 46.3833 74.5667 45.8833 74.8 45.25C75.0333 44.65 75.25 44.1333 75.45 43.7C77.5833 43.7333 79.4833 43.75 81.15 43.75C82.8167 43.75 84.2167 43.75 85.35 43.75L85.1 38.5L83.65 38C83.5167 38.0333 83.2333 38.0833 82.8 38.15C82.4 38.1833 81.85 38.2167 81.15 38.25C80.4833 38.2833 79.95 38.3333 79.55 38.4C79.1167 38.4333 78.8333 38.4833 78.7 38.55C78.5667 38.5167 78.4333 38.4833 78.3 38.45C78.1667 38.4167 78.0167 38.4 77.85 38.4C77.5833 38.4 77.3 38.4167 77 38.45C76.6667 38.4833 76.3 38.5167 75.9 38.55C75.8667 37.6167 75.7167 36.55 75.45 35.35C75.1167 34.2167 74.5833 32.95 73.85 31.55C73.3833 30.75 72.9667 30.0333 72.6 29.4L72.7 29.25C72.7333 29.1833 72.7667 29.1167 72.8 29.05C72.8333 29.0833 72.8667 29.1 72.9 29.1C72.9 29.1333 72.9167 29.1833 72.95 29.25C72.95 29.15 72.95 29.0833 72.95 29.05C72.95 29.0167 72.95 28.9667 72.95 28.9C73.05 28.9667 73.1333 29 73.2 29C73.3 29 73.35 28.9833 73.35 28.95C73.3167 28.9167 73.2833 28.85 73.25 28.75C73.1833 28.6167 73.15 28.5333 73.15 28.5C73.25 28.5333 73.3333 28.55 73.4 28.55C73.4667 28.5833 73.55 28.6167 73.65 28.65C73.7167 28.5833 73.7833 28.5 73.85 28.4C73.9167 28.3333 73.9833 28.2667 74.05 28.2C74.15 28.1333 74.2667 28.05 74.4 27.95C74.5 27.85 74.6333 27.7167 74.8 27.55C74.9667 27.4167 75.1 27.3 75.2 27.2C75.3333 27.0667 75.4333 26.9667 75.5 26.9C75.6667 26.8 75.8 26.6833 75.9 26.55C75.9667 26.4167 76.0167 26.3 76.05 26.2C76.1833 26.1333 76.2833 26.0833 76.35 26.05C76.4167 26.0167 76.4833 25.9833 76.55 25.95C76.5167 25.9167 76.4667 25.9 76.4 25.9C76.3667 25.8667 76.3167 25.8167 76.25 25.75C76.3167 25.6833 76.3667 25.6333 76.4 25.6C76.4667 25.5333 76.5 25.4833 76.5 25.45L76.6 25.5C76.6333 25.5 76.6667 25.5 76.7 25.5C76.7667 25.6 76.8333 25.6167 76.9 25.55C77 25.5167 77.1 25.45 77.2 25.35C77.2667 25.2833 77.3333 25.25 77.4 25.25C77.4333 25.2167 77.4667 25.2 77.5 25.2C77.5667 25.1333 77.6 25.0667 77.6 25C77.6667 24.9667 77.7167 24.9 77.75 24.8C77.7833 24.7667 77.85 24.7167 77.95 24.65C78.05 24.55 78.1667 24.45 78.3 24.35C78.4 24.25 78.5167 24.0833 78.65 23.85C78.7833 23.6167 78.85 23.4667 78.85 23.4C78.85 23.3667 78.8167 23.3333 78.75 23.3H78.8C78.8 23.2667 78.8 23.2333 78.8 23.2C78.7667 23.1667 78.7333 23.15 78.7 23.15H78.55C78.55 23.0833 78.5667 23.0333 78.6 23L78.65 22.85L78.6 22.75C78.5667 22.6833 78.5 22.6 78.4 22.5V22.6C78.4 22.6333 78.4 22.6833 78.4 22.75C78.4 22.8167 78.3833 22.85 78.35 22.85L78.3 22.9C78.2333 22.9 78.1833 22.8833 78.15 22.85C78.0833 22.85 78.0167 22.85 77.95 22.85C77.85 22.9167 77.75 22.9833 77.65 23.05C77.5833 23.1167 77.5 23.1667 77.4 23.2C77.3333 23.2333 77.2667 23.2667 77.2 23.3C77.1 23.3333 77.0167 23.3833 76.95 23.45V23.55C76.9167 23.6167 76.9 23.6833 76.9 23.75C76.8 23.85 76.7333 23.9167 76.7 23.95C76.7 24.05 76.65 24.1333 76.55 24.2C76.5167 24.1333 76.4833 24.0667 76.45 24C76.3833 23.9333 76.35 23.8833 76.35 23.85C76.2833 23.8167 76.2 23.8333 76.1 23.9C76.0333 23.9333 75.9333 23.9667 75.8 24C75.7333 24.0667 75.6333 24.15 75.5 24.25C75.3667 24.3833 75.2167 24.5167 75.05 24.65C74.8833 24.8167 74.7167 24.95 74.55 25.05C74.45 25.1833 74.3333 25.2667 74.2 25.3C74.2 25.3333 74.1333 25.35 74 25.35C73.9 25.3833 73.7833 25.4167 73.65 25.45C73.5167 25.4833 73.4 25.5167 73.3 25.55C73.1667 25.5833 73.0833 25.6333 73.05 25.7C73.05 25.7333 73.0333 25.8333 73 26C72.9667 26.1333 72.9 26.2167 72.8 26.25C72.7333 26.2833 72.65 26.3 72.55 26.3C72.45 26.3 72.35 26.2667 72.25 26.2C72.0167 26.2667 71.8167 26.3333 71.65 26.4C71.4833 26.5 71.3167 26.5833 71.15 26.65C70.35 25.1833 69.6667 24 69.1 23.1C68.5333 22.2333 67.85 21.5 67.05 20.9L66.6 20.85C66.3 20.7833 65.6167 20.6333 64.55 20.4V19.7C62.9833 19.4 61.95 19.15 61.45 18.95C60.95 18.75 60.7167 18.6 60.75 18.5L60.8 18.35L60.55 18.25C60.6167 18.25 60.65 18.2333 60.65 18.2H60.7V17.3C60.7667 17.3 60.85 17.3 60.95 17.3C60.9167 17.2333 60.8833 17.1833 60.85 17.15C60.85 17.1167 60.8333 17.05 60.8 16.95C60.9333 16.95 61.05 16.9167 61.15 16.85C61.2167 16.7833 61.2667 16.7167 61.3 16.65C61.2 16.65 61.1 16.6333 61 16.6C60.8333 16.6 60.7333 16.5667 60.7 16.5C60.8667 16.4333 61.0167 16.3667 61.15 16.3C61.25 16.2667 61.3667 16.2 61.5 16.1C61.4667 16.0333 61.4667 15.9167 61.5 15.75C61.5 15.5833 61.5333 15.4 61.6 15.2C61.6333 15.1333 61.6833 15 61.75 14.8C61.85 14.6 61.9333 14.3333 62 14C62.1333 13.7333 62.2333 13.5 62.3 13.3C62.3667 13.1 62.4167 12.9167 62.45 12.75C62.5167 12.4833 62.55 12.2667 62.55 12.1C62.55 11.9 62.55 11.7333 62.55 11.6C62.6167 11.4667 62.6833 11.35 62.75 11.25C62.8167 11.15 62.8833 11.0333 62.95 10.9C62.8833 10.9333 62.8167 10.9833 62.75 11.05C62.6833 11.05 62.5833 11.0833 62.45 11.15C62.45 11.0167 62.4667 10.9 62.5 10.8C62.5333 10.7 62.55 10.6167 62.55 10.55C62.5833 10.5167 62.6167 10.5 62.65 10.5C62.7167 10.4333 62.7667 10.4 62.8 10.4C62.9333 10.4333 63.05 10.3833 63.15 10.25C63.1833 10.0833 63.2333 9.93334 63.3 9.8C63.3 9.7 63.35 9.61667 63.45 9.55C63.4833 9.48334 63.5333 9.43333 63.6 9.39999C63.6 9.26666 63.6 9.16667 63.6 9.10001C63.6333 9.00001 63.65 8.88333 63.65 8.75C63.65 8.71667 63.65 8.61666 63.65 8.45C63.6833 8.28333 63.75 8.08334 63.85 7.85001C63.9167 7.65001 63.95 7.38334 63.95 7.05C63.95 6.71667 63.9167 6.53333 63.85 6.5C63.8167 6.5 63.7667 6.5 63.7 6.5ZM59.6 23.75L60.45 25.45L64 26.05L64.2 26.35C66.1667 28.4833 67.6667 30.5333 68.7 32.5C69.7333 34.4333 70.3833 36.4333 70.65 38.5L57.65 38.75C57.1167 38.95 56.5333 39.1 55.9 39.2C55.3 39.3 54.6333 39.35 53.9 39.35C52.9333 39.35 52.1333 39.3 51.5 39.2C50.8333 39.1 50.3833 38.95 50.15 38.75C49.6167 38.75 48.95 38.75 48.15 38.75C47.4167 38.75 46.55 38.8 45.55 38.9L45.7 19.25C45.8 19.25 45.9333 19.25 46.1 19.25C46.2333 19.25 46.3667 19.2333 46.5 19.2C48.2 19.2333 49.9167 19.5667 51.65 20.2C53.35 20.8667 55.0333 21.8167 56.7 23.05L59.6 23.75ZM70.45 43.25C70.2167 44.15 69.9 45.05 69.5 45.95C69.0667 46.85 68.6167 47.7833 68.15 48.75V48.8C67.9833 49.1667 67.8 49.5333 67.6 49.9C67.4333 50.2667 67.2667 50.65 67.1 51.05L66.95 51.35L66.65 51.5C66.2167 51.7 65.7833 51.9833 65.35 52.35C64.8833 52.7167 64.4 53.1667 63.9 53.7C63.2667 54.3333 62.8333 54.8167 62.6 55.15C62.3667 55.5167 62.25 55.7667 62.25 55.9L62.05 56.3L61.75 56.45C60.65 57.15 59.4167 57.8333 58.05 58.5C56.6833 59.1667 55.1667 59.8333 53.5 60.5V60.7H52.7C52.2667 60.9333 51.8333 61.1167 51.4 61.25C51 61.4167 50.7667 61.5 50.7 61.5L50.25 61.05C49.55 61.4167 48.8333 61.7 48.1 61.9C47.3333 62.1 46.5333 62.2333 45.7 62.3L45.35 43.6C46.85 43.6 48.0667 43.6 49 43.6C49.9 43.6 50.55 43.6 50.95 43.6C52.1167 43.6 53.1167 43.6 53.95 43.6C54.75 43.6333 55.3667 43.6833 55.8 43.75L59.35 43C59.5167 43 59.6167 43.05 59.65 43.15C59.6833 43.2833 59.6167 43.4667 59.45 43.7C60.1167 43.7 60.65 43.65 61.05 43.55C61.4833 43.4833 61.7667 43.4 61.9 43.3L63.15 43.55L63.65 43.3L66 43.35C66.8333 43.3833 67.4833 43.4333 67.95 43.5C68.3833 43.5333 68.6333 43.55 68.7 43.55C68.7667 43.55 68.9333 43.5333 69.2 43.5C69.5333 43.4333 69.95 43.35 70.45 43.25ZM22.25 27.6L22.4 27.45L22.65 27.35C23.65 26.9167 24.5167 26.55 25.25 26.25C25.95 25.9833 26.5167 25.7333 26.95 25.5L27.25 25.35L27.6 25.45L28.1 24.8C29.0333 23.6 30.1333 22.7 31.4 22.1C32.6667 21.4667 34.0833 21.15 35.65 21.15C35.75 21.1167 35.85 21.1167 35.95 21.15C36.05 21.15 36.15 21.1833 36.25 21.25C37.75 20.5833 39.0333 20.25 40.1 20.25C40.1667 20.25 40.25 20.25 40.35 20.25C40.45 20.25 40.55 20.25 40.65 20.25L40.55 39.05C40.3833 39.05 40.2333 39.05 40.1 39.05C39.2667 39.05 38.2 39.0167 36.9 38.95C35.5667 38.9167 33.9833 38.85 32.15 38.75C30.35 38.65 28.7667 38.5667 27.4 38.5C26.0333 38.4333 24.9167 38.4 24.05 38.4C23.3833 38.4 22.7167 38.4167 22.05 38.45C21.4167 38.4833 20.8167 38.5167 20.25 38.55C20.15 38.7167 20.0667 38.8833 20 39.05C19.9333 39.1833 19.8833 39.3167 19.85 39.45L16.8 39.1C16.8 38.9333 16.7833 38.75 16.75 38.55C16.7167 38.3167 16.7 38.1167 16.7 37.95C16.7 37.25 16.8167 36.5167 17.05 35.75C17.25 35.0167 17.5667 34.25 18 33.45C18.3667 32.7833 18.7667 32.1833 19.2 31.65C19.6667 31.15 20.15 30.7167 20.65 30.35C20.8833 29.8167 21.1333 29.3333 21.4 28.9C21.6333 28.4333 21.9167 28 22.25 27.6ZM36.1 43.7C36.7333 43.7 37.4333 43.7 38.2 43.7C38.9667 43.7 39.8 43.7 40.7 43.7L41.35 45.5L40.65 46.5V55.7L41.5 56.6L40.65 58.3C40.65 59.1 40.6333 59.85 40.6 60.55C40.5667 61.25 40.55 61.6167 40.55 61.65C40.4833 61.65 39.9167 61.5167 38.85 61.25C37.7167 60.9833 36.4167 60.6167 34.95 60.15C34.6833 60.15 34.2167 60.1833 33.55 60.25C32.8833 60.3167 32.2167 60.3833 31.55 60.45C30.9167 60.4833 30.45 60.5 30.15 60.5L31.25 59.35C31.1833 59.3167 31.1 59.2833 31 59.25C30.9333 59.25 30.8667 59.25 30.8 59.25C30.6667 59.2167 30.55 59.1833 30.45 59.15C30.3167 59.1167 30.2167 59.1 30.15 59.1C29.05 59.1 27.7833 58.8667 26.35 58.4C24.95 57.9333 23.55 57.1833 22.15 56.15C20.75 55.1167 19.5333 53.7667 18.5 52.1C17.5333 50.4667 16.8667 48.9667 16.5 47.6C16.1667 46.2 15.95 44.95 15.85 43.85H16.4C16.5333 43.7833 16.8167 43.75 17.25 43.75C17.7167 43.7167 18.2833 43.7 18.95 43.7C19.95 43.6667 20.8833 43.6333 21.75 43.6C22.65 43.6 23.1333 43.4667 23.2 43.2C23.2667 43.0667 23.4 42.9667 23.6 42.9C23.8 42.8333 24.05 42.8 24.35 42.8C24.65 42.8 25.0667 42.8167 25.6 42.85C26.1 42.8833 26.6833 42.95 27.35 43.05L25.45 43.7L29.8 43.45C30.5333 43.5167 31.4167 43.5667 32.45 43.6C33.5167 43.6667 34.7333 43.7 36.1 43.7Z" fill="#1A202C"/>
</svg>
