<svg width="95" height="44" viewBox="0 0 95 44" fill="none" xmlns="http://www.w3.org/2000/svg">
<path d="M63.4 3.64999C63.0333 3.51666 62.65 3.36666 62.25 3.2C61.85 3.06666 61.4167 2.9 60.95 2.7C59.3833 2.13333 57.7667 1.69999 56.1 1.39999C54.4333 1.09999 52.7167 0.966667 50.95 1H50.75C50.2167 0.7 49.4833 0.483339 48.55 0.350006C47.6167 0.216673 46.75 0.11667 45.95 0.0500031C45.1833 0.0166697 44.7667 0 44.7 0C44.2333 0 43.7 0.0166697 43.1 0.0500031C42.4667 0.150003 41.75 0.250006 40.95 0.350006C40.35 0.250006 39.7833 0.150003 39.25 0.0500031C38.7167 0.0166697 38.15 0 37.55 0C36.7833 0 36 0.0499939 35.2 0.149994C34.4333 0.283327 33.65 0.466664 32.85 0.699997C32.2833 0.699997 31.6 0.750006 30.8 0.850006C29.9667 0.916673 29.1333 1.03333 28.3 1.2C27.4333 1.36666 26.7 1.55 26.1 1.75C26.0667 1.75 25.3 2.06666 23.8 2.7C22.3667 3.33333 20.45 4.28334 18.05 5.55L17.7 6.10001L17.35 5.89999L12.9 7.35001L12.85 7.64999L12.5 7.39999L12.1 7.55C9.96667 8.55 8.38333 9.3 7.35 9.8C6.31667 10.3 5.66667 10.6667 5.4 10.9L3.75 11.45L0 11.2L0.299999 14.1L0.75 16.05L2.15 19.75L4.05 17.9L5 17.35L5.15 17.1L5.45 17.15L13.6 13.8C14.1333 14.6 14.6167 15.2667 15.05 15.8C15.5167 16.3333 16.0333 16.8167 16.6 17.25C16.1 17.6167 15.6333 18.0333 15.2 18.5C14.7333 18.9667 14.2667 19.4833 13.8 20.05C13.4 20.6167 12.6 21.6667 11.4 23.2L11 23.65L11.45 24.1C11.5833 24.2 11.7 24.2833 11.8 24.35C11.9 24.4167 12 24.5 12.1 24.6C12.3333 24.7667 12.5833 24.85 12.85 24.85V25.9L13.95 26.1L14.15 25.8C14.5167 25.4 14.9167 24.9167 15.35 24.35C15.7833 23.7833 16.3 23.1167 16.9 22.35C17.0667 22.2167 17.2667 22.0333 17.5 21.8C17.7333 21.6 17.9833 21.3333 18.25 21C18.2833 20.9667 18.4 20.85 18.6 20.65C18.7333 20.45 18.9667 20.15 19.3 19.75L19.35 20.15L20.2 21.8C20.3333 22.1 20.6667 22.5167 21.2 23.05C21.7 23.5833 22.35 24.2167 23.15 24.95C22.75 25.4167 22.2667 26.0667 21.7 26.9C21.1333 27.7333 20.4667 28.7333 19.7 29.9C19.2 30.6 18.8 31.2167 18.5 31.75C18.2 32.2833 17.95 32.7167 17.75 33.05L16.9 34.85L18.75 34.05H18.8C18.8333 34.0167 18.8667 33.9833 18.9 33.95C18.9333 34.55 18.9833 34.9667 19.05 35.2C19.1167 35.4 19.2 35.55 19.3 35.65L19.95 36.1L20.35 35.5C21.1167 34.4333 21.65 33.7167 21.95 33.35C22.2167 32.95 22.3667 32.7333 22.4 32.7C22.7667 32.1333 23.05 31.6 23.25 31.1C23.4833 30.6 23.6 30.1167 23.6 29.65L24.75 28.85L24.85 28.75C24.9167 28.6833 25.0333 28.5 25.2 28.2C25.3667 27.9667 25.6167 27.6167 25.95 27.15C26.1833 27.3167 26.4333 27.5 26.7 27.7C27 27.9 27.2833 28.1 27.55 28.3C27.9167 28.9 28.3833 29.4667 28.95 30C29.4833 30.5 30.15 30.9833 30.95 31.45C30.7833 31.95 30.65 32.3167 30.55 32.55C30.45 32.75 30.35 32.9 30.25 33V33.15L30.2 33.2C30.1667 33.5667 30.1167 33.8667 30.05 34.1C29.9833 34.4 29.9 34.65 29.8 34.85C29.7333 35.1167 29.6333 35.3667 29.5 35.6C29.4 35.8333 29.3167 36.05 29.25 36.25L29.15 36.2L28.05 39.8L28.6 40.05C28.6667 40.0833 28.7667 40.1333 28.9 40.2C29.0333 40.3 29.2 40.3833 29.4 40.45C29.6 40.6167 29.7833 40.7333 29.95 40.8C30.1167 40.9 30.25 40.9667 30.35 41L30.5 41.1H30.65C31.0167 41.1 31.3333 40.8833 31.6 40.45C31.8667 40.0167 32.2 39.2333 32.6 38.1C32.8333 37.2667 32.9833 36.6 33.05 36.1C33.1167 35.6 33.0667 35.2 32.9 34.9L33.3 34.45L33.55 34.35C33.7833 33.8167 33.95 33.4333 34.05 33.2L34.2 32.9C35 33.1667 35.8167 33.3667 36.65 33.5C37.45 33.6667 38.25 33.75 39.05 33.75C39.2167 33.75 39.3667 33.75 39.5 33.75C39.6333 33.75 39.7833 33.7667 39.95 33.8C39.9167 34.0333 39.8833 34.2833 39.85 34.55C39.85 34.85 39.85 35.1333 39.85 35.4C39.8833 35.7333 39.95 36.1667 40.05 36.7C40.0833 37.2667 40.15 37.95 40.25 38.75L39.85 39.45V39.65L39.9 40C39.9333 40.2333 39.95 40.6667 39.95 41.3C39.95 41.7333 39.9833 42.1 40.05 42.4C40.0833 42.7 40.15 42.9667 40.25 43.2L40.4 43.6H41C41.2333 43.6 41.5167 43.55 41.85 43.45C42.1833 43.35 42.5667 43.2167 43 43.05L43.4 42.85V42.45C43.4333 42.1833 43.45 41.9333 43.45 41.7C43.45 41.5 43.45 41.3 43.45 41.1C43.45 40.9 43.45 40.7167 43.45 40.55C43.45 40.3833 43.4333 40.2167 43.4 40.05L43.3 39.4H43.15C43.2833 38.8 43.3833 38.15 43.45 37.45C43.55 36.75 43.6 36.0167 43.6 35.25C43.6 35.2167 43.6 35.15 43.6 35.05C43.6 35.0167 43.6 34.95 43.6 34.85C43.7333 34.8167 43.8833 34.7833 44.05 34.75C44.2167 34.7167 44.3667 34.6667 44.5 34.6H45.9L46.5 35.25L46.9 35.2C47.5 35.0667 48.1333 34.9167 48.8 34.75C49.5 34.6167 50.1833 34.4833 50.85 34.35L52 34.1C52 34.3333 52.0333 34.5167 52.1 34.65C52.1667 34.7833 52.2333 34.9 52.3 35C52.1667 35.7667 52.1333 36.6833 52.2 37.75C52.2667 38.8167 52.4 40.05 52.6 41.45C52.7667 42.0833 53.0167 42.5 53.35 42.7C53.6833 42.8667 53.9667 42.95 54.2 42.95C54.3 42.95 54.3833 42.95 54.45 42.95C54.55 42.8833 54.7167 42.8167 54.95 42.75C55.15 42.7167 55.5167 42.5833 56.05 42.35L56.75 42.05L56.35 41.45C56.35 41.3833 56.3333 41.3167 56.3 41.25C56.2667 41.15 56.2333 41.0167 56.2 40.85C56.2667 40.75 56.3167 40.65 56.35 40.55C56.4167 40.3833 56.45 40.2167 56.45 40.05L56.5 40L56.45 39.9V39.85C56.45 39.8167 56.45 39.7833 56.45 39.75V39.45C56.3833 39.4167 56.3167 39.25 56.25 38.95C56.15 38.65 56.05 38.1667 55.95 37.5C55.9167 37.0333 55.85 36.6333 55.75 36.3C55.65 35.9667 55.5333 35.6667 55.4 35.4C55.4 35.1667 55.4 34.8833 55.4 34.55C55.4 34.25 55.3667 33.9 55.3 33.5C56.5 33.2667 57.55 33.0333 58.45 32.8C59.3833 32.5667 60.1833 32.35 60.85 32.15C60.8833 32.1833 60.9167 32.2167 60.95 32.25V32.3C61.25 32.9 61.4667 33.3667 61.6 33.7C61.7667 34 61.85 34.2 61.85 34.3L61.95 34.45L62 34.5C62.1667 34.7333 62.3333 34.9667 62.5 35.2C62.6333 35.4333 62.7667 35.6667 62.9 35.9C63.0333 36.1667 63.15 36.4333 63.25 36.7C63.3833 36.9667 63.4833 37.1833 63.55 37.35L63.45 37.4L65.3 40.6L65.95 40.15C66.05 40.0833 66.15 40.0167 66.25 39.95C66.3833 39.8833 66.55 39.8167 66.75 39.75C66.95 39.6167 67.1333 39.5167 67.3 39.45C67.4333 39.35 67.55 39.25 67.65 39.15C68.05 38.8833 68.1667 38.45 68 37.85C67.8333 37.2833 67.4667 36.5167 66.9 35.55C66.5 34.8167 66.1333 34.2833 65.8 33.95C65.5 33.5833 65.2 33.35 64.9 33.25L64.75 32.6L64.85 32.35L64.75 32.05C64.6167 31.75 64.4833 31.4667 64.35 31.2C64.2167 30.9 64.0833 30.6 63.95 30.3L64.85 29.35L68.05 26.95L68.35 26.3L69.5 26C69.6667 26.5333 69.85 27.0833 70.05 27.65C70.2833 28.1833 70.4833 28.6833 70.65 29.15C70.95 29.95 71.25 30.7167 71.55 31.45C71.85 32.1833 72.1667 32.9167 72.5 33.65L72.6 33.8L73.6 34.45L73.95 33.6C73.95 33.5 73.9667 33.4333 74 33.4C74.1 33.3333 74.2167 33.2833 74.35 33.25H74.45L75 32.9C75.1 32.8667 75.2 32.8 75.3 32.7C75.3667 32.6 75.45 32.5167 75.55 32.45L75.7 32.15L75.6 31.8C75.3333 31 75.1 30.3167 74.9 29.75C74.7 29.15 74.55 28.6667 74.45 28.3C74.2167 27.5667 73.9667 26.95 73.7 26.45C73.4333 25.9167 73.15 25.4667 72.85 25.1L72.9 24.3C72.8333 24.1667 72.7833 24.05 72.75 23.95C72.7167 23.9167 72.7167 23.9 72.75 23.9L74.6 22.3C74.8333 22.5 75.05 22.6833 75.25 22.85C75.4833 23.0167 75.7167 23.1833 75.95 23.35C77.05 24.1833 78.1833 24.8 79.35 25.2C80.45 25.6333 81.5833 25.8333 82.75 25.8C83.0833 25.8 83.4333 25.7833 83.8 25.75C84.1 25.7167 84.4 25.6833 84.7 25.65C84.8 25.65 84.8833 25.6333 84.95 25.6C85.0167 25.5667 85.0833 25.5 85.15 25.4C85.2167 25.4 85.3 25.4167 85.4 25.45C85.4667 25.4833 85.5167 25.5 85.55 25.5C86.2833 25.4667 87.0167 25.2 87.75 24.7C88.5167 24.2 89.1667 23.7167 89.7 23.25C89.8667 23.1167 90 23 90.1 22.9C90.2333 22.8 90.3167 22.7333 90.35 22.7L90.5 22.65L90.6 22.5C90.7333 22.3 90.9667 22.0333 91.3 21.7C91.6333 21.3667 91.8667 21.15 92 21.05L92.4 20.7L92.25 20.3C92.3167 20.2333 92.3167 20.15 92.25 20.05L93.7 16.45L93.85 15.4C93.9167 15.2333 93.9667 14.9833 94 14.65C94.0333 14.2833 94.0333 13.8167 94 13.25C94 13.15 94 13.05 94 12.95C94 12.8833 94 12.8 94 12.7C94.0667 12.5667 94.0833 12.3833 94.05 12.15C94.0167 11.8833 93.9833 11.5833 93.95 11.25C93.95 11.1167 93.9167 10.9667 93.85 10.8C93.8167 10.6333 93.7667 10.4667 93.7 10.3C93.7 10.2667 93.6833 10.2167 93.65 10.15C93.6167 10.0833 93.6 10.0333 93.6 10V9.64999L93.55 9.5C93.25 8.93333 93.0333 8.5 92.9 8.2C92.7667 7.93333 92.7 7.78333 92.7 7.75L92.6 7.7C92.2667 7.1 91.95 6.66666 91.65 6.39999C91.2833 6.09999 90.9333 5.95 90.6 5.95C90.5 5.95 90.4167 5.95 90.35 5.95L90.25 5.89999C89.9833 5.53333 89.6 5.23333 89.1 5C88.6 4.76667 87.9667 4.58333 87.2 4.45L86.65 4.35001L86.6 4.64999C86.4667 4.54999 86.3667 4.48333 86.3 4.45C86.1667 4.38333 86.05 4.35001 85.95 4.35001C85.0167 4.41667 84.15 4.63333 83.35 5C82.55 5.36667 81.8 5.90001 81.1 6.60001L80.8 6.85001V7.14999C80.8 7.21666 80.8 7.28334 80.8 7.35001V7.5C80.7 7.63333 80.6 7.76666 80.5 7.89999C80.4 8.06666 80.3167 8.25 80.25 8.45C80.1167 8.68333 79.9833 8.95 79.85 9.25C79.75 9.51667 79.7 9.81666 79.7 10.15C79.7 10.25 79.7167 10.5333 79.75 11C79.8167 11.4667 79.9667 12.25 80.2 13.35L80.25 13.5L80.35 13.65C80.4833 13.8167 80.6167 13.9667 80.75 14.1C80.95 14.2333 81.1667 14.35 81.4 14.45L81.7 14.65L82 14.4L82.25 14.3C82.45 14.3 82.7833 14.25 83.25 14.15C83.6833 14.05 84.05 13.8667 84.35 13.6C84.5833 13.3333 84.7667 13.0167 84.9 12.65C84.9 12.55 84.9167 12.4667 84.95 12.4C84.95 12.3 84.9333 12.2 84.9 12.1V11.8L84.75 11.65C84.7167 11.6167 84.7 11.5833 84.7 11.55C84.7 11.5167 84.7 11.4833 84.7 11.45C84.7 11.35 84.7333 11.1833 84.8 10.95C84.8667 10.75 84.95 10.4833 85.05 10.15C85.3833 9.81666 85.7167 9.64999 86.05 9.64999C86.2833 9.68333 86.5167 9.75001 86.75 9.85001C86.9833 9.88334 87.1833 9.95 87.35 10.05C87.5833 10.2167 87.7833 10.3833 87.95 10.55C88.0833 10.7167 88.1833 10.8833 88.25 11.05L88.35 11.25L88.5 11.45H88.6C88.6667 11.4833 88.7167 11.5 88.75 11.5C88.75 11.5667 88.7667 11.6 88.8 11.6V11.65C88.8 11.75 88.8167 11.8333 88.85 11.9C88.8833 11.9667 88.9 12.0333 88.9 12.1V12.25L89.2 12.7C89.1667 12.8 89.15 12.8833 89.15 12.95C89.0833 13.0167 89.05 13.1 89.05 13.2C89.05 13.2667 89.05 13.3333 89.05 13.4C89.05 13.5333 89.05 13.65 89.05 13.75C89.05 13.85 89.0167 13.9667 88.95 14.1C88.7833 14.3333 88.6667 14.5667 88.6 14.8C88.5333 15 88.5 15.2 88.5 15.4H88.45C88.25 15.6 88.1167 15.8333 88.05 16.1C87.95 16.3333 87.8667 16.5667 87.8 16.8C87.7333 16.8667 87.6333 16.95 87.5 17.05C87.3667 17.1167 87.2167 17.2333 87.05 17.4C86.75 17.7333 86.3833 18.0667 85.95 18.4C85.55 18.7667 85.15 19.0167 84.75 19.15L84.7 19.25L84.6 19.35C84.5333 19.3833 84.4333 19.4167 84.3 19.45C84.2 19.4833 84.0833 19.5 83.95 19.5C83.85 19.5 83.75 19.4833 83.65 19.45C83.5833 19.45 83.5167 19.45 83.45 19.45H83.3C83.2667 19.45 82.7833 19.3167 81.85 19.05C80.8833 18.75 79.7167 18.15 78.35 17.25L78.65 16.4H77.95C77.55 15.6667 77.0167 14.9 76.35 14.1C75.6833 13.2667 75.05 12.5333 74.45 11.9C73.85 11.2667 73.45 10.85 73.25 10.65C73.0833 10.3167 72.9167 9.98333 72.75 9.64999L71 11.6L71.7 8.7L69.15 7.14999C68.9833 7.01666 68.8333 6.86666 68.7 6.7C68.6 6.53333 68.4833 6.4 68.35 6.3C68.0167 5.9 67.6833 5.58334 67.35 5.35001C67.0833 5.11667 66.65 4.88333 66.05 4.64999C65.4833 4.41666 64.6 4.08333 63.4 3.64999ZM58.65 8.60001C59.45 8.63334 60.5667 8.96667 62 9.60001C63.4 10.2333 64.8333 11.1167 66.3 12.25C67.7333 13.35 68.95 14.5833 69.95 15.95L69.7 16.95L70.05 17.35C69.9167 17.4167 69.8 17.4833 69.7 17.55C69.5667 17.65 69.4667 17.7 69.4 17.7L69.15 17.85L69.05 18.05C68.8833 18.4167 68.5667 18.8667 68.1 19.4C67.6 19.9333 67.1167 20.4333 66.65 20.9C66.5167 21.1 66.3833 21.2667 66.25 21.4C66.1167 21.5333 65.9833 21.65 65.85 21.75L65.4 22.05C65.0333 22.2833 64.4 22.8 63.5 23.6C62.6 24.3667 61.3167 25.55 59.65 27.15L58.85 27C56.9167 27.7 55.45 28.1167 54.45 28.25C53.4167 28.4167 52.9 28.4833 52.9 28.45C52.6667 28.45 52.4167 28.4333 52.15 28.4C51.85 28.4 51.5167 28.4 51.15 28.4H51L50.85 28.45C50.6167 28.55 50.1667 28.65 49.5 28.75C48.8667 28.8167 47.8667 28.85 46.5 28.85C46.3 28.85 46.1167 28.85 45.95 28.85C45.75 28.85 45.5667 28.85 45.4 28.85H44.9C44.6667 28.85 44.4333 28.8167 44.2 28.75C43.9667 28.6833 43.7667 28.6167 43.6 28.55L43.15 28.4L42.85 28.55C42.75 28.6167 42.6667 28.65 42.6 28.65C42.5 28.6833 42.4 28.7 42.3 28.7C42.1 28.7 41.8833 28.6667 41.65 28.6C41.4167 28.5 41.1833 28.4 40.95 28.3C40.5833 28.1667 40.2167 28.0333 39.85 27.9C39.5167 27.8 39.15 27.7333 38.75 27.7C37.2167 27.7 35.7 27.4 34.2 26.8C32.7 26.1667 31.15 25.2667 29.55 24.1L24.85 20.85L21.4 15.5L18.45 12.25C18.45 12.1833 18.45 12.0833 18.45 11.95C18.4833 11.8833 18.5 11.7833 18.5 11.65L25.75 7.85001L33.4 6.60001C33.4667 7.83334 33.6 9.2 33.8 10.7C34.0333 12.1667 34.35 13.55 34.75 14.85L35 15.55L35.45 15.4V15.55L36.75 16.7C37.0833 17.3 37.5 17.7833 38 18.15C38.5333 18.5167 39.0833 18.8333 39.65 19.1L39.85 19.25C40.45 19.5833 41.0667 19.8333 41.7 20C42.3333 20.1333 42.9833 20.2 43.65 20.2C43.75 20.3 43.9833 20.4 44.35 20.5C44.7167 20.5333 45.1167 20.5667 45.55 20.6C45.9167 20.6 46.2167 20.5833 46.45 20.55C46.8167 20.6833 47.2167 20.75 47.65 20.75C48.25 20.75 48.8167 20.65 49.35 20.45C49.9167 20.25 50.4667 19.9167 51 19.45C51.1333 19.4833 51.2833 19.5167 51.45 19.55C51.5833 19.5833 51.6667 19.5 51.7 19.3C52.1333 19.3 52.6 19.1 53.1 18.7C53.5667 18.3 53.9667 17.8667 54.3 17.4C54.6667 16.9333 54.9 16.5667 55 16.3C55.3667 16.0333 55.7 15.7167 56 15.35C56.3333 14.95 56.6667 14.4667 57 13.9C57.3667 13.2667 57.65 12.6833 57.85 12.15C58.0167 11.55 58.1 11.0167 58.1 10.55C58.1 10.3167 58.1 10.1 58.1 9.89999C58.0333 9.73333 57.9667 9.55001 57.9 9.35001H58.35C58.4167 8.98334 58.45 8.78333 58.45 8.75V8.60001C58.5167 8.60001 58.5833 8.60001 58.65 8.60001ZM48.5 7.14999C49.2333 7.14999 50.2 7.14999 51.4 7.14999C51.9 7.14999 52.3833 7.14999 52.85 7.14999C53.2833 7.14999 53.7167 7.14999 54.15 7.14999C54.05 7.61666 53.9333 8.10001 53.8 8.60001C53.6667 9.06667 53.5 9.55 53.3 10.05C53.2667 10.2167 53.2333 10.3833 53.2 10.55C53.1333 10.7167 53.0667 10.8833 53 11.05C52.7 11.2833 52.3833 11.6833 52.05 12.25C51.85 12.5167 51.7 12.7667 51.6 13C51.5 13.2 51.4 13.4 51.3 13.6C50.9333 13.9333 50.5333 14.3833 50.1 14.95C49.6667 15.4833 49.1833 15.9333 48.65 16.3L48.35 15.8L47.7 16.45C47.5 16.6167 47.3 16.6167 47.1 16.45C46.9 16.2833 46.65 16.1833 46.35 16.15C45.9833 16.15 45.6833 16.0833 45.45 15.95C45.1833 15.8167 44.9833 15.6167 44.85 15.35L44.5 14.8L44.05 15H42.55L41.55 17.25L41.4 14.8C41.3333 14.8 41.25 14.7833 41.15 14.75C41.0833 14.7167 41.0167 14.7 40.95 14.7C40.85 14.7667 40.6 14.6167 40.2 14.25C39.8333 13.9167 39.3167 13.0333 38.65 11.6C38.2833 10.6333 37.9667 9.76667 37.7 9C37.4667 8.23333 37.3333 7.55 37.3 6.95V6.85001L37.2 6.8C37.2 6.73334 37.2 6.66667 37.2 6.60001C37.2 6.50144 37.2 6.43476 37.2 6.39999C37.199 6.43385 37.1656 6.46719 37.1 6.5C37.0333 6.56667 36.95 6.60001 36.85 6.60001H36.75L37.2 6.10001L37.45 6.7C38.0167 6.46666 38.6167 6.28333 39.25 6.14999C39.8833 6.01666 40.55 5.95 41.25 5.95L42.6 5.89999C43.6 5.89999 44.4167 5.96667 45.05 6.10001C45.65 6.26667 46.1333 6.56667 46.5 7L46.85 7.35001L47.2 7.25C47.3333 7.21667 47.7667 7.18333 48.5 7.14999Z" fill="#1A202C"/>
</svg>
