<svg width="88" height="64" viewBox="0 0 88 64" fill="none" xmlns="http://www.w3.org/2000/svg">
<path d="M69.55 11.25L66.4 8.85C65.5333 7.51667 64.3833 6.44999 62.95 5.64999C61.55 4.81666 60.0333 4.03333 58.4 3.3C56.8333 2.6 55.2167 2.06666 53.55 1.7C51.8833 1.36666 50.1667 1.21667 48.4 1.25C48.0333 0.816667 47.5833 0.499995 47.05 0.299995C46.55 0.0999954 45.95 0 45.25 0C44.7833 0 44.25 0.0333318 43.65 0.0999985C43.0167 0.166665 42.2833 0.28333 41.45 0.449997C40.9167 0.28333 40.4 0.166665 39.9 0.0999985C39.3667 0.0333318 38.8167 0 38.25 0C36.75 0 35.2833 0.23333 33.85 0.699997C32.45 1.2 31.0833 1.93333 29.75 2.89999C29.6167 2.79999 29.5 2.78333 29.4 2.85C29.2667 2.95 29.1833 3.13333 29.15 3.39999C29.0833 3.56666 29.05 3.73333 29.05 3.89999C29.05 4.03333 29.05 4.16666 29.05 4.3C29.0167 4.3 28.9667 4.26666 28.9 4.2C28.8667 4.13333 28.8 4.05 28.7 3.95C27.3667 4.35 26.1833 4.71666 25.15 5.05C24.1167 5.38333 23.2667 5.68333 22.6 5.95C21.6333 6.91666 20.6667 8.26667 19.7 10C18.8667 10.4333 18 11.0833 17.1 11.95C16.2333 12.8167 15.3667 13.95 14.5 15.35C13.6 16.65 12.9167 17.9 12.45 19.1C11.9833 20.3 11.75 21.4167 11.75 22.45C11.75 22.7167 11.6667 23.15 11.5 23.75C11.3667 24.3167 11.2333 24.8667 11.1 25.4C10.9667 25.9333 10.95 26.3 11.05 26.5C11.25 26.5 11.45 26.4833 11.65 26.45C11.85 26.45 12.2167 26.4667 12.75 26.5C12.25 26.6 11.9 26.6667 11.7 26.7C11.4667 26.7333 11.2 26.75 10.9 26.75C10.7333 28.7167 10.8 30.9333 11.1 33.4C11.4 35.8667 12.0167 38.4833 12.95 41.25L12.75 41.3C12.7833 41.4 12.9 41.6333 13.1 42C13.2667 42.3667 13.45 42.7333 13.65 43.1C13.7833 43.4667 13.8833 43.7 13.95 43.8C14.4167 44.4667 14.8167 45.2333 15.15 46.1C15.4833 46.9333 15.7667 47.7 16 48.4C16.2333 49.0667 16.4167 49.5 16.55 49.7C16.5167 49.9 16.45 50.1833 16.35 50.55C16.2167 50.9167 16.2167 51.25 16.35 51.55L16.9 51.7C16.8 51.7333 16.7333 51.7833 16.7 51.85C16.6667 51.9167 16.6167 52 16.55 52.1C16.4167 52.2667 16.2833 52.5 16.15 52.8C15.9833 53.0667 15.9333 53.4167 16 53.85C16.0667 54.25 16.0333 54.5833 15.9 54.85C15.7333 55.0833 15.5833 55.3167 15.45 55.55C15.3833 55.65 15.3667 55.7833 15.4 55.95C15.4333 56.1167 15.3667 56.2333 15.2 56.3L14.4 56.7C14.1667 57 13.9167 57.2333 13.65 57.4C13.3833 57.5333 13.2667 57.7 13.3 57.9C13.2 57.8667 13.1167 57.8167 13.05 57.75C12.9833 57.7167 12.9333 57.7 12.9 57.7C12.8333 57.6333 12.7833 57.6 12.75 57.6C12.7167 57.6 12.6667 57.6 12.6 57.6C12.2333 57.8 11.85 57.95 11.45 58.05C11.0167 58.15 10.5333 58.15 10 58.05C9.53333 58.0167 9.08333 57.95 8.65 57.85C8.25 57.7167 7.85 57.5333 7.45 57.3C7.05 57.0667 6.71667 56.7667 6.45 56.4C6.15 56 5.93333 55.5333 5.8 55C5.93333 54.2667 6.05 53.7167 6.15 53.35C6.25 52.9833 6.31667 52.7667 6.35 52.7C6.41667 52.5667 6.53333 52.45 6.7 52.35C6.83333 52.25 7.01667 52.1667 7.25 52.1C7.31667 52 7.36667 51.9333 7.4 51.9L7.45 51.8C7.55 51.3667 7.53333 50.9833 7.4 50.65C7.3 50.2833 7.06667 49.9667 6.7 49.7C6.2 49.3 5.8 48.9667 5.5 48.7C5.23333 48.4 5.05 48.1833 4.95 48.05C4.68333 47.9833 4.43333 47.9667 4.2 48C4 48 3.8 48.0333 3.6 48.1C1.93334 49.7 0.983333 50.7333 0.75 51.2C0.55 51.5333 0.416669 51.85 0.350002 52.15C0.283336 52.5167 0.266666 52.8667 0.299999 53.2C0.266666 53.4667 0.25 53.7 0.25 53.9C0.25 54.1 0.300002 54.2833 0.400002 54.45C0.533335 54.55 0.666666 54.6333 0.799999 54.7C0.899999 54.8 1.01667 54.9 1.15 55C1.05 55.0667 0.966668 55.1167 0.900002 55.15C0.800002 55.1833 0.700002 55.2333 0.600002 55.3C0.333336 55.3 0.166669 55.3833 0.100002 55.55L0 55.6C0.433333 56.8667 1.01667 58.0167 1.75 59.05C2.48333 60.05 3.4 60.9167 4.5 61.65L4.85 61.6C5.08334 61.5333 5.45 61.45 5.95 61.35L6.25 61.5L6.1 62.5C7 62.9667 7.81667 63.2667 8.55 63.4C9.25 63.5333 9.83333 63.5333 10.3 63.4C10.3667 63.2667 10.4167 63.1333 10.45 63C10.5167 62.8667 10.5833 62.7333 10.65 62.6L11 62.15H11.05C11.1167 62.1833 11.2 62.2667 11.3 62.4C11.3667 62.5667 11.4167 62.7333 11.45 62.9C11.4833 63.1 11.5333 63.2833 11.6 63.45C11.6667 63.5833 11.75 63.6833 11.85 63.75C12.1167 63.8833 12.4833 63.9167 12.95 63.85C13.3833 63.7833 13.9167 63.6167 14.55 63.35C14.5833 63.35 14.8167 63.2333 15.25 63C15.65 62.7667 16.2833 62.45 17.15 62.05L17.25 61.9C17.35 61.7 17.5667 61.4833 17.9 61.25C18.2 61.0167 18.4667 60.75 18.7 60.45C19 60.15 19.2333 59.9 19.4 59.7C19.5667 59.4667 19.6833 59.2667 19.75 59.1C20.0167 58.7333 20.35 58.2167 20.75 57.55C21.15 56.8833 21.3833 56.3667 21.45 56L22 54.65C22.4 53.7833 22.6667 52.8833 22.8 51.95C22.9667 51.0167 23.0667 50.25 23.1 49.65C23.1333 49.0167 23.15 48.6833 23.15 48.65C23.1167 48.3167 22.9833 47.8167 22.75 47.15C22.5167 46.45 22.35 45.85 22.25 45.35C22.1167 45.1167 21.9 44.6333 21.6 43.9C21.3 43.1333 20.9833 42.3167 20.65 41.45C20.2833 40.6167 19.9833 39.9 19.75 39.3H19.6C19.2667 38.1667 19.0167 37 18.85 35.8C18.6833 34.5667 18.6 33.35 18.6 32.15C18.6333 30.35 19.0167 28.4667 19.75 26.5C20.45 24.5333 21.2167 22.4833 22.05 20.35C22.4167 20.0167 22.8333 19.6167 23.3 19.15C23.7667 18.6833 24.25 18.1333 24.75 17.5C25.25 16.8333 25.6667 16.2333 26 15.7C26.3 15.1667 26.4833 14.7 26.55 14.3C27.65 13.4333 29 12.6 30.6 11.8C32.1667 10.9667 33.8 10.1333 35.5 9.3V7.8L36.65 9.25C37.3833 8.65 38.1667 8.18333 39 7.85C39.9 7.55 40.85 7.39999 41.85 7.39999C43.0833 7.36666 44.1667 7.33333 45.1 7.3C46.0333 7.3 47 7.61667 48 8.25C48.2 8.15 48.6833 8.16666 49.45 8.3C50.2167 8.43333 51.3167 8.88333 52.75 9.64999L54.65 8.6L54.35 9.95C54.5833 9.75 54.8167 9.71667 55.05 9.85C55.2833 10.0167 55.5333 10.2167 55.8 10.45C56.0333 10.6833 56.2833 10.8167 56.55 10.85C57.8167 10.85 59.1 11.55 60.4 12.95C61.7 14.35 63.0333 16.4667 64.4 19.3C65.4667 21.6333 66.35 23.7333 67.05 25.6C67.6833 27.5 68.1 29.1667 68.3 30.6C67.7667 30.8 67.35 31.1 67.05 31.5C66.7833 31.9 66.65 32.3667 66.65 32.9C66.85 33.2333 66.9833 33.6167 67.05 34.05C67.15 34.4833 67.2 34.9833 67.2 35.55C67.2 36.3167 67.1167 37.1 66.95 37.9C66.7833 38.7 66.5167 39.5167 66.15 40.35C65.9167 40.9167 65.6833 41.4 65.45 41.8H65.85C65.6167 42.5333 65.4667 43.25 65.4 43.95C65.3 44.6167 65.1833 45.0833 65.05 45.35C64.9833 45.85 64.85 46.45 64.65 47.15C64.4833 47.8167 64.3333 48.3167 64.2 48.65C64.2 48.6833 64.25 48.7667 64.35 48.9C64.3833 49.0333 64.5167 49 64.75 48.8L64.9 48.6C65.0333 48.4667 65.1333 48.35 65.2 48.25C65.0667 48.4833 64.95 48.7 64.85 48.9C64.75 49.1 64.65 49.25 64.55 49.35L65.25 54.65L65.85 56C65.8833 56.3667 66.1 56.8833 66.5 57.55C66.9333 58.2167 67.25 58.7333 67.45 59.1C67.55 59.2667 67.7 59.4667 67.9 59.7C68.0667 59.9 68.2833 60.15 68.55 60.45C68.8167 60.75 69.1 61.0167 69.4 61.25C69.7333 61.4833 69.9667 61.7 70.1 61.9L70.15 62.05C70.9833 62.45 71.6167 62.7667 72.05 63C72.45 63.2333 72.6833 63.35 72.75 63.35C73.35 63.6167 73.8833 63.7833 74.35 63.85C74.8167 63.9167 75.1833 63.8833 75.45 63.75C75.5833 63.6833 75.6667 63.5833 75.7 63.45C75.7667 63.2833 75.8167 63.1 75.85 62.9C75.8833 62.7333 75.9333 62.5667 76 62.4C76.1 62.2667 76.1833 62.1833 76.25 62.15H76.35L76.65 62.6C76.7167 62.7333 76.7833 62.8667 76.85 63C76.8833 63.1333 76.9167 63.2667 76.95 63.4C77.45 63.5333 78.05 63.5333 78.75 63.4C79.45 63.2667 80.2667 62.9667 81.2 62.5L81.05 61.5L81.35 61.35C81.8167 61.45 82.1833 61.5333 82.45 61.6L82.8 61.65C83.8667 60.9167 84.7833 60.0333 85.55 59C86.3167 58 86.8833 56.8667 87.25 55.6L87.2 55.55C87.1 55.3833 86.9333 55.3 86.7 55.3C86.6 55.2333 86.5 55.1833 86.4 55.15C86.3333 55.1167 86.25 55.0667 86.15 55C86.2833 54.9 86.4 54.8 86.5 54.7C86.6333 54.6333 86.7667 54.55 86.9 54.45C86.9667 54.2833 87 54.1 87 53.9C87.0333 53.7 87.0167 53.4667 86.95 53.2C87.0167 52.8667 87.0167 52.5167 86.95 52.15C86.9167 51.85 86.7833 51.5333 86.55 51.2C86.3167 50.7333 85.35 49.7 83.65 48.1C83.4833 48.0333 83.2833 48 83.05 48C82.85 47.9667 82.6 47.9833 82.3 48.05C82.2333 48.1833 82.05 48.4 81.75 48.7C81.4833 48.9667 81.0833 49.3 80.55 49.7C80.2167 49.9667 80 50.2833 79.9 50.65C79.8 50.9833 79.7833 51.3667 79.85 51.8L79.9 51.9C79.9333 51.9333 80 52 80.1 52.1C80.3 52.1667 80.4833 52.25 80.65 52.35C80.75 52.45 80.8667 52.5667 81 52.7C81 52.7667 81.05 52.9833 81.15 53.35C81.25 53.7167 81.3667 54.2667 81.5 55C81.3667 55.5333 81.15 56 80.85 56.4C80.5833 56.7667 80.25 57.0667 79.85 57.3C79.45 57.5333 79.05 57.7167 78.65 57.85C78.2167 57.95 77.75 58.0167 77.25 58.05C76.75 58.15 76.2833 58.15 75.85 58.05C75.4167 57.95 75.05 57.8 74.75 57.6C74.65 57.6 74.5833 57.6 74.55 57.6C74.4833 57.6 74.4333 57.6333 74.4 57.7C74.3667 57.7 74.3 57.7167 74.2 57.75C74.1667 57.8167 74.1 57.8667 74 57.9C74 57.9333 74 57.9667 74 58H73.9C74 57.7667 73.9167 57.5667 73.65 57.4C73.3833 57.2333 73.1333 57 72.9 56.7L72.05 56.3C71.95 56.2333 71.9 56.1167 71.9 55.95C71.9 55.7833 71.8833 55.65 71.85 55.55C71.7167 55.3167 71.5667 55.0833 71.4 54.85C71.2333 54.5833 71.2 54.25 71.3 53.85C71.3333 53.4167 71.2833 53.0667 71.15 52.8C71.0167 52.5 70.8667 52.2667 70.7 52.1C70.6667 52 70.6167 51.9167 70.55 51.85C70.4833 51.7833 70.4333 51.7333 70.4 51.7L71 51.55C71.0667 51.25 71.0667 50.9167 71 50.55C70.8667 50.1833 70.7667 49.9 70.7 49.7C70.8667 49.5 71.0667 49.0667 71.3 48.4C71.5 47.7 71.7667 46.9333 72.1 46.1C72.4333 45.2333 72.85 44.4667 73.35 43.8C73.4167 43.6667 73.5333 43.4 73.7 43C73.9 42.5667 74.1167 42.1667 74.35 41.8H74.4V41.75C74.4 41.7167 74.4 41.6667 74.4 41.6C74.4333 41.5333 74.4667 41.4833 74.5 41.45C74.5333 41.4167 74.55 41.3667 74.55 41.3H74.5C74.7667 40.0333 74.9667 38.7 75.1 37.3C75.2667 35.9 75.35 34.3833 75.35 32.75C75.35 29.4833 74.9667 26.1333 74.2 22.7C73.3667 19.2 72.15 15.8667 70.55 12.7L69.7 13.2L69.55 11.25Z" fill="#1A202C"/>
</svg>
