<svg width="75" height="80" viewBox="0 0 75 80" fill="none" xmlns="http://www.w3.org/2000/svg">
<path d="M24.4 6.85001V6.95H24.45L24.4 6.85001ZM51.75 1.75C50.8833 1.41667 50.2167 1.18334 49.75 1.05C49.3167 0.883336 49.0833 0.800003 49.05 0.800003C48.7833 0.733336 48.5667 0.666673 48.4 0.600006C48.2 0.533339 47.9833 0.5 47.75 0.5L46.9 0C46.8 0.1 46.6 0.150009 46.3 0.150009C45.9667 0.216676 45.55 0.283339 45.05 0.350006C44.5833 0.350006 44.2 0.4 43.9 0.5C43.6333 0.566667 43.4333 0.63333 43.3 0.699997C43.2333 0.63333 43.15 0.583336 43.05 0.550003C42.95 0.550003 42.85 0.550003 42.75 0.550003C42.4167 0.550003 41.9667 0.599997 41.4 0.699997C40.8667 0.83333 40.2167 0.999997 39.45 1.2C38.95 1.1 38.5333 0.983339 38.2 0.850006C37.9 0.650006 37.7 0.583342 37.6 0.650009C32.8333 0.616676 29.0833 0.600006 26.35 0.600006C23.5833 0.566673 21.55 0.550003 20.25 0.550003C18.95 0.550003 18.1167 0.550003 17.75 0.550003H17.25C16.75 0.550003 16.2833 0.550003 15.85 0.550003C15.3833 0.583336 14.95 0.63333 14.55 0.699997C14.45 0.83333 14.2667 0.916664 14 0.949997C13.7 0.98333 13.4167 1.01667 13.15 1.05C12.8833 1.05 12.7333 1.11667 12.7 1.25L11.25 1.2L10.25 0.550003C9.71667 0.550003 9.16666 0.566673 8.59999 0.600006C8.03332 0.633339 7.46666 0.666664 6.89999 0.699997C6.53333 0.73333 6.06667 0.73333 5.5 0.699997C4.93333 0.699997 4.29999 0.650003 3.59999 0.550003L2 1.25C1.76667 1.41667 1.36667 1.35 0.800003 1.05C0.56667 0.883336 0.400003 0.71667 0.300003 0.550003C0.333336 0.750003 0.316667 0.91667 0.25 1.05C0.15 1.18334 0.0666667 1.36667 0 1.60001C0.366667 1.83334 0.633336 2.03333 0.800003 2.2C1.03334 2.4 1.14999 2.58333 1.14999 2.75C1.08333 2.85 0.916661 2.96667 0.649994 3.10001C0.383327 3.26667 0.216661 3.36668 0.149994 3.40001L0.25 3.8L0.149994 4.35001L0.550003 4.25C0.550003 4.28333 0.516664 4.38334 0.449997 4.55C0.316664 4.71667 0.216661 4.90001 0.149994 5.10001V7.65001H1.5C2.16667 7.31668 2.81666 7.08333 3.45 6.95C4.08333 6.78333 4.71666 6.7 5.34999 6.7C7.51666 6.7 8.8 6.78333 9.2 6.95L10.85 7.10001L11.35 34.85L11 48.15L12.15 50.45L11.15 51.35V60.65L12.4 61.55L11.15 63.2C11.05 64.7 11.0167 65.7667 11.05 66.4C11.05 67.0667 11.0667 67.4667 11.1 67.6L11.15 67.8V72.5L9.55 79.4L12.3 79.95L15.25 80L19.4 79.25L18.4 75.9L18.05 73.6L17.25 72.65L17.9 71.15V54.7L17.5 48.85L18.2 7H18.3L21.4 6.7C21.7333 6.73333 22.3167 6.75 23.15 6.75C24.0167 6.71667 24.95 6.68334 25.95 6.65001C26.9167 6.65001 27.7667 6.66666 28.5 6.7C29.2 6.73333 29.55 6.83333 29.55 7C30.0167 7 30.4 6.95001 30.7 6.85001C31 6.78334 31.2 6.63334 31.3 6.40001L32.2 6.8L32.5 6.5L34.2 6.60001C34.8 6.63334 35.2667 6.68333 35.6 6.75C35.9 6.78333 36.0833 6.8 36.15 6.8H36.75C37.15 6.8 37.6167 6.8 38.15 6.8L38.65 34.85L38.3 48.15L39.45 50.45L38.5 51.35V60.65L39.7 61.55L38.5 63.2C38.3667 64.7 38.3 65.7667 38.3 66.4C38.3 67.0667 38.3333 67.4667 38.4 67.6L38.5 67.8V72.5L36.9 79.4L39.6 79.95L42.55 80L46.7 79.25L45.7 75.9L45.35 73.6L44.55 72.65L45.2 71.15V54.7L44.8 48.85L45.55 7.10001C45.95 7.10001 46.3167 7.10001 46.65 7.10001C46.9833 7.10001 47.3 7.10001 47.6 7.10001C47.6333 7.13334 47.6833 7.15001 47.75 7.15001C47.7833 7.15001 47.85 7.15001 47.95 7.15001C47.9833 7.15001 48.0333 7.15001 48.1 7.15001C48.1667 7.11668 48.2167 7.10001 48.25 7.10001C48.2833 7.06667 48.3333 7.01666 48.4 6.95C48.4333 6.85 48.4833 6.76666 48.55 6.7C48.55 6.93333 48.6833 7.11667 48.95 7.25C49.25 7.38333 49.5167 7.60001 49.75 7.90001L50.55 8.15001C50.7167 8.18334 50.8 8.3 50.8 8.5C50.8 8.66667 50.8667 8.81666 51 8.95C51.1 9.15 51.2333 9.38334 51.4 9.65001C51.5667 9.88334 51.6667 10.2333 51.7 10.7C51.7 11.1667 51.8 11.5333 52 11.8C52.1667 12.0333 52.3167 12.2667 52.45 12.5C52.5167 12.5 52.5667 12.55 52.6 12.65C52.6667 12.6833 52.7333 12.7333 52.8 12.8L52.25 13C52.25 13.3667 52.3 13.7333 52.4 14.1C52.5333 14.5 52.65 14.8 52.75 15C52.6833 15.0667 52.6333 15.1833 52.6 15.35C52.5667 15.45 52.5167 15.6333 52.45 15.9H52.4C52.3 16.4333 52.1833 16.9167 52.05 17.35C51.95 17.7833 51.85 18.1333 51.75 18.4C51.75 18.5333 51.75 18.7167 51.75 18.95C51.7167 19.1833 51.7 19.45 51.7 19.75C51.6 19.9833 51.5167 20.2333 51.45 20.5C51.35 20.7667 51.25 21.0167 51.15 21.25H51.5C51.4667 21.4167 51.4333 21.5667 51.4 21.7C51.3667 21.8 51.35 21.8833 51.35 21.95C51.3833 22.05 51.4333 22.1667 51.5 22.3C51.6 22.4 51.7167 22.3167 51.85 22.05L52 21.85C52.0667 21.75 52.15 21.6 52.25 21.4C52.15 21.7 52.0667 21.9667 52 22.2C51.9333 22.4 51.8833 22.5667 51.85 22.7L53.2 28.2L53.9 29.5C53.9667 29.9333 54.25 30.4667 54.75 31.1C55.2167 31.7667 55.5667 32.2833 55.8 32.65C55.9333 32.7833 56.1167 32.9667 56.35 33.2C56.5167 33.4333 56.75 33.7 57.05 34C57.3167 34.2667 57.6167 34.4833 57.95 34.65C58.2833 34.85 58.5333 35.0167 58.7 35.15L58.8 35.35C60.5 35.9833 61.3833 36.3 61.45 36.3C62.7167 36.7 63.5833 36.7 64.05 36.3C64.15 36.2667 64.2333 36.1833 64.3 36.05C64.3667 35.8833 64.4 35.6833 64.4 35.45C64.4 35.1833 64.4167 34.9833 64.45 34.85C64.5167 34.7167 64.5833 34.6167 64.65 34.55L64.75 34.45L65.05 34.95C65.1833 35.0833 65.2833 35.2167 65.35 35.35C65.4167 35.4833 65.4667 35.6167 65.5 35.75C66 35.85 66.5833 35.7667 67.25 35.5C67.8833 35.2333 68.65 34.7833 69.55 34.15L69.2 33.1L69.45 32.85C69.9167 32.9167 70.2667 32.9667 70.5 33H70.85C71.8167 32.0667 72.5833 31 73.15 29.8C73.7167 28.6333 74.1333 27.3333 74.4 25.9L74.35 25.85C74.25 25.6833 74.0833 25.6 73.85 25.6C73.7167 25.6 73.6 25.5833 73.5 25.55C73.4333 25.55 73.3667 25.5333 73.3 25.5C73.3667 25.3333 73.45 25.2 73.55 25.1C73.6833 24.9667 73.8 24.8333 73.9 24.7C73.9667 24.5 73.9833 24.2833 73.95 24.05C73.8833 23.85 73.8167 23.6167 73.75 23.35C73.8167 22.9833 73.7833 22.6333 73.65 22.3C73.55 21.9333 73.4 21.6167 73.2 21.35C73.0333 21.1167 72.6833 20.75 72.15 20.25C71.6167 19.7833 70.9 19.1833 70 18.45C69.8 18.4167 69.6 18.4 69.4 18.4C69.1667 18.4333 68.9167 18.5 68.65 18.6C68.6167 18.7667 68.4667 19.0167 68.2 19.35C67.9667 19.6833 67.6333 20.1167 67.2 20.65C66.9 21.0167 66.7333 21.3833 66.7 21.75C66.6 22.15 66.6333 22.55 66.8 22.95C66.8 22.9833 66.8333 23.0167 66.9 23.05C66.9 23.1167 66.95 23.1833 67.05 23.25C67.25 23.3167 67.4333 23.3833 67.6 23.45C67.7667 23.5167 67.9 23.65 68 23.85L68.2 24.45C68.3667 24.8167 68.5667 25.4167 68.8 26.25C68.7 26.8167 68.55 27.3 68.35 27.7C68.15 28.1667 67.8667 28.5667 67.5 28.9C66.8 29.4333 66 29.8167 65.1 30.05C64.6333 30.1833 64.1833 30.2333 63.75 30.2C63.35 30.2 62.9833 30.1 62.65 29.9C62.5833 29.9 62.5167 29.9333 62.45 30C62.4167 30 62.3667 30.0167 62.3 30.05C62.2667 30.05 62.2167 30.0833 62.15 30.15C62.0833 30.2167 62.0333 30.3 62 30.4C61.9667 30.4333 61.9333 30.45 61.9 30.45C61.9333 30.2167 61.8167 30.0167 61.55 29.85C61.2833 29.7167 61 29.5167 60.7 29.25L59.9 28.95C59.7667 28.9167 59.7 28.8 59.7 28.6C59.7 28.4333 59.6667 28.2833 59.6 28.15C59.4667 27.9833 59.3 27.7667 59.1 27.5C58.9333 27.2667 58.8333 26.9167 58.8 26.45C58.8333 25.9833 58.75 25.6167 58.55 25.35C58.3833 25.0833 58.2333 24.8667 58.1 24.7C58 24.6333 57.9333 24.55 57.9 24.45C57.8 24.3833 57.7333 24.3333 57.7 24.3L58.25 24.1C58.2833 23.7333 58.2333 23.3667 58.1 23C57.9333 22.6 57.8167 22.2833 57.75 22.05C57.7833 22.0167 57.8333 21.9167 57.9 21.75C57.9333 21.65 57.9667 21.4833 58 21.25H58.1C58.2333 20.6833 58.3667 20.1833 58.5 19.75C58.5667 19.3167 58.6333 18.9667 58.7 18.7C58.7 18.5333 58.7167 18.3333 58.75 18.1C58.7833 17.8667 58.8 17.6167 58.8 17.35C58.8667 17.0833 58.95 16.8333 59.05 16.6C59.15 16.3667 59.2667 16.1333 59.4 15.9H59C59 15.7 59.0333 15.5333 59.1 15.4C59.1333 15.2667 59.1667 15.1667 59.2 15.1C59.1667 15.0333 59.1 14.9333 59 14.8C58.9 14.7 58.7833 14.7667 58.65 15L58.5 15.2C58.4 15.3333 58.3167 15.5 58.25 15.7C58.3167 15.4 58.4 15.15 58.5 14.95C58.5667 14.75 58.6333 14.5667 58.7 14.4L57.35 8.90001L56.65 7.60001C56.55 7.16667 56.2667 6.63333 55.8 6C55.3333 5.33333 54.95 4.85 54.65 4.55C54.5833 4.38334 54.4333 4.18333 54.2 3.95C54 3.71666 53.75 3.46666 53.45 3.2C53.15 2.86666 52.8333 2.61666 52.5 2.45C52.2 2.28333 51.9833 2.10001 51.85 1.90001L51.75 1.75Z" fill="#1A202C"/>
</svg>
